<svg width="14" height="23" viewBox="0 0 14 23" fill="none" xmlns="http://www.w3.org/2000/svg">
<path fill-rule="evenodd" clip-rule="evenodd" d="M12.2929 8.11824C12.6834 8.50876 13.3166 8.50876 13.7071 8.11824C14.0976 7.72772 14.0976 7.09455 13.7071 6.70403L7.70711 0.704026C7.31658 0.313502 6.68342 0.313502 6.29289 0.704026L0.292894 6.70403C-0.0976312 7.09455 -0.0976312 7.72772 0.292894 8.11824C0.683418 8.50876 1.31658 8.50876 1.70711 8.11824L7 2.82535L12.2929 8.11824ZM12.2929 14.704C12.6834 14.3135 13.3166 14.3135 13.7071 14.704C14.0976 15.0946 14.0976 15.7277 13.7071 16.1182L7.70711 22.1182C7.31658 22.5088 6.68342 22.5088 6.29289 22.1182L0.292894 16.1182C-0.0976312 15.7277 -0.0976312 15.0946 0.292894 14.704C0.683418 14.3135 1.31658 14.3135 1.70711 14.704L7 19.9969L12.2929 14.704Z" fill="#28201B"/>
</svg>
