<svg width="16" height="16" viewBox="0 0 16 16" fill="none" xmlns="http://www.w3.org/2000/svg">
<g clip-path="url(#clip0_1551_20319)">
<path fill-rule="evenodd" clip-rule="evenodd" d="M11.5284 0.86201C11.7888 0.601661 12.2109 0.601661 12.4713 0.86201L15.1379 3.52868C15.3983 3.78903 15.3983 4.21114 15.1379 4.47149C14.8776 4.73184 14.4555 4.73184 14.1951 4.47149L11.5284 1.80482C11.2681 1.54447 11.2681 1.12236 11.5284 0.86201ZM9.69084 2.85376C9.89168 2.7885 10.108 2.7885 10.3089 2.85376C10.464 2.90415 10.5764 2.98785 10.6504 3.05071C10.7143 3.10496 10.7813 3.17204 10.8375 3.22821C10.8412 3.2319 10.8448 3.23555 10.8484 3.23913L12.7717 5.16248C12.8279 5.21861 12.895 5.28563 12.9492 5.34953C13.0121 5.42358 13.0958 5.53598 13.1462 5.69106C13.2114 5.89191 13.2114 6.10826 13.1462 6.3091C13.0958 6.46419 13.0121 6.57659 12.9492 6.65064C12.895 6.71454 12.8279 6.78158 12.7717 6.83772L5.87186 13.7376C5.86341 13.746 5.85503 13.7544 5.84671 13.7627C5.72225 13.8873 5.61242 13.9973 5.48515 14.09C5.37316 14.1716 5.253 14.2414 5.12658 14.2981C4.98294 14.3626 4.83296 14.4034 4.66303 14.4496C4.65168 14.4527 4.64023 14.4558 4.62869 14.459L1.5086 15.3099C1.27779 15.3729 1.03095 15.3073 0.861782 15.1382C0.692615 14.969 0.627062 14.7221 0.69001 14.4913L1.54094 11.3712C1.54409 11.3597 1.54721 11.3483 1.5503 11.3369C1.59653 11.167 1.63733 11.017 1.70183 10.8734C1.75858 10.7469 1.82831 10.6268 1.90991 10.5148C2.00263 10.3875 2.1126 10.2777 2.23721 10.1532C2.24553 10.1449 2.25393 10.1365 2.26238 10.1281L9.15133 3.23913C9.15491 3.23555 9.15854 3.23191 9.16222 3.22823C9.21835 3.17206 9.28539 3.10497 9.3493 3.05071C9.42335 2.98785 9.53575 2.90415 9.69084 2.85376ZM9.99985 4.27622L3.20519 11.0709C3.04181 11.2343 3.01116 11.2675 2.98755 11.2999C2.96035 11.3373 2.93711 11.3773 2.91819 11.4195C2.90177 11.456 2.88809 11.4992 2.8273 11.7221L2.28333 13.7166L4.27787 13.1726C4.50079 13.1118 4.5439 13.0982 4.58047 13.0817C4.62261 13.0628 4.66266 13.0396 4.7 13.0124C4.7324 12.9888 4.76567 12.9581 4.92905 12.7947L11.7237 6.00008L9.99985 4.27622Z" fill="#8B4513"/>
</g>
<defs>
<clipPath id="clip0_1551_20319">
<rect width="16" height="16" fill="white"/>
</clipPath>
</defs>
</svg>
