<svg width="20" height="20" viewBox="0 0 20 20" fill="none" xmlns="http://www.w3.org/2000/svg">
<path opacity="0.4" fill-rule="evenodd" clip-rule="evenodd" d="M2.53814 8.90625C2.4107 8.90625 2.30737 9.00956 2.30737 9.13702V12.5293C2.30737 14.6778 3.68737 16.1216 5.74122 16.1216H13.4881C15.5427 16.1216 16.9227 14.6778 16.9227 12.5293V9.13702C16.9227 9.00956 16.8194 8.90625 16.692 8.90625H2.53814Z" fill="#797979"/>
<path fill-rule="evenodd" clip-rule="evenodd" d="M16.6924 7.7529C16.8198 7.7529 16.9231 7.64958 16.9231 7.52213V7.46828C16.9231 5.31982 15.5431 3.87598 13.4885 3.87598H5.74159C3.68774 3.87598 2.30774 5.31982 2.30774 7.46828V7.52213C2.30774 7.64958 2.41105 7.7529 2.53851 7.7529H16.6924Z" fill="#797979"/>
<path d="M5.90517 13.0166H8.18905C8.50751 13.0166 8.76597 12.7582 8.76597 12.4397C8.76597 12.1213 8.50751 11.8628 8.18905 11.8628H5.90517C5.58671 11.8628 5.32825 12.1213 5.32825 12.4397C5.32825 12.7582 5.58671 13.0166 5.90517 13.0166Z" fill="#797979"/>
</svg>
