<svg width="24" height="38" viewBox="0 0 24 38" fill="none" xmlns="http://www.w3.org/2000/svg">
<g clip-path="url(#clip0_3458_32812)">
<path d="M23.1188 7.88238C22.7602 7.51951 22.3142 7.25524 21.8237 7.1151C21.3332 6.97496 20.8149 6.96369 20.3188 7.08238L4.31877 10.4524C3.39734 10.5787 2.5295 10.9599 1.81297 11.5528C1.09644 12.1457 0.559679 12.9269 0.263141 13.8084C-0.0333971 14.69 -0.0779367 15.6367 0.134538 16.5422C0.347013 17.4476 0.808063 18.2758 1.46577 18.9334L3.18377 20.6504C3.27675 20.7433 3.35049 20.8537 3.40077 20.9752C3.45104 21.0967 3.47687 21.2269 3.47677 21.3584V24.5264C3.47897 24.9718 3.58151 25.411 3.77677 25.8114L3.76877 25.8184L3.79477 25.8444C4.08778 26.4335 4.56635 26.91 5.15677 27.2004L5.18277 27.2264L5.18977 27.2184C5.59013 27.4136 6.02934 27.5162 6.47477 27.5184H9.64277C9.90782 27.5182 10.1621 27.6232 10.3498 27.8104L12.0668 29.5274C12.5273 29.993 13.0754 30.3629 13.6795 30.6157C14.2837 30.8685 14.9319 30.9992 15.5868 31.0004C16.1325 30.9997 16.6745 30.9105 17.1918 30.7364C18.0652 30.4496 18.8411 29.9244 19.432 29.2201C20.0229 28.5158 20.4052 27.6604 20.5358 26.7504L23.9108 10.7154C24.0356 10.215 24.0283 9.6908 23.8894 9.19414C23.7506 8.69749 23.485 8.24545 23.1188 7.88238ZM4.59977 19.2384L2.88077 17.5214C2.48049 17.1307 2.19994 16.634 2.07205 16.0895C1.94417 15.545 1.97425 14.9754 2.15877 14.4474C2.33766 13.9057 2.66837 13.4268 3.11156 13.0676C3.55475 12.7085 4.09178 12.4842 4.65877 12.4214L20.4998 9.08638L5.47477 24.1134V21.3584C5.47628 20.9647 5.39973 20.5747 5.24954 20.2108C5.09935 19.8469 4.8785 19.5164 4.59977 19.2384ZM18.5708 26.4084C18.494 26.9607 18.2648 27.4807 17.9089 27.91C17.553 28.3393 17.0844 28.6609 16.5559 28.8387C16.0274 29.0165 15.4597 29.0435 14.9167 28.9166C14.3737 28.7897 13.8768 28.514 13.4818 28.1204L11.7618 26.4004C11.4841 26.1212 11.1539 25.8999 10.7902 25.7492C10.4265 25.5985 10.0365 25.5214 9.64277 25.5224H6.88777L21.9148 10.5004L18.5708 26.4084Z" fill="#006AFF"/>
</g>
<defs>
<clipPath id="clip0_3458_32812">
<rect width="24" height="24" fill="white" transform="translate(0 7)"/>
</clipPath>
</defs>
</svg>
