<svg width="18" height="19" viewBox="0 0 18 19" fill="none" xmlns="http://www.w3.org/2000/svg">
<path fill-rule="evenodd" clip-rule="evenodd" d="M8.32937 17.5027L9.00021 16.1611L9.67101 17.5027C9.24872 17.7139 8.75166 17.7139 8.32937 17.5027ZM8.08503 4.79656C6.20234 2.64188 2.71622 2.8362 2.29723 6.06476C2.14318 7.25185 2.20661 8.40625 2.62529 9.41107C4.50033 13.9111 9.00021 16.1611 9.00021 16.1611C8.32937 17.5027 8.32849 17.5023 8.32849 17.5023L8.32751 17.5018L8.32522 17.5006L8.31941 17.4977L8.3029 17.4893C8.28975 17.4825 8.27233 17.4735 8.25088 17.4622C8.20799 17.4397 8.14888 17.408 8.07536 17.3672C7.92839 17.2856 7.72325 17.1673 7.47428 17.0121C6.97739 16.7024 6.29999 16.242 5.55953 15.6292C4.09083 14.4137 2.30439 12.5408 1.24068 9.988C0.687122 8.65949 0.635089 7.21726 0.809707 5.87172C0.978553 4.57065 1.54648 3.49708 2.45061 2.77949C3.34233 2.07175 4.43539 1.81026 5.48336 1.88766C6.75835 1.98184 8.02528 2.57435 9.00021 3.57726C9.97516 2.57432 11.2421 1.9818 12.5171 1.88762C13.5651 1.81021 14.6582 2.07169 15.5499 2.77944C16.4541 3.49703 17.022 4.57059 17.1909 5.87168C17.3655 7.21722 17.3135 8.65947 16.76 9.98799C15.6963 12.5409 13.9098 14.4137 12.441 15.6292C11.7005 16.242 11.0231 16.7024 10.5261 17.0121C10.2772 17.1673 10.072 17.2857 9.92504 17.3672C9.85151 17.408 9.79241 17.4397 9.74951 17.4622C9.72806 17.4735 9.71064 17.4825 9.69749 17.4893L9.68098 17.4977L9.67517 17.5006L9.67288 17.5018L9.6719 17.5023C9.6719 17.5023 9.67101 17.5027 9.00021 16.1611C9.00021 16.1611 13.5004 13.9111 15.3754 9.41107C15.794 8.40624 15.8574 7.25183 15.7034 6.06474C15.2843 2.83613 11.7981 2.64182 9.91539 4.79657C9.876 4.84164 9.83732 4.88775 9.79938 4.93488C9.46038 5.35595 8.54004 5.35595 8.20105 4.93488C8.16311 4.88775 8.12442 4.84164 8.08503 4.79656Z" fill="#28201B"/>
</svg>
