<svg width="12" height="16" viewBox="0 0 12 16" fill="none" xmlns="http://www.w3.org/2000/svg">
<g clip-path="url(#clip0_3522_13786)">
<path d="M12 8C12 9.18669 11.6481 10.3467 10.9888 11.3334C10.3295 12.3201 9.39246 13.0892 8.2961 13.5433C7.19975 13.9974 5.99335 14.1162 4.82946 13.8847C3.66558 13.6532 2.59648 13.0818 1.75736 12.2426C0.918247 11.4035 0.346802 10.3344 0.115291 9.17054C-0.11622 8.00666 0.00259972 6.80026 0.456726 5.7039C0.910851 4.60754 1.67989 3.67047 2.66658 3.01118C3.65328 2.35189 4.81332 2 6 2C7.59077 2.00172 9.1159 2.63441 10.2407 3.75926C11.3656 4.88411 11.9983 6.40923 12 8ZM7 8C7 7.73478 6.89465 7.48043 6.70711 7.29289C6.51957 7.10536 6.26522 7 6 7H5V8H6V11.5H7V8ZM6 4.5C5.85167 4.5 5.70666 4.54399 5.58333 4.6264C5.45999 4.70881 5.36386 4.82594 5.30709 4.96299C5.25033 5.10003 5.23548 5.25083 5.26441 5.39632C5.29335 5.5418 5.36478 5.67544 5.46967 5.78033C5.57456 5.88522 5.7082 5.95665 5.85369 5.98559C5.99917 6.01453 6.14997 5.99968 6.28702 5.94291C6.42406 5.88614 6.54119 5.79001 6.62361 5.66668C6.70602 5.54334 6.75 5.39834 6.75 5.25C6.75 5.05109 6.67099 4.86032 6.53033 4.71967C6.38968 4.57902 6.19892 4.5 6 4.5Z" fill="#E69900"/>
</g>
<defs>
<clipPath id="clip0_3522_13786">
<rect width="12" height="12" fill="white" transform="translate(0 2)"/>
</clipPath>
</defs>
</svg>
