<svg width="20" height="20" viewBox="0 0 20 20" fill="none" xmlns="http://www.w3.org/2000/svg">
<path opacity="0.4" fill-rule="evenodd" clip-rule="evenodd" d="M10 2.0835C5.63504 2.0835 2.08337 5.63433 2.08337 10.0002C2.08337 14.3652 5.63504 17.9168 10 17.9168C14.365 17.9168 17.9167 14.3652 17.9167 10.0002C17.9167 5.63433 14.365 2.0835 10 2.0835Z" fill="#797979"/>
<path fill-rule="evenodd" clip-rule="evenodd" d="M10.63 13.0775C10.63 13.4225 10.35 13.7025 10.005 13.7025C9.66 13.7025 9.38 13.4225 9.38 13.0775V9.495C9.38 9.15 9.66 8.87 10.005 8.87C10.35 8.87 10.63 9.15 10.63 9.495V13.0775ZM9.375 6.90918C9.375 6.56418 9.655 6.28418 10 6.28418C10.345 6.28418 10.625 6.56418 10.625 6.90918C10.625 7.25418 10.345 7.56085 10 7.56085C9.655 7.56085 9.375 7.30668 9.375 6.96168V6.90918Z" fill="#797979"/>
</svg>
