<svg width="14" height="14" viewBox="0 0 14 14" fill="none" xmlns="http://www.w3.org/2000/svg">
<path d="M10.5001 3.49989C10.3907 3.39054 10.2424 3.3291 10.0877 3.3291C9.93304 3.3291 9.7847 3.39054 9.67531 3.49989L7.00014 6.17506L4.32497 3.49989C4.21558 3.39054 4.06723 3.3291 3.91255 3.3291C3.75788 3.3291 3.60953 3.39054 3.50014 3.49989C3.39078 3.60928 3.32935 3.75763 3.32935 3.91231C3.32935 4.06699 3.39078 4.21534 3.50014 4.32473L6.1753 6.99989L3.50014 9.67506C3.39078 9.78445 3.32935 9.9328 3.32935 10.0875C3.32935 10.2422 3.39078 10.3905 3.50014 10.4999C3.60953 10.6093 3.75788 10.6707 3.91255 10.6707C4.06723 10.6707 4.21558 10.6093 4.32497 10.4999L7.00014 7.82473L9.67531 10.4999C9.7847 10.6093 9.93304 10.6707 10.0877 10.6707C10.2424 10.6707 10.3907 10.6093 10.5001 10.4999C10.6095 10.3905 10.6709 10.2422 10.6709 10.0875C10.6709 9.9328 10.6095 9.78445 10.5001 9.67506L7.82497 6.99989L10.5001 4.32473C10.6095 4.21534 10.6709 4.06699 10.6709 3.91231C10.6709 3.75763 10.6095 3.60928 10.5001 3.49989Z" fill="#BD7E00"/>
</svg>
