<svg width="150" height="148" viewBox="0 0 150 148" fill="none" xmlns="http://www.w3.org/2000/svg">
<g opacity="0.9">
<rect width="150" height="148" rx="9.02256" fill="white"/>
<path d="M43.8889 46.1274V36.2755C43.8889 31.6118 47.6696 27.8311 52.3334 27.8311H61.7161" stroke="#8E8E93" stroke-width="3.33333" stroke-linecap="round"/>
<path d="M43.8889 73.3375V83.1893C43.8889 87.8531 47.6696 91.6338 52.3334 91.6338H61.7161" stroke="#8E8E93" stroke-width="3.33333" stroke-linecap="round"/>
<path d="M107.222 46.1274V36.2755C107.222 31.6118 103.441 27.8311 98.7777 27.8311H89.395" stroke="#8E8E93" stroke-width="3.33333" stroke-linecap="round"/>
<path d="M107.222 73.3375V83.1893C107.222 87.8531 103.441 91.6338 98.7777 91.6338H89.395" stroke="#8E8E93" stroke-width="3.33333" stroke-linecap="round"/>
<path d="M86.1111 73.1641L84.7012 73.7907C78.8787 76.3785 72.2324 76.3785 66.4099 73.7907L65 73.1641" stroke="#8E8E93" stroke-width="3.33333" stroke-linecap="round"/>
<path d="M76.9508 49.707V61.2793C76.9508 63.052 75.7105 64.5829 73.9765 64.9507L72.5063 65.2626" stroke="#8E8E93" stroke-width="3.33333" stroke-linecap="round"/>
<path d="M62.1853 49.707L62.1853 55.2626" stroke="#8E8E93" stroke-width="3.33333" stroke-linecap="round"/>
<path d="M89.3953 49.707L89.3953 55.2626" stroke="#8E8E93" stroke-width="3.33333" stroke-linecap="round"/>
<path d="M47.9617 128.392V116.472H55.5613V118.264H50.0929V121.792H55.0905V123.526H50.0929V128.392H47.9617ZM59.0148 128.54C58.4476 128.54 57.9382 128.43 57.4866 128.21C57.0406 127.99 56.6881 127.678 56.4293 127.276C56.176 126.869 56.0493 126.39 56.0493 125.839V125.823C56.0493 125.288 56.1815 124.829 56.4458 124.443C56.7102 124.052 57.0984 123.747 57.6105 123.526C58.1227 123.306 58.745 123.177 59.4774 123.138L62.8146 122.931V124.286L59.7665 124.484C59.1883 124.517 58.7615 124.639 58.4861 124.848C58.2108 125.057 58.0731 125.349 58.0731 125.723V125.74C58.0731 126.125 58.2191 126.426 58.5109 126.64C58.8083 126.855 59.1855 126.963 59.6426 126.963C60.0556 126.963 60.4246 126.88 60.7495 126.715C61.0744 126.55 61.3305 126.327 61.5177 126.046C61.7049 125.759 61.7986 125.437 61.7986 125.079V122.221C61.7986 121.77 61.6554 121.425 61.369 121.189C61.0827 120.946 60.6586 120.825 60.0969 120.825C59.6288 120.825 59.2461 120.908 58.9487 121.073C58.6514 121.233 58.4503 121.461 58.3457 121.759L58.3375 121.792H56.3963L56.4045 121.717C56.4706 121.211 56.6689 120.767 56.9993 120.387C57.3297 120.007 57.7675 119.713 58.3127 119.503C58.8579 119.294 59.4857 119.19 60.196 119.19C60.978 119.19 61.6389 119.311 62.1785 119.553C62.7182 119.79 63.1285 120.137 63.4093 120.594C63.6902 121.045 63.8306 121.588 63.8306 122.221V128.392H61.7986V127.153H61.6581C61.4929 127.439 61.2782 127.687 61.0138 127.896C60.755 128.105 60.4576 128.265 60.1217 128.375C59.7858 128.485 59.4168 128.54 59.0148 128.54ZM69.4979 128.573C68.5893 128.573 67.8128 128.386 67.1685 128.012C66.5242 127.637 66.0313 127.097 65.6899 126.393C65.3484 125.688 65.1777 124.845 65.1777 123.865V123.848C65.1777 122.874 65.3484 122.039 65.6899 121.345C66.0313 120.652 66.5242 120.12 67.1685 119.751C67.8128 119.377 68.5865 119.19 69.4897 119.19C70.2661 119.19 70.9325 119.324 71.4887 119.594C72.0504 119.859 72.4937 120.228 72.8186 120.701C73.149 121.169 73.3528 121.717 73.4299 122.345V122.378H71.4887L71.4804 122.353C71.3868 121.913 71.172 121.552 70.8361 121.271C70.5057 120.99 70.0596 120.85 69.4979 120.85C69.0298 120.85 68.6278 120.968 68.2919 121.205C67.9615 121.442 67.7082 121.783 67.5319 122.229C67.3557 122.675 67.2676 123.215 67.2676 123.848V123.865C67.2676 124.504 67.3557 125.052 67.5319 125.509C67.7137 125.96 67.9697 126.307 68.3002 126.55C68.6306 126.786 69.0298 126.905 69.4979 126.905C70.0321 126.905 70.4616 126.784 70.7865 126.541C71.117 126.299 71.3455 125.941 71.4721 125.467L71.4887 125.434L73.4216 125.426L73.4133 125.5C73.3142 126.112 73.0994 126.649 72.769 127.111C72.4441 127.574 72.0091 127.935 71.4639 128.193C70.9187 128.447 70.2634 128.573 69.4979 128.573ZM78.5768 128.573C77.6791 128.573 76.9082 128.383 76.2638 128.003C75.625 127.623 75.1322 127.084 74.7852 126.384C74.4383 125.685 74.2648 124.856 74.2648 123.898V123.89C74.2648 122.942 74.4355 122.116 74.777 121.412C75.1239 120.707 75.614 120.161 76.2473 119.776C76.8806 119.385 77.6241 119.19 78.4776 119.19C79.3367 119.19 80.0746 119.38 80.6914 119.759C81.3137 120.134 81.7928 120.66 82.1287 121.337C82.4646 122.015 82.6326 122.808 82.6326 123.716V124.394H75.2974V123.014H81.6248L80.6501 124.303V123.485C80.6501 122.885 80.5592 122.386 80.3775 121.99C80.1958 121.593 79.9425 121.296 79.6176 121.098C79.2982 120.899 78.9264 120.8 78.5024 120.8C78.0784 120.8 77.7011 120.905 77.3707 121.114C77.0458 121.318 76.787 121.621 76.5943 122.023C76.407 122.419 76.3134 122.907 76.3134 123.485V124.311C76.3134 124.867 76.407 125.344 76.5943 125.74C76.7815 126.131 77.0458 126.434 77.3873 126.649C77.7342 126.858 78.1445 126.963 78.6181 126.963C78.987 126.963 79.3037 126.91 79.568 126.806C79.8378 126.695 80.0554 126.566 80.2206 126.417C80.3858 126.263 80.5014 126.117 80.5675 125.98L80.5923 125.922H82.5417L82.5252 125.996C82.4536 126.288 82.3215 126.585 82.1287 126.888C81.9415 127.186 81.6854 127.464 81.3605 127.723C81.0411 127.976 80.6501 128.182 80.1875 128.342C79.7249 128.496 79.188 128.573 78.5768 128.573ZM88.061 128.392V116.472H90.1922V128.392H88.061ZM92.4562 128.392V116.472H96.9251C98.1091 116.472 99.1168 116.703 99.9484 117.166C100.785 117.628 101.424 118.3 101.865 119.181C102.311 120.062 102.534 121.125 102.534 122.37V122.386C102.534 123.658 102.314 124.743 101.873 125.641C101.432 126.533 100.794 127.216 99.9566 127.689C99.1251 128.158 98.1146 128.392 96.9251 128.392H92.4562ZM94.5874 126.599H96.6442C97.4317 126.599 98.1036 126.437 98.6598 126.112C99.216 125.787 99.6372 125.313 99.9236 124.691C100.215 124.069 100.361 123.311 100.361 122.419V122.403C100.361 121.533 100.213 120.789 99.9153 120.173C99.6235 119.55 99.1994 119.077 98.6432 118.752C98.087 118.427 97.4207 118.264 96.6442 118.264H94.5874V126.599Z" fill="#8E8E93"/>
</g>
</svg>
