<svg width="80" height="81" viewBox="0 0 80 81" fill="none" xmlns="http://www.w3.org/2000/svg">
<path d="M11.999 27.9686V19.102C11.999 14.9046 15.4017 11.502 19.599 11.502H28.0435" stroke="#007AFF" stroke-width="4" stroke-linecap="round"/>
<path d="M11.999 52.4591V61.3258C11.999 65.5231 15.4017 68.9258 19.599 68.9258H28.0435" stroke="#007AFF" stroke-width="4" stroke-linecap="round"/>
<path d="M68.9985 27.9686V19.102C68.9985 14.9046 65.5959 11.502 61.3985 11.502H52.9541" stroke="#007AFF" stroke-width="4" stroke-linecap="round"/>
<path d="M68.9985 52.4591V61.3258C68.9985 65.5231 65.5959 68.9258 61.3985 68.9258H52.9541" stroke="#007AFF" stroke-width="4" stroke-linecap="round"/>
<path d="M49.9985 52.3008L48.7296 52.8647C43.4894 55.1938 37.5077 55.1938 32.2675 52.8647L30.9985 52.3008" stroke="#007AFF" stroke-width="4" stroke-linecap="round"/>
<path d="M41.7539 31.1895V41.6045C41.7539 43.1999 40.6377 44.5777 39.077 44.9088L37.7539 45.1895" stroke="#007AFF" stroke-width="4" stroke-linecap="round"/>
<path d="M28.4668 31.1895L28.4668 36.1895" stroke="#007AFF" stroke-width="4" stroke-linecap="round"/>
<path d="M52.9541 31.1895L52.9541 36.1895" stroke="#007AFF" stroke-width="4" stroke-linecap="round"/>
</svg>
