<svg width="47" height="10" viewBox="0 0 47 10" fill="none" xmlns="http://www.w3.org/2000/svg">
<g id="JUSPAYlogo" clip-path="url(#clip0_2815_272)">
<g id="logo">
<path id="Vector" fill-rule="evenodd" clip-rule="evenodd" d="M5.53781 9.99872C5.29829 10.0054 5.06543 9.98539 4.82591 9.95207C4.18054 9.85876 3.5751 9.65214 3.01622 9.31222C1.77872 8.56574 0.986982 7.47933 0.660972 6.05301C0.587786 5.73309 0.55452 5.4065 0.55452 5.07991C0.547867 3.77356 0.973675 2.62717 1.8386 1.65407C2.59042 0.814273 3.52187 0.301063 4.61966 0.0877811C4.92571 0.0277956 5.23176 -0.0055297 5.53781 0.00780041C5.53781 0.50768 5.53781 1.00089 5.53781 1.50077C5.5245 1.50744 5.5112 1.5141 5.49789 1.52743C5.31825 1.65407 5.13861 1.78737 4.96563 1.92734C4.57309 2.24726 4.2005 2.58718 3.8878 2.99375C3.46865 3.53362 3.18921 4.12681 3.14929 4.82664C3.12933 5.15989 3.16925 5.48648 3.2757 5.79974C3.53518 6.57955 4.34022 7.38602 5.47128 7.40602C5.53781 7.40602 5.55111 7.41935 5.55111 7.49266C5.54446 7.83258 5.54446 8.51241 5.54446 8.51241C5.54446 8.51241 5.54446 8.55241 5.54446 8.5724C5.53781 9.04562 5.53781 9.51884 5.53781 9.99872Z" fill="#2B8EFF"/>
<path id="Vector_2" fill-rule="evenodd" clip-rule="evenodd" d="M5.53873 1.49399C5.53873 1.49399 5.53873 0.5009 5.53873 0.00102071C5.81152 -0.00564435 6.07765 0.0210159 6.34378 0.0610062C6.84277 0.140987 7.3218 0.287618 7.77422 0.520895C8.71233 1.00744 9.45084 1.70061 9.94984 2.64705C10.2359 3.19358 10.4222 3.77344 10.4954 4.37996C10.5819 5.09312 10.5154 5.79962 10.3025 6.48612C10.0563 7.26593 9.64379 7.95243 9.06496 8.53229C8.35971 9.23212 7.5214 9.68535 6.55003 9.89196C6.21736 9.95861 5.87805 9.99861 5.53873 9.99194C5.53873 9.51206 5.53873 9.03884 5.53873 8.55895C5.53873 8.53896 5.53873 8.50563 5.53873 8.50563C5.53873 8.50563 5.55869 8.4923 5.56534 8.48564C6.0843 8.11906 6.57664 7.71916 7.00245 7.23927C7.28188 6.92601 7.5214 6.59276 7.68773 6.20619C7.9206 5.65965 8.01374 5.09979 7.89398 4.5066C7.68108 3.42686 6.71636 2.62039 5.60526 2.59373C5.53208 2.59373 5.53873 2.53374 5.53873 2.53374V1.49399Z" fill="#0561E2"/>
</g>
<g id="text">
<path id="Vector_3" d="M15.9509 6.5641C15.9509 6.84635 15.9046 7.11517 15.8186 7.37726C15.7326 7.63936 15.5937 7.86785 15.4218 8.06946C15.2432 8.27108 15.0249 8.42564 14.7604 8.54661C14.4958 8.66086 14.185 8.72134 13.8411 8.72134C13.2855 8.72134 12.8292 8.58693 12.4786 8.32484C12.1215 8.06274 11.89 7.64608 11.7776 7.07485L12.9482 6.79259C12.9879 7.0278 13.0805 7.21597 13.2326 7.3571C13.3781 7.49823 13.5633 7.56543 13.7816 7.56543C14.1387 7.56543 14.3834 7.44447 14.5091 7.19581C14.6347 6.95388 14.7009 6.61114 14.7009 6.18103V1.40283H15.9509V6.5641Z" fill="#1C1C1C"/>
<path id="Vector_4" d="M22.8425 5.91845C22.8425 6.34855 22.7697 6.73834 22.6242 7.08108C22.4787 7.43054 22.2803 7.71952 22.029 7.96145C21.7777 8.20338 21.4801 8.39155 21.1361 8.51924C20.7922 8.65365 20.4152 8.71413 20.0118 8.71413C19.6084 8.71413 19.2314 8.64693 18.8941 8.51924C18.5502 8.39155 18.2526 8.20338 17.9946 7.96145C17.7367 7.71952 17.5383 7.42382 17.3994 7.08108C17.2539 6.73834 17.1877 6.34855 17.1877 5.91845V1.40234H18.4377V5.87813C18.4377 6.05286 18.4642 6.23431 18.5171 6.4292C18.57 6.61737 18.656 6.79882 18.7817 6.96011C18.9007 7.1214 19.066 7.25581 19.2711 7.35661C19.4695 7.46414 19.7208 7.51118 20.0184 7.51118C20.316 7.51118 20.5674 7.45742 20.7658 7.35661C20.9642 7.25581 21.1295 7.1214 21.2552 6.96011C21.3742 6.79882 21.4668 6.62409 21.5197 6.4292C21.5727 6.23431 21.5991 6.05286 21.5991 5.87813V1.40234H22.8491V5.91845H22.8425Z" fill="#1C1C1C"/>
<path id="Vector_5" d="M27.5764 2.9344C27.4442 2.73951 27.2656 2.59838 27.0473 2.5043C26.8225 2.41021 26.591 2.36989 26.3463 2.36989C26.2008 2.36989 26.0619 2.39005 25.923 2.42365C25.7841 2.45726 25.6651 2.51102 25.5593 2.58494C25.4468 2.65887 25.3608 2.75295 25.2947 2.87392C25.2286 2.99489 25.1955 3.12929 25.1955 3.29058C25.1955 3.53252 25.2749 3.72069 25.4468 3.84166C25.6122 3.96934 25.8172 4.08359 26.0619 4.17096C26.3066 4.26504 26.5712 4.35913 26.8622 4.44649C27.1532 4.53386 27.4177 4.65482 27.669 4.80939C27.9137 4.96396 28.1188 5.17229 28.2841 5.42095C28.4495 5.67632 28.5354 6.01906 28.5354 6.43573C28.5354 6.81879 28.4693 7.15481 28.3304 7.43707C28.1915 7.72604 28.0063 7.96126 27.7682 8.14943C27.5301 8.3376 27.259 8.47873 26.9481 8.57281C26.6373 8.6669 26.3066 8.71394 25.9693 8.71394C25.5328 8.71394 25.1095 8.64002 24.7127 8.49217C24.3093 8.34432 23.9587 8.09567 23.6677 7.74621L24.6135 6.81879C24.7656 7.05401 24.964 7.23546 25.2153 7.36986C25.4667 7.50427 25.7246 7.56475 26.0024 7.56475C26.1479 7.56475 26.2934 7.54459 26.4389 7.50427C26.5844 7.46395 26.7167 7.40347 26.8357 7.32282C26.9547 7.24218 27.0473 7.14137 27.1201 7.01368C27.1928 6.89272 27.2325 6.74487 27.2325 6.58358C27.2325 6.32148 27.1465 6.11987 26.9812 5.97874C26.8159 5.83761 26.6108 5.71665 26.3661 5.62256C26.1214 5.52848 25.8503 5.43439 25.5593 5.34702C25.2682 5.25966 24.9971 5.13869 24.759 4.99084C24.5143 4.843 24.3093 4.64138 24.1439 4.38601C23.9786 4.13063 23.8926 3.79461 23.8926 3.37123C23.8926 3.00161 23.9653 2.68575 24.1175 2.41693C24.263 2.14812 24.4614 1.92634 24.7061 1.74489C24.9442 1.57016 25.222 1.43576 25.5328 1.34839C25.8436 1.26103 26.1611 1.2207 26.4852 1.2207C26.8555 1.2207 27.2127 1.28119 27.5632 1.38871C27.9071 1.50296 28.2246 1.69113 28.5024 1.95323L27.5764 2.9344Z" fill="#1C1C1C"/>
<path id="Vector_6" d="M29.5816 1.40234H31.9427C32.28 1.40234 32.604 1.43595 32.9215 1.50315C33.2323 1.57035 33.5101 1.6846 33.7482 1.83917C33.9863 2.00046 34.1781 2.20879 34.317 2.47089C34.4559 2.7397 34.5286 3.069 34.5286 3.46551C34.5286 3.91577 34.4493 4.27867 34.2972 4.55421C34.145 4.82975 33.94 5.0448 33.6821 5.19265C33.4241 5.3405 33.1265 5.44802 32.7826 5.50179C32.4387 5.55555 32.0882 5.58243 31.7178 5.58243H30.8249V8.5394H29.575V1.40234H29.5816ZM31.5855 4.50045C31.7641 4.50045 31.9493 4.49373 32.1411 4.48028C32.3329 4.46684 32.5114 4.42652 32.6702 4.35932C32.8289 4.29211 32.9612 4.19131 33.067 4.0569C33.1662 3.92249 33.2191 3.73432 33.2191 3.49239C33.2191 3.27061 33.1728 3.09588 33.0802 2.96148C32.9876 2.82707 32.8686 2.72626 32.7231 2.65906C32.5776 2.58513 32.4122 2.54481 32.2337 2.52465C32.0551 2.50449 31.8831 2.49105 31.7178 2.49105H30.8249V4.50045H31.5855Z" fill="#1C1C1C"/>
<path id="Vector_7" d="M36.9283 1.40234H38.0064L41.0355 8.5394H39.6069L38.9521 6.90635H35.9098L35.2749 8.5394H33.8728L36.9283 1.40234ZM38.5156 5.81764L37.431 2.91443L36.3331 5.81764H38.5156Z" fill="#1C1C1C"/>
<path id="Vector_8" d="M42.5566 5.48834L39.9177 1.40234H41.4852L43.2114 4.24507L44.9574 1.40234H46.4455L43.8066 5.48834V8.54612H42.5566V5.48834Z" fill="#1C1C1C"/>
</g>
</g>
<defs>
<clipPath id="clip0_2815_272">
<rect width="45.8911" height="10" fill="white" transform="translate(0.554443)"/>
</clipPath>
</defs>
</svg>
