<svg width="72" height="72" viewBox="0 0 72 72" fill="none" xmlns="http://www.w3.org/2000/svg">
<path fill-rule="evenodd" clip-rule="evenodd" d="M34.9572 70.4754C33.3039 70.4733 31.7018 70.2887 30.0565 70.0107C25.6241 69.2376 21.4898 67.691 17.7034 65.2343C9.31813 59.8373 4.07558 52.1853 2.11344 42.2824C1.67291 40.0612 1.50904 37.802 1.57461 35.5495C1.791 26.5381 4.958 18.7169 11.1188 12.179C16.4728 6.5378 23.0001 3.18517 30.6145 1.93456C32.7374 1.58228 34.8549 1.41388 36.9631 1.56727C36.8627 5.01497 36.7637 8.41671 36.6633 11.8644C36.5702 11.9077 36.4771 11.951 36.3827 12.0403C35.1183 12.8776 33.8525 13.761 32.6313 14.6916C29.8597 16.8193 27.2217 19.0889 24.9834 21.8303C21.984 25.4697 19.9376 29.5048 19.5218 34.3236C19.3172 36.6181 19.527 38.8786 20.1983 41.0605C21.8314 46.491 27.2219 52.215 35.0188 52.58C35.4777 52.5933 35.5668 52.6879 35.5521 53.1936C35.438 55.5367 35.3015 60.2256 35.3015 60.2256C35.3015 60.2256 35.2934 60.5014 35.2894 60.6393C35.1485 63.9018 35.0535 67.1656 34.9572 70.4754Z" fill="#2B8EFF"/>
<path fill-rule="evenodd" clip-rule="evenodd" d="M36.6734 11.8179C36.6734 11.8179 36.8728 4.96847 36.9732 1.52076C38.8559 1.52956 40.6861 1.76687 42.5136 2.09612C45.9391 2.74794 49.2136 3.85544 52.2872 5.55521C58.6597 9.09932 63.6141 14.0284 66.8657 20.6563C68.7291 24.4832 69.8976 28.5199 70.2806 32.7178C70.7339 37.6539 70.1332 42.5133 68.5269 47.2054C66.6725 52.5344 63.6896 57.1865 59.5809 61.0696C54.5763 65.7548 48.7034 68.7124 41.9623 69.9424C39.6545 70.3353 37.3062 70.543 34.9672 70.4289C35.0636 67.1191 35.1586 63.8553 35.255 60.5455C35.259 60.4076 35.2657 60.1777 35.2657 60.1777C35.2657 60.1777 35.406 60.0898 35.4532 60.0452C39.1061 57.621 42.5821 54.9617 45.6153 51.7374C47.6055 49.633 49.3243 47.3826 50.5492 44.7498C52.265 41.027 53.0198 37.1843 52.3129 33.069C51.0613 25.5792 44.5694 19.8232 36.9115 19.4162C36.4067 19.4015 36.4647 18.9891 36.4647 18.9891L36.6734 11.8179Z" fill="#0561E2"/>
</svg>
