<svg width="24" height="24" viewBox="0 0 24 24" fill="none" xmlns="http://www.w3.org/2000/svg">
<path d="M3 20V17.65C3 17.0166 3.15833 16.475 3.475 16.025C3.79166 15.575 4.2 15.2333 4.7 15C5.81665 14.5 6.8875 14.125 7.9125 13.875C8.9375 13.625 9.96665 13.5 11 13.5C11.4333 13.5 11.8541 13.5209 12.2625 13.5625C12.6708 13.6041 13.0917 13.6666 13.525 13.75C13.4416 14.7167 13.6208 15.6291 14.0625 16.4875C14.5042 17.3458 15.15 18.0167 16 18.5V20H3ZM19 23.675L17.5 22.175V17.525C16.7667 17.3083 16.1666 16.8959 15.7 16.2875C15.2333 15.6792 15 14.975 15 14.175C15 13.2084 15.3417 12.3833 16.025 11.7C16.7083 11.0166 17.5333 10.675 18.5 10.675C19.4667 10.675 20.2917 11.0166 20.975 11.7C21.6583 12.3833 22 13.2084 22 14.175C22 14.925 21.7875 15.5916 21.3625 16.175C20.9375 16.7583 20.4 17.175 19.75 17.425L21 18.675L19.5 20.175L21 21.675L19 23.675ZM11 11.5C9.95 11.5 9.0625 11.1375 8.3375 10.4125C7.6125 9.6875 7.25 8.8 7.25 7.75C7.25 6.7 7.6125 5.8125 8.3375 5.0875C9.0625 4.3625 9.95 4 11 4C12.05 4 12.9375 4.3625 13.6625 5.0875C14.3875 5.8125 14.75 6.7 14.75 7.75C14.75 8.8 14.3875 9.6875 13.6625 10.4125C12.9375 11.1375 12.05 11.5 11 11.5ZM18.5 14.675C18.7833 14.675 19.0208 14.5792 19.2125 14.3875C19.4042 14.1958 19.5 13.9584 19.5 13.675C19.5 13.3917 19.4042 13.1542 19.2125 12.9625C19.0208 12.7708 18.7833 12.675 18.5 12.675C18.2167 12.675 17.9792 12.7708 17.7875 12.9625C17.5958 13.1542 17.5 13.3917 17.5 13.675C17.5 13.9584 17.5958 14.1958 17.7875 14.3875C17.9792 14.5792 18.2167 14.675 18.5 14.675Z" fill="black"/>
</svg>
