<svg width="8" height="9" viewBox="0 0 8 9" fill="none" xmlns="http://www.w3.org/2000/svg">
<path fill-rule="evenodd" clip-rule="evenodd" d="M4 0.849609C4.27614 0.849609 4.5 1.07347 4.5 1.34961V4.34961H7.5C7.77614 4.34961 8 4.57347 8 4.84961C8 5.12575 7.77614 5.34961 7.5 5.34961H4.5V8.34961C4.5 8.62575 4.27614 8.84961 4 8.84961C3.72386 8.84961 3.5 8.62575 3.5 8.34961V5.34961H0.5C0.223858 5.34961 0 5.12575 0 4.84961C0 4.57347 0.223858 4.34961 0.5 4.34961H3.5V1.34961C3.5 1.07347 3.72386 0.849609 4 0.849609Z" fill="#18191B"/>
</svg>
