<svg width="12" height="12" viewBox="0 0 12 12" fill="none" xmlns="http://www.w3.org/2000/svg">
<g clip-path="url(#clip0_3049_180229)">
<path d="M8.93721 8.7821C8.73464 8.78255 8.53399 8.74288 8.34682 8.66539C8.15965 8.5879 7.98968 8.47411 7.84671 8.3306L6.27171 6.7556C6.21596 6.70263 6.14199 6.6731 6.06509 6.6731C5.98819 6.6731 5.91422 6.70263 5.85846 6.7556L4.27746 8.3366C4.13455 8.48018 3.96459 8.59401 3.77741 8.6715C3.59023 8.749 3.38955 8.78863 3.18696 8.7881H2.87646L4.87146 10.7831C5.49396 11.4056 6.50422 11.4056 7.12672 10.7831L9.12696 8.7821H8.93721ZM3.18696 3.2111C3.59946 3.2111 3.98646 3.3716 4.27746 3.6626L5.85846 5.2436C5.88563 5.27081 5.9179 5.2924 5.95342 5.30713C5.98894 5.32186 6.02701 5.32944 6.06546 5.32944C6.10392 5.32944 6.14199 5.32186 6.17751 5.30713C6.21303 5.2924 6.2453 5.27081 6.27247 5.2436L7.84746 3.6686C7.9903 3.52511 8.16013 3.41133 8.34718 3.33384C8.53422 3.25635 8.73476 3.21667 8.93721 3.2171H9.12696L7.12672 1.21685C6.82758 0.91792 6.42199 0.75 5.99909 0.75C5.57619 0.75 5.1706 0.91792 4.87146 1.21685L2.87646 3.21185L3.18696 3.2111Z" fill="#32BCAD"/>
<path d="M10.7824 4.87245L9.57337 3.66345C9.54623 3.6746 9.51721 3.68045 9.48787 3.6807H8.93812C8.65387 3.6807 8.37562 3.7962 8.17537 3.9972L6.60037 5.5722C6.53033 5.64261 6.44706 5.69849 6.35536 5.73661C6.26365 5.77474 6.16531 5.79437 6.066 5.79437C5.96668 5.79437 5.86835 5.77474 5.77664 5.73661C5.68493 5.69849 5.60167 5.64261 5.53162 5.5722L3.95062 3.99045C3.74779 3.78845 3.47339 3.6747 3.18712 3.67395H2.51212C2.48414 3.67373 2.45644 3.66839 2.43037 3.6582L1.21687 4.87245C0.594375 5.49495 0.594375 6.5052 1.21687 7.12845L2.43037 8.34195C2.45615 8.33158 2.4836 8.32599 2.51137 8.32545H3.18712C3.47212 8.32545 3.74962 8.2107 3.95062 8.0097L5.53087 6.42795C5.67506 6.29067 5.86653 6.2141 6.06562 6.2141C6.26472 6.2141 6.45618 6.29067 6.60037 6.42795L8.17537 8.00295C8.37562 8.20395 8.65387 8.3187 8.93812 8.3187H9.48787C9.51787 8.3187 9.54712 8.3262 9.57337 8.3367L10.7824 7.1277C11.4049 6.5052 11.4049 5.49495 10.7824 4.87245Z" fill="#32BCAD"/>
</g>
<defs>
<clipPath id="clip0_3049_180229">
<rect width="12" height="12" fill="white"/>
</clipPath>
</defs>
</svg>
