<svg width="20" height="20" viewBox="0 0 20 20" fill="none" xmlns="http://www.w3.org/2000/svg">
<g clip-path="url(#clip0_3050_555)">
<path d="M17.9999 17.0582L13.8252 12.8835C14.9096 11.5572 15.4428 9.86489 15.3144 8.15654C15.1861 6.44819 14.406 4.85452 13.1356 3.70518C11.8652 2.55584 10.2016 1.93876 8.48895 1.98158C6.77632 2.0244 5.14566 2.72385 3.93426 3.93524C2.72287 5.14663 2.02343 6.77729 1.9806 8.48993C1.93778 10.2026 2.55486 11.8661 3.7042 13.1366C4.85354 14.407 6.44721 15.187 8.15556 15.3154C9.86392 15.4438 11.5563 14.9106 12.8825 13.8262L17.0572 18.0008L17.9999 17.0582ZM8.66652 14.0008C7.61169 14.0008 6.58054 13.688 5.70348 13.102C4.82642 12.516 4.14283 11.683 3.73916 10.7085C3.3355 9.73394 3.22988 8.66158 3.43567 7.62702C3.64145 6.59245 4.14941 5.64214 4.89529 4.89626C5.64117 4.15038 6.59147 3.64243 7.62604 3.43664C8.6606 3.23085 9.73296 3.33647 10.7075 3.74014C11.682 4.14381 12.515 4.82739 13.101 5.70446C13.6871 6.58152 13.9999 7.61266 13.9999 8.6675C13.9983 10.0815 13.4359 11.4371 12.436 12.437C11.4362 13.4368 10.0805 13.9992 8.66652 14.0008Z" fill="#C7CBD1"/>
</g>
<defs>
<clipPath id="clip0_3050_555">
<rect width="16" height="16" fill="white" transform="translate(2 2)"/>
</clipPath>
</defs>
</svg>
