<svg width="16" height="16" viewBox="0 0 16 16" fill="none" xmlns="http://www.w3.org/2000/svg">
<path fill-rule="evenodd" clip-rule="evenodd" d="M6.89167 2.09285C7.08707 1.85309 7.38242 1.71725 7.69163 1.72492C7.9627 1.73164 8.16741 1.86749 8.2705 1.94086C8.38039 2.01908 8.50548 2.12634 8.62954 2.23271C8.63562 2.23792 8.6417 2.24314 8.64778 2.24835L14.2949 7.08876C14.2992 7.09246 14.3036 7.09621 14.308 7.09999C14.3777 7.15962 14.4585 7.22889 14.5237 7.29525C14.5974 7.37039 14.7006 7.48973 14.7624 7.6618C14.8409 7.88034 14.8409 8.1194 14.7624 8.33794C14.7006 8.51001 14.5974 8.62935 14.5237 8.70449C14.4585 8.77086 14.3776 8.84014 14.308 8.89977C14.3036 8.90355 14.2992 8.90728 14.2949 8.91098L8.62956 13.767C8.5055 13.8734 8.3804 13.9807 8.2705 14.0589C8.16741 14.1322 7.9627 14.2681 7.69163 14.2748C7.38242 14.2825 7.08707 14.1467 6.89167 13.9069C6.72036 13.6967 6.69028 13.4529 6.6789 13.3268C6.66677 13.1925 6.6668 13.0277 6.66683 12.8643L6.66683 10.7975C6.0387 10.906 5.42683 11.101 4.84902 11.3782C3.94814 11.8104 3.15132 12.4322 2.51312 13.201C2.3337 13.4171 2.03803 13.4976 1.77381 13.4022C1.50958 13.3069 1.3335 13.0561 1.3335 12.7752V12.3672C1.3344 10.62 1.97852 8.93402 3.14295 7.63147C4.08456 6.57816 5.3131 5.835 6.66683 5.48555V3.15945C6.66683 3.15145 6.66683 3.14345 6.66683 3.13544C6.6668 2.97202 6.66677 2.80724 6.6789 2.67289C6.69028 2.54687 6.72036 2.30303 6.89167 2.09285ZM8.00016 3.44935V6.02296C8.00016 6.34682 7.7674 6.62384 7.44838 6.67965C6.17251 6.90286 5.00477 7.54938 4.13699 8.5201C3.4837 9.25087 3.03199 10.1301 2.81472 11.0716C3.267 10.7245 3.75529 10.4241 4.27231 10.1761C5.21931 9.72177 6.24301 9.45266 7.28838 9.38175C7.4726 9.36925 7.65376 9.43372 7.78867 9.55979C7.92358 9.68586 8.00016 9.86224 8.00016 10.0469V12.5504L13.3091 7.99987L8.00016 3.44935Z" fill="#18191B"/>
</svg>
