<svg width="24" height="38" viewBox="0 0 24 38" fill="none" xmlns="http://www.w3.org/2000/svg">
<g clip-path="url(#clip0_3458_32834)">
<path d="M21 31.001H19V25.958C18.9992 25.174 18.6874 24.4223 18.133 23.8679C17.5787 23.3136 16.827 23.0018 16.043 23.001H7.957C7.173 23.0018 6.42134 23.3136 5.86696 23.8679C5.31259 24.4223 5.00079 25.174 5 25.958V31.001H3V25.958C3.00159 24.6438 3.52435 23.3839 4.45363 22.4546C5.3829 21.5253 6.64281 21.0026 7.957 21.001H16.043C17.3572 21.0026 18.6171 21.5253 19.5464 22.4546C20.4756 23.3839 20.9984 24.6438 21 25.958V31.001Z" fill="#006AFF"/>
<path d="M12 19C10.8133 19 9.65328 18.6481 8.66658 17.9888C7.67989 17.3295 6.91085 16.3925 6.45673 15.2961C6.0026 14.1997 5.88378 12.9933 6.11529 11.8295C6.3468 10.6656 6.91825 9.59648 7.75736 8.75736C8.59648 7.91825 9.66558 7.3468 10.8295 7.11529C11.9933 6.88378 13.1997 7.0026 14.2961 7.45673C15.3925 7.91085 16.3295 8.67989 16.9888 9.66658C17.6481 10.6533 18 11.8133 18 13C17.9984 14.5908 17.3658 16.116 16.2409 17.2409C15.116 18.3658 13.5908 18.9984 12 19ZM12 9C11.2089 9 10.4355 9.2346 9.77772 9.67412C9.11993 10.1136 8.60724 10.7384 8.30448 11.4693C8.00173 12.2002 7.92252 13.0044 8.07686 13.7804C8.2312 14.5563 8.61217 15.269 9.17158 15.8284C9.73099 16.3878 10.4437 16.7688 11.2196 16.9231C11.9956 17.0775 12.7998 16.9983 13.5307 16.6955C14.2616 16.3928 14.8864 15.8801 15.3259 15.2223C15.7654 14.5645 16 13.7911 16 13C16 11.9391 15.5786 10.9217 14.8284 10.1716C14.0783 9.42143 13.0609 9 12 9Z" fill="#006AFF"/>
</g>
<defs>
<clipPath id="clip0_3458_32834">
<rect width="24" height="24" fill="white" transform="translate(0 7)"/>
</clipPath>
</defs>
</svg>
