<svg width="20" height="20" viewBox="0 0 20 20" fill="none" xmlns="http://www.w3.org/2000/svg">
<path d="M7.59387 6.8841L4.97586 13.1312H3.26711L1.97969 8.14617C1.90043 7.83875 1.8327 7.72688 1.59504 7.59633C1.20574 7.38586 0.565391 7.18844 0 7.06547L0.0395703 6.88414H2.78875C3.13937 6.88414 3.45461 7.11801 3.53387 7.52117L4.21461 11.1369L5.89602 6.88414L7.59387 6.8841ZM14.2871 11.0907C14.2946 9.44277 12.0069 9.35309 12.0233 8.61586C12.0278 8.39082 12.2411 8.1527 12.7082 8.09258C12.9401 8.06172 13.5784 8.0391 14.3019 8.37125L14.5855 7.04711C14.1962 6.90582 13.6959 6.77051 13.074 6.77051C11.4768 6.77051 10.3523 7.62008 10.3429 8.83566C10.3324 9.73457 11.1451 10.2362 11.7581 10.5356C12.3875 10.8419 12.598 11.0375 12.5958 11.3122C12.5917 11.7315 12.0936 11.9148 11.6289 11.923C10.8162 11.9357 10.3449 11.7034 9.96844 11.5281L9.67586 12.8977C10.0529 13.0709 10.7511 13.2212 11.4736 13.23C13.1712 13.23 14.2817 12.3895 14.2871 11.0907ZM18.505 13.1312H20L18.6955 6.88414H17.3154C17.0053 6.88414 16.7438 7.065 16.6273 7.34207L14.2038 13.1312H15.9001L16.2368 12.1983H18.3104L18.505 13.1312ZM16.7017 10.9179L17.5527 8.57215L18.0423 10.9179H16.7017ZM9.90332 6.8841L8.56621 13.1312H6.94984L8.28727 6.8841H9.90332Z" fill="#1A2ADF"/>
</svg>
