<svg width="80" height="80" viewBox="0 0 80 80" fill="none" xmlns="http://www.w3.org/2000/svg">
<rect width="80" height="80" rx="40" fill="white"/>
<path d="M28.0922 36.0625H25.6522V52.5292H28.0922V36.0625Z" fill="#820AD1"/>
<path d="M36.5856 36.0625H34.1456V52.5292H36.5856V36.0625Z" fill="#820AD1"/>
<path d="M53.5856 36.0625H51.1456V52.5292H53.5856V36.0625Z" fill="#820AD1"/>
<path d="M45.0928 36.0625H42.6528V52.5292H45.0928V36.0625Z" fill="#820AD1"/>
<path d="M54.4389 54.1297H24.3589C23.4789 54.1297 22.7589 53.4097 22.7589 52.5297C22.7589 51.6497 23.4789 50.9297 24.3589 50.9297H54.4389C55.3189 50.9297 56.0389 51.6497 56.0389 52.5297C56.0389 53.4097 55.3189 54.1297 54.4389 54.1297Z" fill="#820AD1"/>
<path d="M22.6792 33.2894C22.6792 32.7827 22.9725 32.3427 23.4392 32.1427C24.0792 31.8627 24.7725 31.5827 25.3325 31.3294L38.1992 25.3027C38.9725 24.9694 39.8658 24.9694 40.6392 25.3027H40.6525L55.3725 31.8894C55.8392 32.0894 56.1325 32.5427 56.1325 33.0361C56.1325 33.7561 56.1192 34.7827 56.1192 35.5961C56.1192 36.2894 55.5592 36.8494 54.8658 36.8494L23.9192 36.7694C23.2258 36.7694 22.6658 36.2094 22.6658 35.5161V33.2761L22.6792 33.2894Z" fill="#820AD1"/>
</svg>
