<svg width="16" height="16" viewBox="0 0 16 16" fill="none" xmlns="http://www.w3.org/2000/svg">
<path fill-rule="evenodd" clip-rule="evenodd" d="M8.00016 1.33203C8.36835 1.33203 8.66683 1.63051 8.66683 1.9987V8.38922L10.8621 6.19396C11.1224 5.93361 11.5446 5.93361 11.8049 6.19396C12.0653 6.45431 12.0653 6.87642 11.8049 7.13677L8.47157 10.4701C8.21122 10.7305 7.78911 10.7305 7.52876 10.4701L4.19543 7.13677C3.93508 6.87642 3.93508 6.45431 4.19543 6.19396C4.45578 5.93361 4.87789 5.93361 5.13823 6.19396L7.3335 8.38922V1.9987C7.3335 1.63051 7.63197 1.33203 8.00016 1.33203ZM2.00016 9.33203C2.36835 9.33203 2.66683 9.63051 2.66683 9.9987V10.7987C2.66683 11.3698 2.66735 11.7579 2.69186 12.058C2.71574 12.3503 2.75903 12.4998 2.81215 12.604C2.93999 12.8549 3.14396 13.0589 3.39484 13.1867C3.49911 13.2398 3.64858 13.2831 3.94086 13.307C4.24091 13.3315 4.62911 13.332 5.20016 13.332H10.8002C11.3712 13.332 11.7594 13.3315 12.0595 13.307C12.3517 13.2831 12.5012 13.2398 12.6055 13.1867C12.8564 13.0589 13.0603 12.8549 13.1882 12.604C13.2413 12.4998 13.2846 12.3503 13.3085 12.058C13.333 11.7579 13.3335 11.3698 13.3335 10.7987V9.9987C13.3335 9.63051 13.632 9.33203 14.0002 9.33203C14.3684 9.33203 14.6668 9.63051 14.6668 9.9987V10.8262C14.6668 11.3629 14.6668 11.8058 14.6374 12.1666C14.6068 12.5413 14.541 12.8858 14.3762 13.2093C14.1205 13.7111 13.7126 14.1191 13.2108 14.3747C12.8872 14.5396 12.5428 14.6053 12.168 14.6359C11.8073 14.6654 11.3644 14.6654 10.8277 14.6654H5.17261C4.63597 14.6654 4.19307 14.6654 3.83228 14.6359C3.45755 14.6053 3.11308 14.5396 2.78952 14.3747C2.28776 14.1191 1.87981 13.7111 1.62415 13.2093C1.45929 12.8858 1.39358 12.5413 1.36296 12.1666C1.33348 11.8058 1.33349 11.3629 1.3335 10.8262L1.3335 9.9987C1.3335 9.63051 1.63197 9.33203 2.00016 9.33203Z" fill="#18191B"/>
</svg>
