<svg width="16" height="16" viewBox="0 0 16 16" fill="none" xmlns="http://www.w3.org/2000/svg">
<path d="M16 8C16 9.58225 15.5308 11.129 14.6518 12.4446C13.7727 13.7602 12.5233 14.7855 11.0615 15.391C9.59966 15.9965 7.99113 16.155 6.43928 15.8463C4.88743 15.5376 3.46197 14.7757 2.34315 13.6569C1.22433 12.538 0.462403 11.1126 0.153721 9.56072C-0.15496 8.00888 0.00346629 6.40034 0.608967 4.93853C1.21447 3.47672 2.23985 2.22729 3.55544 1.34824C4.87103 0.469192 6.41775 0 8 0C10.121 0.00229405 12.1545 0.845886 13.6543 2.34568C15.1541 3.84547 15.9977 5.87897 16 8ZM9.33334 8C9.33334 7.64638 9.19286 7.30724 8.94281 7.05719C8.69276 6.80714 8.35363 6.66667 8 6.66667H6.66667V8H8V12.6667H9.33334V8ZM8 3.33333C7.80222 3.33333 7.60888 3.39198 7.44443 3.50186C7.27998 3.61175 7.15181 3.76792 7.07612 3.95065C7.00044 4.13338 6.98063 4.33444 7.01922 4.52842C7.0578 4.72241 7.15304 4.90059 7.2929 5.04044C7.43275 5.18029 7.61093 5.27553 7.80491 5.31412C7.99889 5.3527 8.19996 5.3329 8.38269 5.25721C8.56541 5.18153 8.72159 5.05335 8.83147 4.8889C8.94136 4.72446 9 4.53112 9 4.33333C9 4.06812 8.89465 3.81376 8.70711 3.62623C8.51957 3.43869 8.26522 3.33333 8 3.33333Z" fill="#555555"/>
</svg>
