<svg width="10" height="10" viewBox="0 0 10 10" fill="none" xmlns="http://www.w3.org/2000/svg">
<g clip-path="url(#clip0_633_1485)">
<path d="M10 5C10 5.98891 9.70676 6.95561 9.15735 7.77785C8.60794 8.6001 7.82705 9.24096 6.91342 9.6194C5.99979 9.99784 4.99446 10.0969 4.02455 9.90393C3.05465 9.711 2.16373 9.2348 1.46447 8.53553C0.765206 7.83627 0.289002 6.94536 0.0960758 5.97545C-0.0968503 5.00555 0.00216643 4.00021 0.380605 3.08658C0.759043 2.17295 1.39991 1.39206 2.22215 0.842652C3.0444 0.293245 4.0111 0 5 0C6.32564 0.00143378 7.59658 0.528678 8.53395 1.46605C9.47132 2.40342 9.99857 3.67436 10 5ZM5.83334 5C5.83334 4.77899 5.74554 4.56703 5.58926 4.41075C5.43298 4.25446 5.22102 4.16667 5 4.16667H4.16667V5H5V7.91667H5.83334V5ZM5 2.08333C4.87639 2.08333 4.75555 2.11999 4.65277 2.18867C4.54999 2.25734 4.46988 2.35495 4.42258 2.46916C4.37527 2.58336 4.3629 2.70903 4.38701 2.83027C4.41113 2.9515 4.47065 3.06287 4.55806 3.15028C4.64547 3.23768 4.75683 3.29721 4.87807 3.32132C4.99931 3.34544 5.12498 3.33306 5.23918 3.28576C5.35338 3.23845 5.451 3.15835 5.51967 3.05557C5.58835 2.95278 5.625 2.83195 5.625 2.70833C5.625 2.54257 5.55915 2.3836 5.44194 2.26639C5.32473 2.14918 5.16576 2.08333 5 2.08333Z" fill="#B27700"/>
</g>
<defs>
<clipPath id="clip0_633_1485">
<rect width="10" height="10" fill="white"/>
</clipPath>
</defs>
</svg>
