<svg width="24" height="24" viewBox="0 0 24 24" fill="none" xmlns="http://www.w3.org/2000/svg">
<g clip-path="url(#clip0_409_18125)">
<path d="M24.0002 23.0015C24.0002 23.2667 23.8948 23.5211 23.7073 23.7086C23.5197 23.8962 23.2654 24.0015 23.0001 24.0015H1.00015C0.73493 24.0015 0.480576 23.8962 0.29304 23.7086C0.105504 23.5211 0.000146694 23.2667 0.000146694 23.0015C0.000146694 22.7363 0.105504 22.482 0.29304 22.2944C0.480576 22.1069 0.73493 22.0015 1.00015 22.0015H23.0001C23.2654 22.0015 23.5197 22.1069 23.7073 22.2944C23.8948 22.482 24.0002 22.7363 24.0002 23.0015ZM0.291147 8.55352C0.075669 8.15385 -0.0241587 7.70203 0.00286712 7.24877C0.0298929 6.79551 0.182703 6.35876 0.444147 5.98752C0.871405 5.36064 1.44359 4.84608 2.11215 4.48752L9.61315 0.58352C10.3504 0.200151 11.1692 0 12.0001 0C12.8311 0 13.6499 0.200151 14.3871 0.58352L21.8871 4.49052C22.5557 4.84908 23.1279 5.36364 23.5551 5.99052C23.8166 6.36176 23.9694 6.79851 23.9964 7.25177C24.0235 7.70503 23.9236 8.15685 23.7081 8.55652C23.4762 8.99535 23.1282 9.36212 22.7022 9.61691C22.2762 9.8717 21.7885 10.0047 21.2921 10.0015H21.0001V18.0015H22.0001C22.2654 18.0015 22.5197 18.1069 22.7073 18.2944C22.8948 18.482 23.0001 18.7363 23.0001 19.0015C23.0001 19.2667 22.8948 19.5211 22.7073 19.7086C22.5197 19.8962 22.2654 20.0015 22.0001 20.0015H2.00015C1.73493 20.0015 1.48058 19.8962 1.29304 19.7086C1.1055 19.5211 1.00015 19.2667 1.00015 19.0015C1.00015 18.7363 1.1055 18.482 1.29304 18.2944C1.48058 18.1069 1.73493 18.0015 2.00015 18.0015H3.00015V10.0015H2.70815C2.21131 10.0046 1.72315 9.87123 1.29694 9.61589C0.870718 9.36054 0.522805 8.99306 0.291147 8.55352ZM5.00015 18.0015H8.00015V10.0015H5.00015V18.0015ZM10.0001 10.0015V18.0015H14.0001V10.0015H10.0001ZM19.0001 10.0015H16.0001V18.0015H19.0001V10.0015ZM2.06315 7.62652C2.12589 7.7422 2.21926 7.83838 2.33303 7.90452C2.4468 7.97067 2.57658 8.00423 2.70815 8.00152H21.2921C21.4237 8.00423 21.5535 7.97067 21.6673 7.90452C21.781 7.83838 21.8744 7.7422 21.9371 7.62652C21.9829 7.55008 22.005 7.46185 22.0007 7.3729C21.9964 7.28394 21.966 7.19823 21.9131 7.12652C21.6709 6.76643 21.3453 6.47006 20.9641 6.26252L13.4641 2.35552C13.0122 2.12094 12.5104 1.99849 12.0011 1.99849C11.4919 1.99849 10.9901 2.12094 10.5381 2.35552L3.03815 6.26252C2.65713 6.47073 2.33168 6.76738 2.08915 7.12752C2.03624 7.19893 2.00555 7.28435 2.00092 7.3731C1.9963 7.46185 2.01794 7.55 2.06315 7.62652Z" fill="#006AFF"/>
</g>
<defs>
<clipPath id="clip0_409_18125">
<rect width="24" height="24" fill="white"/>
</clipPath>
</defs>
</svg>
