<svg width="80" height="80" viewBox="0 0 80 80" fill="none" xmlns="http://www.w3.org/2000/svg">
<path d="M11.999 27.4686V18.602C11.999 14.4046 15.4017 11.002 19.599 11.002H28.0435" stroke="#007AFF" stroke-width="4" stroke-linecap="round"/>
<path d="M11.999 51.9596V60.8263C11.999 65.0236 15.4017 68.4263 19.599 68.4263H28.0435" stroke="#007AFF" stroke-width="4" stroke-linecap="round"/>
<path d="M68.9985 27.4686V18.602C68.9985 14.4046 65.5959 11.002 61.3985 11.002H52.9541" stroke="#007AFF" stroke-width="4" stroke-linecap="round"/>
<path d="M68.9985 51.9596V60.8263C68.9985 65.0236 65.5959 68.4263 61.3985 68.4263H52.9541" stroke="#007AFF" stroke-width="4" stroke-linecap="round"/>
<path d="M49.9985 51.8003L48.7296 52.3643C43.4894 54.6933 37.5077 54.6933 32.2675 52.3643L30.9985 51.8003" stroke="#007AFF" stroke-width="4" stroke-linecap="round"/>
<path d="M41.7539 30.6895V41.1045C41.7539 42.6999 40.6377 44.0777 39.077 44.4088L37.7539 44.6895" stroke="#007AFF" stroke-width="4" stroke-linecap="round"/>
<path d="M28.4668 30.6895L28.4668 35.6895" stroke="#007AFF" stroke-width="4" stroke-linecap="round"/>
<path d="M52.9541 30.6895L52.9541 35.6895" stroke="#007AFF" stroke-width="4" stroke-linecap="round"/>
</svg>
