<svg width="71" height="12" viewBox="0 0 71 12" fill="none" xmlns="http://www.w3.org/2000/svg">
<path fill-rule="evenodd" clip-rule="evenodd" d="M17.0244 0H15.9656C15.3808 0 14.9068 0.50368 14.9068 1.125V10.875C14.9068 11.4963 15.3808 12 15.9656 12H17.0244C17.6092 12 18.0833 11.4963 18.0833 10.875V1.125C18.0833 0.50368 17.6092 0 17.0244 0ZM11.0244 2.625H12.0832C12.668 2.625 13.1421 3.12868 13.1421 3.75V10.875C13.1421 11.4963 12.668 12 12.0832 12H11.0244C10.4396 12 9.96558 11.4963 9.96558 10.875V3.75C9.96558 3.12868 10.4396 2.625 11.0244 2.625ZM7.1421 5.25H6.08327C5.4985 5.25 5.02445 5.75368 5.02445 6.375V10.875C5.02445 11.4963 5.4985 12 6.08327 12H7.1421C7.72687 12 8.20092 11.4963 8.20092 10.875V6.375C8.20092 5.75368 7.72687 5.25 7.1421 5.25ZM2.2009 7.5H1.14208C0.557303 7.5 0.083252 8.00368 0.083252 8.625V10.875C0.083252 11.4963 0.557303 12 1.14208 12H2.2009C2.78567 12 3.25972 11.4963 3.25972 10.875V8.625C3.25972 8.00368 2.78567 7.5 2.2009 7.5Z" fill="#1D1D1F"/>
<path fill-rule="evenodd" clip-rule="evenodd" d="M32.0837 2.49216C34.4052 2.49226 36.6379 3.42402 38.3203 5.09485C38.447 5.22384 38.6495 5.22222 38.7743 5.0912L39.9854 3.81448C40.0485 3.74803 40.0838 3.65802 40.0832 3.56436C40.0827 3.47071 40.0465 3.38114 39.9826 3.31546C35.5667 -1.10515 28.6 -1.10515 24.1841 3.31546C24.1201 3.38109 24.0838 3.47063 24.0833 3.56429C24.0827 3.65794 24.1178 3.74798 24.181 3.81448L25.3924 5.0912C25.5171 5.22241 25.7198 5.22404 25.8464 5.09485C27.529 3.42391 29.762 2.49215 32.0837 2.49216ZM32.0837 6.64588C33.3592 6.6458 34.5891 7.14102 35.5346 8.03532C35.6625 8.16224 35.8639 8.15949 35.9886 8.02912L37.1983 6.7524C37.262 6.68543 37.2973 6.59458 37.2964 6.50018C37.2955 6.40578 37.2584 6.3157 37.1934 6.2501C34.3142 3.45256 29.8555 3.45256 26.9764 6.2501C26.9114 6.3157 26.8743 6.40582 26.8734 6.50026C26.8726 6.59469 26.908 6.68553 26.9719 6.7524L28.1812 8.02912C28.3059 8.15949 28.5073 8.16224 28.6352 8.03532C29.58 7.14161 30.809 6.64644 32.0837 6.64588ZM34.5069 9.44061C34.5087 9.53528 34.4731 9.62655 34.4084 9.69287L32.3159 11.8987C32.2546 11.9635 32.1709 12 32.0837 12C31.9964 12 31.9128 11.9635 31.8515 11.8987L29.7586 9.69287C29.694 9.6265 29.6584 9.5352 29.6603 9.44053C29.6622 9.34586 29.7015 9.25622 29.7687 9.19276C31.1051 8.0121 33.0623 8.0121 34.3986 9.19276C34.4659 9.25627 34.505 9.34594 34.5069 9.44061Z" fill="#1D1D1F"/>
<path opacity="0.4" fill-rule="evenodd" clip-rule="evenodd" d="M48.7502 12H65.1204L65.3928 11.9863C66.7374 11.8497 67.7864 10.7136 67.7864 9.33301V2.66699C67.7864 1.28635 66.7374 0.150332 65.3928 0.0136719L65.1204 0H48.7502L48.4768 0.0136719C47.1323 0.150438 46.0833 1.28643 46.0833 2.66699V9.33301C46.0833 10.7136 47.1323 11.8496 48.4768 11.9863L48.7502 12ZM65.1204 11H48.7502C47.8298 11 47.0833 10.2535 47.0833 9.33301V2.66699C47.0833 1.74652 47.8298 1 48.7502 1H65.1204C66.0406 1.00023 66.7864 1.74666 66.7864 2.66699V9.33301C66.7864 10.2533 66.0406 10.9998 65.1204 11ZM70.0833 6C70.0833 6.9245 69.567 7.75894 68.7731 8.11765V3.88235C69.567 4.24106 70.0833 5.07551 70.0833 6Z" fill="#1D1D1F"/>
<rect x="48.0563" y="2.11719" width="17.7573" height="7.76471" rx="1.33333" fill="#1D1D1F"/>
</svg>
