<svg width="100" height="100" viewBox="0 0 100 100" fill="none" xmlns="http://www.w3.org/2000/svg">
<rect width="100" height="100" rx="50" fill="#F8F9FA"/>
<path d="M63.462 62.7532C62.5336 62.7553 61.6139 62.5735 60.7561 62.2183C59.8982 61.8631 59.1192 61.3416 58.4639 60.6839L51.2452 53.4651C50.9896 53.2224 50.6506 53.087 50.2981 53.087C49.9457 53.087 49.6066 53.2224 49.3511 53.4651L42.1048 60.7114C41.4498 61.3694 40.6708 61.8912 39.8129 62.2463C38.955 62.6015 38.0352 62.7832 37.1067 62.7807H35.6836L44.8273 71.9245C47.6805 74.7776 52.3108 74.7776 55.1639 71.9245L64.3317 62.7532H63.462ZM37.1067 37.2195C38.9973 37.2195 40.7711 37.9551 42.1048 39.2889L49.3511 46.5351C49.4756 46.6598 49.6235 46.7588 49.7863 46.8263C49.9491 46.8938 50.1236 46.9286 50.2998 46.9286C50.4761 46.9286 50.6506 46.8938 50.8134 46.8263C50.9762 46.7588 51.1241 46.6598 51.2486 46.5351L58.4673 39.3164C59.122 38.6587 59.9004 38.1372 60.7577 37.7821C61.615 37.4269 62.5341 37.245 63.462 37.247H64.3317L55.1639 28.0792C53.7929 26.7091 51.9339 25.9395 49.9956 25.9395C48.0573 25.9395 46.1984 26.7091 44.8273 28.0792L35.6836 37.2229L37.1067 37.2195Z" fill="#32BCAD"/>
<path d="M71.9197 44.83L66.3784 39.2887C66.2541 39.3398 66.121 39.3666 65.9866 39.3678H63.4669C62.1641 39.3678 60.8888 39.8971 59.9709 40.8184L52.7522 48.0371C52.4312 48.3599 52.0495 48.6159 51.6292 48.7907C51.2089 48.9654 50.7582 49.0554 50.303 49.0554C49.8478 49.0554 49.3971 48.9654 48.9768 48.7907C48.5564 48.6159 48.1748 48.3599 47.8538 48.0371L40.6075 40.7875C39.6778 39.8616 38.4202 39.3403 37.1081 39.3368H34.0144C33.8861 39.3358 33.7592 39.3114 33.6397 39.2646L28.0778 44.83C25.2247 47.6831 25.2247 52.3134 28.0778 55.17L33.6397 60.7318C33.7578 60.6843 33.8836 60.6587 34.011 60.6562H37.1081C38.4144 60.6562 39.6863 60.1303 40.6075 59.209L47.8503 51.9593C48.5112 51.3301 49.3888 50.9792 50.3013 50.9792C51.2138 50.9792 52.0913 51.3301 52.7522 51.9593L59.9709 59.1781C60.8888 60.0993 62.1641 60.6253 63.4669 60.6253H65.9866C66.1241 60.6253 66.2581 60.6596 66.3784 60.7078L71.9197 55.1665C74.7728 52.3134 74.7728 47.6831 71.9197 44.83Z" fill="#32BCAD"/>
</svg>
