<svg width="60" height="60" viewBox="0 0 60 60" fill="none" xmlns="http://www.w3.org/2000/svg">
<rect width="60" height="60" rx="30" fill="#820AD1"/>
<path d="M21.0696 27.0488H19.2396V39.3988H21.0696V27.0488Z" fill="white"/>
<path d="M27.4396 27.0488H25.6096V39.3988H27.4396V27.0488Z" fill="white"/>
<path d="M40.1896 27.0488H38.3596V39.3988H40.1896V27.0488Z" fill="white"/>
<path d="M33.8196 27.0488H31.9896V39.3988H33.8196V27.0488Z" fill="white"/>
<path d="M40.8296 40.5983H18.2696C17.6096 40.5983 17.0696 40.0583 17.0696 39.3983C17.0696 38.7383 17.6096 38.1982 18.2696 38.1982H40.8296C41.4896 38.1982 42.0296 38.7383 42.0296 39.3983C42.0296 40.0583 41.4896 40.5983 40.8296 40.5983Z" fill="white"/>
<path d="M17.0096 24.9685C17.0096 24.5885 17.2296 24.2585 17.5796 24.1085C18.0596 23.8985 18.5796 23.6885 18.9996 23.4985L28.6496 18.9785C29.2296 18.7285 29.8996 18.7285 30.4796 18.9785H30.4896L41.5296 23.9185C41.8796 24.0685 42.0996 24.4085 42.0996 24.7785C42.0996 25.3185 42.0896 26.0885 42.0896 26.6985C42.0896 27.2185 41.6696 27.6385 41.1496 27.6385L17.9396 27.5785C17.4196 27.5785 16.9996 27.1585 16.9996 26.6385V24.9585L17.0096 24.9685Z" fill="white"/>
</svg>
