<svg width="26" height="26" viewBox="0 0 26 26" fill="none" xmlns="http://www.w3.org/2000/svg">
<path fill-rule="evenodd" clip-rule="evenodd" d="M11.3419 1.5351C12.2864 1.19403 13.3204 1.19403 14.2649 1.5351L20.1442 3.65818C21.7362 4.23305 22.8433 5.6878 22.9731 7.3754L23.2173 10.5494C23.608 15.6293 20.9744 20.4639 16.4945 22.8905L14.8931 23.7579C13.5853 24.4663 12.0043 24.4491 10.7122 23.7124L9.07635 22.7796C4.89367 20.3948 2.38581 15.8804 2.57086 11.0692L2.70775 7.5099C2.77511 5.75867 3.89778 4.22325 5.54612 3.62802L11.3419 1.5351ZM16.9931 11.3592C17.4837 11.0241 17.6099 10.3548 17.2748 9.86412C16.9398 9.37347 16.2704 9.24733 15.7798 9.58237C14.2463 10.6295 12.9027 11.9336 11.8317 13.4549L10.5845 12.2091C10.1642 11.7892 9.48307 11.7896 9.06318 12.2099C8.64329 12.6302 8.64366 13.3114 9.06399 13.7313L11.2587 15.9237C11.4958 16.1605 11.8298 16.2733 12.1619 16.2288C12.4941 16.1843 12.7865 15.9875 12.9529 15.6966C13.9439 13.9637 15.3326 12.4931 16.9931 11.3592Z" fill="#006AFF"/>
</svg>
