<svg width="100" height="100" viewBox="0 0 100 100" fill="none" xmlns="http://www.w3.org/2000/svg">
<rect width="100" height="100" rx="50" fill="#F8F9FA"/>
<rect x="22.5" y="22.5" width="55" height="55" rx="27.5" fill="#820AD1"/>
<path d="M41.8136 47.2939H40.1361V58.6148H41.8136V47.2939Z" fill="white"/>
<path d="M47.6528 47.2939H45.9753V58.6148H47.6528V47.2939Z" fill="white"/>
<path d="M59.3403 47.2939H57.6628V58.6148H59.3403V47.2939Z" fill="white"/>
<path d="M53.5011 47.2939H51.8236V58.6148H53.5011V47.2939Z" fill="white"/>
<path d="M59.927 59.7147H39.247C38.642 59.7147 38.147 59.2197 38.147 58.6147C38.147 58.0097 38.642 57.5146 39.247 57.5146H59.927C60.532 57.5146 61.027 58.0097 61.027 58.6147C61.027 59.2197 60.532 59.7147 59.927 59.7147Z" fill="white"/>
<path d="M38.092 45.3873C38.092 45.039 38.2937 44.7365 38.6146 44.599C39.0546 44.4065 39.5312 44.214 39.9162 44.0398L48.762 39.8965C49.2937 39.6673 49.9079 39.6673 50.4395 39.8965H50.4487L60.5687 44.4248C60.8896 44.5623 61.0912 44.874 61.0912 45.2132C61.0912 45.7082 61.0821 46.414 61.0821 46.9732C61.0821 47.4498 60.697 47.8348 60.2204 47.8348L38.9446 47.7798C38.4679 47.7798 38.0829 47.3948 38.0829 46.9182V45.3782L38.092 45.3873Z" fill="white"/>
</svg>
