<svg width="20" height="12" viewBox="0 0 20 12" fill="none" xmlns="http://www.w3.org/2000/svg">
<rect width="20" height="12" fill="white"/>
<path d="M0 1C0 0.447715 0.447715 0 1 0H19C19.5523 0 20 0.447715 20 1V11C20 11.5523 19.5523 12 19 12H1C0.447716 12 0 11.5523 0 11V1Z" fill="white"/>
<path fill-rule="evenodd" clip-rule="evenodd" d="M19 0.5H1C0.723857 0.5 0.5 0.723858 0.5 1V11C0.5 11.2761 0.723858 11.5 1 11.5H19C19.2761 11.5 19.5 11.2761 19.5 11V1C19.5 0.723858 19.2761 0.5 19 0.5ZM1 0C0.447715 0 0 0.447715 0 1V11C0 11.5523 0.447716 12 1 12H19C19.5523 12 20 11.5523 20 11V1C20 0.447715 19.5523 0 19 0H1Z" fill="black"/>
<path d="M5.15107 3.78217C5.31868 3.57477 5.43242 3.29629 5.40242 3.01172C5.15706 3.02379 4.85765 3.17186 4.6843 3.37942C4.52865 3.55717 4.39089 3.84731 4.42681 4.11995C4.70224 4.14358 4.97741 3.98375 5.15107 3.78217Z" fill="black"/>
<path d="M5.39934 4.1732C4.99934 4.14962 4.65925 4.39778 4.46824 4.39778C4.27712 4.39778 3.98461 4.18507 3.66824 4.19081C3.25646 4.19679 2.87438 4.42712 2.66542 4.79345C2.23562 5.52629 2.55199 6.61335 2.96995 7.21021C3.17291 7.50549 3.41752 7.83062 3.73984 7.81894C4.04436 7.80712 4.16373 7.62387 4.5339 7.62387C4.90379 7.62387 5.01132 7.81894 5.33368 7.81303C5.66798 7.80712 5.87697 7.5176 6.07994 7.22203C6.31278 6.88542 6.4081 6.5604 6.41409 6.54255C6.4081 6.53664 5.76947 6.29427 5.76355 5.56752C5.75752 4.95901 6.26494 4.66956 6.28882 4.65161C6.00228 4.23235 5.55455 4.18507 5.39934 4.1732Z" fill="black"/>
<path d="M9.72476 3.34967C10.5941 3.34967 11.1995 3.94252 11.1995 4.80566C11.1995 5.67189 10.5817 6.26782 9.70296 6.26782H8.7404V7.78217H8.04495V3.34967L9.72476 3.34967ZM8.7404 5.69031H9.53838C10.1439 5.69031 10.4885 5.36782 10.4885 4.80874C10.4885 4.24973 10.1439 3.93025 9.5415 3.93025H8.7404V5.69031Z" fill="black"/>
<path d="M11.3813 6.86374C11.3813 6.2985 11.8191 5.95142 12.5954 5.9084L13.4895 5.85621V5.60742C13.4895 5.24801 13.2442 5.033 12.8345 5.033C12.4462 5.033 12.204 5.21726 12.1451 5.50604H11.5117C11.549 4.92238 12.0519 4.49235 12.8593 4.49235C13.651 4.49235 14.1571 4.90703 14.1571 5.55516V7.78216H13.5143V7.25075H13.4989C13.3095 7.61016 12.8965 7.83744 12.468 7.83744C11.8284 7.83744 11.3813 7.44426 11.3813 6.86374ZM13.4895 6.57194V6.31699L12.6853 6.36611C12.2848 6.39378 12.0582 6.56886 12.0582 6.84531C12.0582 7.12787 12.2941 7.3122 12.6543 7.3122C13.1231 7.3122 13.4895 6.99272 13.4895 6.57194Z" fill="black"/>
<path d="M14.7638 8.97092V8.43336C14.8134 8.44562 14.9252 8.44562 14.9811 8.44562C15.2916 8.44562 15.4593 8.31664 15.5617 7.9849C15.5617 7.97874 15.6208 7.78831 15.6208 7.78523L14.4409 4.55069H15.1674L15.9934 7.18012H16.0057L16.8317 4.55069H17.5397L16.3162 7.95107C16.0369 8.7344 15.7139 8.98627 15.0371 8.98627C14.9811 8.98627 14.8134 8.98011 14.7638 8.97092Z" fill="black"/>
</svg>
