<svg width="41" height="40" viewBox="0 0 41 40" fill="none" xmlns="http://www.w3.org/2000/svg">
<g id="(LT) JP_GooglePay">
<path id="path10057" fill-rule="evenodd" clip-rule="evenodd" d="M8.67267 16.3052L13.0435 19.2219L18.2935 15.7219L16.1081 14.2594L18.9508 12.3698L25.0717 16.4531L15.0154 23.1573L17.2008 24.6197L29.6726 16.3052L19.1726 9.30518L8.67267 16.3052ZM29.6726 23.3052L25.2936 20.3885L20.0435 23.8885L22.229 25.3427L19.3863 27.2406L13.2654 23.1573L23.3217 16.4531L21.1363 14.9907L8.67267 23.3052L19.1726 30.3052L29.6726 23.3052ZM29.6726 12.2218L27.479 13.6843L25.2936 12.2218L29.6726 9.30518V12.2218ZM8.67267 27.3885L10.8581 25.9261L13.0435 27.3885L8.67267 30.3052V27.3885Z" fill="#003882"/>
</g>
</svg>
