<svg width="22" height="22" viewBox="0 0 22 22" fill="none" xmlns="http://www.w3.org/2000/svg">
<path fill-rule="evenodd" clip-rule="evenodd" d="M0.30542 7.30472L4.6763 10.2214L9.92629 6.72139L7.74085 5.25895L10.5836 3.36929L16.7044 7.45261L6.64813 14.1568L8.83357 15.6193L21.3054 7.30472L10.8054 0.304688L0.30542 7.30472ZM21.3054 14.3047L16.9263 11.388L11.6763 14.888L13.8617 16.3422L11.019 18.2401L4.89813 14.1568L14.9544 7.45261L12.769 5.99017L0.30542 14.3047L10.8054 21.3047L21.3054 14.3047ZM21.3054 3.22135L19.1117 4.68384L16.9263 3.22135L21.3054 0.304688V3.22135ZM0.30542 18.388L2.49086 16.9256L4.6763 18.388L0.30542 21.3047V18.388Z" fill="#003882"/>
</svg>
