<svg width="24" height="24" viewBox="0 0 24 24" fill="none" xmlns="http://www.w3.org/2000/svg">
<rect width="24" height="24" rx="12" fill="#FF8301"/>
<path d="M8.4278 10.8193H7.6958V15.7593H8.4278V10.8193Z" fill="white"/>
<path d="M10.9759 10.8193H10.2439V15.7593H10.9759V10.8193Z" fill="white"/>
<path d="M16.0759 10.8193H15.3439V15.7593H16.0759V10.8193Z" fill="white"/>
<path d="M13.5279 10.8193H12.7959V15.7593H13.5279V10.8193Z" fill="white"/>
<path d="M16.3319 16.2393H7.30789C7.04389 16.2393 6.82788 16.0233 6.82788 15.7593C6.82788 15.4953 7.04389 15.2793 7.30789 15.2793H16.3319C16.5959 15.2793 16.8119 15.4953 16.8119 15.7593C16.8119 16.0233 16.5959 16.2393 16.3319 16.2393Z" fill="white"/>
<path d="M6.8038 9.9876C6.8038 9.8356 6.89181 9.7036 7.03181 9.6436C7.22381 9.5596 7.4318 9.4756 7.5998 9.3996L11.4598 7.5916C11.6918 7.4916 11.9598 7.4916 12.1918 7.5916H12.1958L16.6118 9.5676C16.7518 9.6276 16.8398 9.7636 16.8398 9.9116C16.8398 10.1276 16.8358 10.4356 16.8358 10.6796C16.8358 10.8876 16.6678 11.0556 16.4598 11.0556L7.17581 11.0316C6.96781 11.0316 6.7998 10.8636 6.7998 10.6556V9.98361L6.8038 9.9876Z" fill="white"/>
</svg>
