<svg width="32" height="22" viewBox="0 0 32 22" fill="none" xmlns="http://www.w3.org/2000/svg">
<path d="M15.996 0.603516C7.54002 0.603516 0.681152 4.99547 0.681152 10.3999C0.681152 15.8042 7.54002 20.624 15.996 20.624C24.4519 20.624 31.3108 15.8185 31.3108 10.3999C31.3108 4.98121 24.4519 0.603516 15.996 0.603516Z" fill="#00BCFF"/>
<path d="M11.011 7.37352C10.9967 7.38778 10.8541 7.54463 10.9539 7.67296C11.1963 7.97242 11.9236 8.14353 12.6651 7.98668C13.1071 7.88686 13.6632 7.44481 14.2194 7.00277C14.8183 6.5322 15.4029 6.06163 15.9876 5.87626C16.615 5.67662 17.0142 5.76218 17.2852 5.84774C17.5704 5.9333 17.9126 6.13293 18.4687 6.5322C19.4954 7.30222 23.6164 10.9099 24.3437 11.5231C24.9141 11.2664 27.6519 10.1541 31.117 9.39838C30.8175 7.54463 29.7053 5.7907 27.9941 4.40752C25.6128 5.40569 22.5185 6.00459 19.6665 4.62141C19.6523 4.62141 18.1122 3.89417 16.6007 3.92269C14.3477 3.97973 13.3638 4.94938 12.3371 5.99033L11.011 7.37352Z" fill="white"/>
<path d="M24.1555 11.9098C24.1127 11.867 19.3072 7.6604 18.2092 6.84761C17.5818 6.37704 17.2253 6.2487 16.8545 6.20593C16.6692 6.17741 16.3982 6.22018 16.2129 6.26296C15.6995 6.40556 15.0436 6.84761 14.4589 7.30392C13.8458 7.78874 13.2754 8.24505 12.7478 8.35913C12.0633 8.51598 11.2363 8.33061 10.8513 8.07393C10.6944 7.97412 10.5946 7.84578 10.5375 7.7317C10.3949 7.40373 10.6516 7.14706 10.6944 7.10428L12.0205 5.66406C12.1774 5.50721 12.3343 5.35035 12.4911 5.20775C12.0633 5.26479 11.6641 5.37887 11.279 5.47869C10.7942 5.60702 10.3379 5.73536 9.86734 5.73536C9.66771 5.73536 8.62676 5.56424 8.42712 5.50721C7.22932 5.17924 5.8604 4.86552 4.29184 4.12402C2.40957 5.52146 1.18325 7.24688 0.8125 9.18618C1.08343 9.25748 1.79641 9.41433 1.98179 9.45711C6.24541 10.4125 7.57155 11.3822 7.81396 11.5818C8.07063 11.2966 8.45564 11.1112 8.86917 11.1112C9.33974 11.1112 9.76753 11.3536 10.0242 11.7101C10.2666 11.5105 10.6088 11.3536 11.0366 11.3536C11.2363 11.3536 11.4359 11.3964 11.6498 11.4535C12.1346 11.6246 12.377 11.9383 12.5054 12.2235C12.6622 12.1522 12.8619 12.0951 13.1043 12.0951C13.3324 12.0951 13.5748 12.1522 13.8173 12.252C14.6015 12.5942 14.7299 13.3642 14.6586 13.9489C14.7156 13.9489 14.7726 13.9346 14.8297 13.9346C15.7566 13.9346 16.5266 14.6904 16.5266 15.6315C16.5266 15.9167 16.4553 16.1876 16.3269 16.4301C16.5836 16.5727 17.2253 16.9006 17.7957 16.8293C18.252 16.7723 18.4231 16.6154 18.4801 16.5299C18.5229 16.4728 18.5657 16.4015 18.5229 16.3445L17.3251 15.0041C17.3251 15.0041 17.1255 14.8187 17.1968 14.7474C17.2681 14.6761 17.3822 14.7759 17.4677 14.8472C18.0809 15.3606 18.8224 16.1306 18.8224 16.1306C18.8366 16.1449 18.8794 16.2304 19.1646 16.2875C19.407 16.3302 19.8205 16.3017 20.12 16.0593C20.1913 16.0023 20.2626 15.9167 20.3339 15.8454L20.3196 15.8597C20.6333 15.4604 20.2911 15.0611 20.2911 15.0611L18.8794 13.4783C18.8794 13.4783 18.6798 13.2929 18.7511 13.2216C18.8081 13.1504 18.9364 13.2502 19.0363 13.3215C19.4783 13.6922 20.1057 14.3196 20.7189 14.9185C20.833 15.0041 21.3606 15.3321 22.0736 14.8758C22.5013 14.5906 22.5869 14.2483 22.5726 13.9917C22.5441 13.6494 22.2732 13.407 22.2732 13.407L20.3481 11.482C20.3481 11.482 20.1485 11.3109 20.2198 11.2253C20.2768 11.154 20.4052 11.2538 20.4907 11.3251C21.1039 11.8385 22.758 13.35 22.758 13.35C22.7865 13.3642 23.3569 13.7778 24.0556 13.3215C24.3123 13.1646 24.4692 12.9222 24.4834 12.637C24.4977 12.195 24.1555 11.9098 24.1555 11.9098Z" fill="white"/>
<path d="M14.8402 14.3445C14.5408 14.3445 14.2128 14.5156 14.17 14.4871C14.1415 14.4728 14.1843 14.3588 14.2128 14.2875C14.2413 14.2162 14.6263 13.0469 13.6852 12.6333C12.958 12.3196 12.5017 12.6761 12.3591 12.833C12.3163 12.8758 12.302 12.8758 12.302 12.8187C12.2878 12.6048 12.1879 12.0344 11.5605 11.8348C10.6622 11.5639 10.0775 12.1913 9.93493 12.4194C9.86363 11.9061 9.43584 11.5068 8.90824 11.5068C8.32359 11.5068 7.86729 11.9774 7.85303 12.5478C7.85303 13.1324 8.32359 13.5887 8.89398 13.5887C9.17917 13.5887 9.43584 13.4747 9.62122 13.3035C9.62122 13.3035 9.63548 13.3178 9.62122 13.3321C9.57844 13.5887 9.49288 14.5299 10.4768 14.9149C10.8761 15.0717 11.204 14.9577 11.4892 14.758C11.5748 14.701 11.589 14.7295 11.5748 14.8008C11.532 15.0432 11.589 15.5566 12.3163 15.856C12.8724 16.0842 13.2004 15.856 13.4143 15.6564C13.5141 15.5708 13.5283 15.5851 13.5426 15.7134C13.5711 16.4121 14.1558 16.9683 14.8545 16.9683C15.5817 16.9683 16.1664 16.3836 16.1664 15.6564C16.1521 14.9434 15.5675 14.3588 14.8402 14.3445Z" fill="white"/>
<path d="M15.9999 0.200195C7.3871 0.200195 0.399902 4.77753 0.399902 10.4101C0.399902 10.5527 0.399902 10.9519 0.399902 11.009C0.399902 16.9695 6.50301 21.8035 15.9999 21.8035C25.4968 21.8035 31.5999 16.9695 31.5999 11.009V10.4101C31.5999 4.77753 24.6127 0.200195 15.9999 0.200195ZM30.8869 9.2693C27.4931 10.0251 24.9692 11.123 24.3275 11.394C22.8445 10.0964 19.4222 7.13036 18.4953 6.43164C17.9677 6.03237 17.6112 5.81848 17.2833 5.73292C17.1407 5.69014 16.941 5.64736 16.6844 5.64736C16.4419 5.64736 16.1995 5.69014 15.9286 5.7757C15.3297 5.96107 14.7308 6.4459 14.1604 6.9022V6.91647C13.6185 7.34425 13.0624 7.7863 12.6489 7.88612C12.4635 7.92889 12.2781 7.94316 12.0928 7.94316C11.6222 7.94316 11.1944 7.80056 11.0376 7.60092C11.009 7.5724 11.0233 7.51537 11.0946 7.42981L11.1089 7.41555L12.4065 6.01811C13.4332 4.99142 14.3886 4.03603 16.6131 3.97899C16.6558 3.97899 16.6844 3.97899 16.7271 3.97899C18.1103 3.97899 19.4935 4.59215 19.6361 4.66345C20.9337 5.29087 22.2599 5.61884 23.6145 5.61884C25.012 5.61884 26.4522 5.27661 27.9637 4.57789C29.518 5.91829 30.5732 7.52963 30.8869 9.2693ZM15.9999 0.7991C20.5772 0.7991 24.6697 2.11098 27.4218 4.17862C26.0957 4.74901 24.8266 5.04846 23.6003 5.04846C22.3454 5.04846 21.0906 4.74901 19.8785 4.1501C19.8215 4.12159 18.2957 3.39434 16.6986 3.39434C16.6558 3.39434 16.6131 3.39434 16.5703 3.39434C14.7023 3.43712 13.6613 4.09306 12.9483 4.67771C12.2639 4.69197 11.665 4.86308 11.1374 5.00568C10.6668 5.13402 10.2675 5.24809 9.86828 5.24809C9.71142 5.24809 9.41197 5.23383 9.38345 5.23383C8.92714 5.21958 6.64561 4.66345 4.82038 3.97899C7.58674 2.02542 11.5652 0.7991 15.9999 0.7991ZM4.30703 4.37826C6.20356 5.16254 8.51361 5.76144 9.25511 5.80422C9.45475 5.81848 9.66864 5.847 9.89679 5.847C10.3816 5.847 10.8664 5.7044 11.337 5.57606C11.6079 5.50477 11.9217 5.41921 12.2354 5.34791C12.1498 5.43347 12.0643 5.51902 11.9787 5.60458L10.6526 7.03054C10.5527 7.13036 10.3246 7.41555 10.4672 7.75778C10.5242 7.90038 10.6526 8.02871 10.8094 8.14279C11.1231 8.35669 11.6935 8.49928 12.2069 8.49928C12.4065 8.49928 12.5919 8.48502 12.763 8.44224C13.3191 8.31391 13.9037 7.8576 14.5169 7.35851C15.0017 6.9735 15.7005 6.47442 16.2423 6.33182C16.3992 6.28904 16.5703 6.26052 16.7271 6.26052C16.7699 6.26052 16.8127 6.26052 16.8555 6.27478C17.212 6.31756 17.5542 6.4459 18.1531 6.9022C19.2368 7.715 24.0423 11.9216 24.0851 11.9644C24.0851 11.9644 24.3988 12.2353 24.3703 12.6773C24.356 12.9198 24.2277 13.1336 23.9853 13.2905C23.7856 13.4188 23.5717 13.4901 23.3579 13.4901C23.0299 13.4901 22.816 13.3333 22.8017 13.3333C22.7875 13.319 21.1334 11.8075 20.5345 11.2942C20.4346 11.2086 20.3491 11.1373 20.2493 11.1373C20.1922 11.1373 20.1494 11.1658 20.1209 11.1943C20.0211 11.3084 20.1352 11.4795 20.2635 11.5794L22.1886 13.5187C22.1886 13.5187 22.431 13.7468 22.4595 14.0463C22.4738 14.36 22.3169 14.6309 22.0032 14.8448C21.775 15.0017 21.5469 15.073 21.3187 15.073C21.0193 15.073 20.8196 14.9446 20.7769 14.9018L20.5059 14.6309C20.0068 14.1318 19.4792 13.6185 19.0942 13.3048C18.9944 13.2335 18.9089 13.1622 18.809 13.1622C18.7663 13.1622 18.7235 13.1764 18.6807 13.2192C18.6379 13.262 18.6094 13.3475 18.7092 13.5044C18.752 13.5614 18.809 13.6185 18.809 13.6185L20.2065 15.2013C20.2207 15.2156 20.4917 15.5435 20.235 15.8715L20.178 15.9285C20.1352 15.9713 20.0924 16.0141 20.0496 16.0569C19.8072 16.2565 19.4935 16.2708 19.3652 16.2708C19.2939 16.2708 19.2368 16.2708 19.1798 16.2565C19.0372 16.228 18.9516 16.1995 18.9089 16.1424L18.8946 16.1282C18.8233 16.0426 18.1103 15.3296 17.5257 14.8448C17.4544 14.7735 17.3546 14.7022 17.2547 14.7022C17.212 14.7022 17.1692 14.7165 17.1264 14.7592C17.0123 14.8876 17.1834 15.073 17.2547 15.1443L18.4526 16.4704C18.4526 16.4847 18.4383 16.5132 18.4098 16.556C18.367 16.613 18.2244 16.7556 17.7824 16.8126C17.7253 16.8126 17.6825 16.8269 17.6255 16.8269C17.1834 16.8269 16.6986 16.613 16.4562 16.4847C16.5703 16.2422 16.6273 15.9856 16.6273 15.7289C16.6273 14.745 15.8288 13.9464 14.8449 13.9464C14.8306 13.9464 14.8021 13.9464 14.7878 13.9464C14.8164 13.4901 14.7593 12.6488 13.8752 12.2638C13.6185 12.1497 13.3761 12.0927 13.1337 12.0927C12.9483 12.0927 12.763 12.1212 12.5919 12.1925C12.4065 11.836 12.107 11.5794 11.722 11.451C11.5081 11.3797 11.2942 11.3369 11.0803 11.3369C10.7096 11.3369 10.3816 11.451 10.0822 11.6507C9.79698 11.2942 9.36919 11.0803 8.91288 11.0803C8.51361 11.0803 8.1286 11.2371 7.84341 11.5223C7.47266 11.2371 5.98966 10.296 2.03976 9.39763C1.85438 9.35486 1.42659 9.22652 1.15566 9.15522C1.49789 7.34425 2.6244 5.71866 4.30703 4.37826ZM11.6365 14.6879L11.5937 14.6452H11.5509C11.5224 14.6452 11.4796 14.6594 11.4368 14.6879C11.2372 14.8305 11.0376 14.9018 10.8522 14.9018C10.7381 14.9018 10.6383 14.8733 10.5242 14.8448C9.6116 14.4883 9.6829 13.6185 9.72568 13.3618C9.72568 13.3048 9.72568 13.262 9.6829 13.2335L9.6116 13.1764L9.55456 13.2335C9.36919 13.4046 9.14104 13.5044 8.89862 13.5044C8.37102 13.5044 7.94323 13.0766 7.94323 12.549C7.94323 12.0214 8.37102 11.5936 8.89862 11.5936C9.36919 11.5936 9.78272 11.9501 9.83976 12.4207L9.86828 12.6773L10.0109 12.4634C10.0251 12.4349 10.4101 11.8503 11.1231 11.8503C11.2515 11.8503 11.3941 11.8788 11.5366 11.9216C12.107 12.0927 12.1926 12.606 12.2069 12.8199C12.2211 12.9483 12.3067 12.9483 12.3209 12.9483C12.3637 12.9483 12.4065 12.9198 12.435 12.8912C12.5348 12.7772 12.7772 12.5918 13.1337 12.5918C13.3048 12.5918 13.476 12.6346 13.6613 12.7059C14.5597 13.0909 14.1462 14.2316 14.1462 14.2459C14.0749 14.4313 14.0606 14.5168 14.1319 14.5596L14.1604 14.5739H14.1889C14.2317 14.5739 14.2745 14.5596 14.36 14.5311C14.4884 14.4883 14.6595 14.4313 14.8449 14.4313C15.5151 14.4455 16.0712 14.9874 16.0712 15.6576C16.0712 16.3278 15.5151 16.8839 14.8449 16.8839C14.1889 16.8839 13.6471 16.3706 13.6185 15.7146C13.6185 15.6576 13.6043 15.515 13.4902 15.515C13.4332 15.515 13.3904 15.5435 13.3476 15.5863C13.205 15.7146 13.0196 15.8572 12.7487 15.8572C12.6204 15.8572 12.492 15.8287 12.3494 15.7717C11.6507 15.4865 11.6365 15.0159 11.665 14.8163C11.665 14.7735 11.6792 14.7307 11.6365 14.6879ZM15.9999 19.9925C7.71508 19.9925 0.998806 15.7004 0.998806 10.3958C0.998806 10.1819 1.01307 9.96802 1.04158 9.75412C1.11288 9.76838 1.76882 9.92524 1.89716 9.95376C5.93263 10.8521 7.27303 11.779 7.50118 11.9644C7.42988 12.1497 7.3871 12.3494 7.3871 12.549C7.3871 13.3903 8.07157 14.0605 8.89862 14.0605C8.99844 14.0605 9.084 14.0463 9.18381 14.032C9.31215 14.6452 9.71142 15.1157 10.3246 15.3581C10.51 15.4294 10.6811 15.458 10.8664 15.458C10.9805 15.458 11.0946 15.4437 11.2087 15.4152C11.3228 15.7004 11.5794 16.0569 12.1498 16.2993C12.3494 16.3848 12.5491 16.4276 12.7487 16.4276C12.9056 16.4276 13.0624 16.3991 13.205 16.3421C13.476 17.0123 14.1319 17.4543 14.8591 17.4543C15.344 17.4543 15.8003 17.2547 16.1425 16.9124C16.4277 17.0693 17.0409 17.3687 17.654 17.3687C17.7396 17.3687 17.8109 17.3687 17.8822 17.3545C18.4953 17.2832 18.7805 17.0408 18.9089 16.8554C18.9374 16.8269 18.9516 16.7841 18.9659 16.7556C19.1085 16.7984 19.2654 16.8269 19.4507 16.8269C19.7787 16.8269 20.1067 16.7128 20.4346 16.4847C20.7483 16.2565 20.9765 15.9285 21.005 15.6433V15.6291C21.1191 15.6576 21.2189 15.6576 21.333 15.6576C21.6752 15.6576 22.0175 15.5578 22.3312 15.3439C22.9586 14.9304 23.0584 14.4028 23.0584 14.0605C23.1725 14.089 23.2723 14.089 23.3864 14.089C23.7143 14.089 24.0281 13.9892 24.3275 13.8038C24.7125 13.5614 24.9407 13.1764 24.9834 12.7344C25.012 12.4349 24.9264 12.1355 24.7696 11.8788C25.8105 11.4368 28.1919 10.5669 30.9867 9.92524C31.001 10.0821 31.001 10.239 31.001 10.4101C31.001 15.7004 24.2847 19.9925 15.9999 19.9925Z" fill="#0A0080"/>
</svg>
