<svg width="22" height="13" viewBox="0 0 22 13" fill="none" xmlns="http://www.w3.org/2000/svg">
<path fill-rule="evenodd" clip-rule="evenodd" d="M7.50344 8.39705C7.8794 8.07412 8.1249 7.6499 8.24041 7.12432H11.9542C11.7836 8.62607 11.1672 9.84248 10.1046 10.7736C9.04211 11.7046 7.73386 12.1702 6.18032 12.1702C5.04763 12.1702 4.02759 11.9262 3.12048 11.4381C2.21345 10.95 1.50535 10.2718 0.99668 9.40317C0.487939 8.53474 0.233643 7.55974 0.233643 6.47861C0.233643 5.39741 0.487939 4.42256 0.99668 3.55398C1.50535 2.68555 2.21345 2.00725 3.12048 1.51916C4.02759 1.03115 5.04763 0.787109 6.18032 0.787109C7.70889 0.787109 8.99956 1.23645 10.0521 2.13491C11.1045 3.03352 11.726 4.21096 11.9164 5.66768H8.25527C8.09985 5.18713 7.8342 4.80049 7.45833 4.50759C7.08259 4.2147 6.6616 4.06829 6.19519 4.06829C5.55374 4.06829 5.03628 4.28992 4.6429 4.73289C4.24929 5.17593 4.05264 5.75784 4.05264 6.47861C4.05264 7.19448 4.25068 7.77383 4.64663 8.2168C5.04258 8.65984 5.55872 8.88132 6.19519 8.88132C6.69148 8.88132 7.12756 8.7199 7.50344 8.39705ZM20.6845 5.43755C21.4059 6.11592 21.7668 6.99292 21.7668 8.06863C21.7668 9.29807 21.3516 10.289 20.5214 11.0415C19.691 11.7939 18.5966 12.1702 17.2383 12.1702C15.896 12.1702 14.8043 11.7926 13.9634 11.0375C13.1224 10.2822 12.702 9.30334 12.702 8.10034C12.702 7.44336 12.8175 6.78228 13.0482 6.11716C13.279 5.45227 13.6357 4.7249 14.1187 3.9352L15.826 1.15164L19.4328 1.15083L17.4134 4.43604C17.615 4.42542 17.7741 4.42014 17.8911 4.42014C19.0317 4.42014 19.9627 4.75925 20.6845 5.43755ZM18.2492 9.07805C18.509 8.81848 18.639 8.48193 18.639 8.06863C18.639 7.65525 18.509 7.31614 18.2492 7.05115C17.9892 6.78616 17.6522 6.65366 17.2383 6.65366C16.8245 6.65366 16.4875 6.78616 16.2278 7.05115C15.9676 7.31614 15.8376 7.65525 15.8376 8.06863C15.8376 8.48193 15.9676 8.81848 16.2278 9.07805C16.4875 9.33777 16.8245 9.46755 17.2383 9.46755C17.6522 9.46755 17.9892 9.33777 18.2492 9.07805Z" fill="#242424"/>
</svg>
