<svg width="24" height="24" viewBox="0 0 24 24" fill="none" xmlns="http://www.w3.org/2000/svg">
<path fill-rule="evenodd" clip-rule="evenodd" d="M0 8.00004L4.99529 11.3334L10.9953 7.33337L8.49763 5.66202L11.7465 3.5024L18.7417 8.16905L7.24881 15.831L9.74646 17.5024L23.9999 8.00004L12 0L0 8.00004ZM23.9999 16L18.9953 12.6667L12.9953 16.6667L15.4929 18.3286L12.2441 20.4977L5.24881 15.831L16.7417 8.16905L14.2441 6.4977L0 16L12 24L23.9999 16ZM23.9999 3.33333L21.4929 5.00474L18.9953 3.33333L23.9999 0V3.33333ZM0 20.6667L2.49765 18.9953L4.99529 20.6667L0 24V20.6667Z" fill="#003882"/>
</svg>
