<svg width="27" height="25" viewBox="0 0 27 25" fill="none" xmlns="http://www.w3.org/2000/svg">
<g clip-path="url(#clip0_2855_162220)">
<path fill-rule="evenodd" clip-rule="evenodd" d="M19.3671 12.1843L19.6542 10.755H17.1826V8.80245L15.4476 9.07029V14.9024C15.4476 16.9186 16.2213 17.5186 18.3309 17.5186H19.2545L19.5418 16.1018H18.4557C17.4947 16.1018 17.1824 15.8597 17.1824 14.7874V12.1843H19.3671ZM7.44637 8.12586V14.3921C7.44637 16.7147 8.49477 17.6845 10.7791 17.6845C13.1508 17.6845 14.1993 16.7403 14.1993 14.4047V13.805C14.1993 11.61 13.2255 10.5379 11.1037 10.5379C10.4295 10.5379 9.69304 10.6782 9.1937 11.0737V7.84511L7.44637 8.12586ZM10.8415 11.9416C12.0397 11.9416 12.4643 12.4266 12.4643 13.8686V14.4047C12.4643 15.8083 12.0397 16.2935 10.8165 16.2935C9.59332 16.2935 9.16862 15.8083 9.16862 14.3919V13.6646C9.16862 12.3755 9.59332 11.9416 10.8415 11.9416ZM23.5611 10.5379C21.2768 10.5379 20.2282 11.5205 20.2282 13.7666V14.1112C20.2282 16.2423 21.1395 17.276 23.2863 17.276C23.9729 17.276 24.6595 17.1486 25.1463 16.7527V17.0083C25.1463 18.2079 24.6346 18.6031 23.4362 18.6031H22.7187C22.3086 18.6106 22.1222 18.6851 21.8751 19.0993L21.8737 19.0987C19.8155 22.4289 16.2423 24.4633 12.3482 24.4633C6.13485 24.4633 1.08015 19.2957 1.08015 12.9433C1.08015 6.59104 6.13485 1.4234 12.3482 1.4234C16.7124 1.4234 20.6827 4.00737 22.5403 8.02858H23.058C21.1649 3.72266 16.9681 0.943359 12.3482 0.943359C5.87613 0.943359 0.610596 6.32655 0.610596 12.9433C0.610596 19.5602 5.87613 24.9434 12.3482 24.9434C16.1544 24.9434 19.667 23.0776 21.8568 19.9814H23.5361C25.7455 19.9814 26.8814 19.1265 26.8814 16.9443V13.6518C26.8814 11.4822 25.7955 10.5379 23.5611 10.5379ZM25.1589 14.3281C25.1589 15.5277 24.7469 15.8977 23.5613 15.8977C22.2254 15.8977 21.9634 15.4256 21.9634 14.0347V13.8178C21.9634 12.4392 22.2005 11.9416 23.5611 11.9416C24.8967 11.9416 25.1589 12.4266 25.1589 13.8304V14.3281Z" fill="#001E61"/>
</g>
<defs>
<clipPath id="clip0_2855_162220">
<rect width="26.2708" height="24" fill="white" transform="translate(0.610596 0.943359)"/>
</clipPath>
</defs>
</svg>
