<svg width="24" height="24" viewBox="0 0 24 24" fill="none" xmlns="http://www.w3.org/2000/svg">
<path fill-rule="evenodd" clip-rule="evenodd" d="M8.02683 11.2201L7.49666 12.5411H8.23015L8.02919 11.2145L8.02683 11.2201ZM5.21838 14.2524L7.3932 9.77539H9.03697L9.95411 14.2524H8.51042L8.40434 13.6559H7.00385L6.68162 14.2524H5.21838ZM10.6373 14.2524L11.2673 9.77539H12.7218L12.0919 14.2524H10.6373ZM20.3106 11.2145L19.7783 12.5411H20.5118L20.3106 11.2145ZM17.4999 14.2524L19.6747 9.77539H21.3184L22.2354 14.2524H20.7918L20.6857 13.6559H19.2852L18.963 14.2524H17.4999ZM14.2846 12.159H16.1069L17.3557 14.2274H15.533L14.2846 12.159Z" fill="#0D6FAB"/>
<path fill-rule="evenodd" clip-rule="evenodd" d="M14.4743 11.8406H16.358L17.9939 9.78125H16.1102L14.4743 11.8406ZM12.5906 14.2393H14.4743L16.1102 12.1545H14.2265L12.5906 14.2393Z" fill="#DB8135"/>
<path fill-rule="evenodd" clip-rule="evenodd" d="M13.2695 9.75611H15.0277L16.2322 11.8407H14.474L13.2695 9.75611ZM5.26162 9.93516L5.12167 11.2518C4.58553 10.5124 3.34317 11.0226 3.24556 11.9439C3.12155 13.1133 4.31734 13.3861 4.96815 12.6974L4.82783 14.0172C4.63359 14.1128 4.44371 14.1867 4.25633 14.2368C4.07404 14.2862 3.88645 14.3133 3.69765 14.3175C3.46457 14.3224 3.25353 14.2979 3.06315 14.2443C2.87759 14.1939 2.70304 14.1094 2.54843 13.995C2.25458 13.7803 2.04217 13.5072 1.91119 13.1748C1.78045 12.8413 1.73725 12.4652 1.78195 12.0447C1.8178 11.7069 1.90309 11.3988 2.03868 11.1194C2.17316 10.84 2.35942 10.5863 2.59661 10.3562C2.82086 10.1367 3.06502 9.97126 3.32935 9.85871C3.59244 9.74727 3.87981 9.68776 4.19034 9.68128C4.37342 9.67687 4.5563 9.69612 4.73445 9.73855C4.91187 9.78101 5.08693 9.84725 5.26162 9.93516Z" fill="#0D6FAB"/>
</svg>
