<svg width="24" height="23" viewBox="0 0 24 23" fill="none" xmlns="http://www.w3.org/2000/svg">
<g clip-path="url(#clip0_4393_194800)">
<path d="M15.1524 18.9714V13.368L12.3699 16.1696L15.1524 18.9714ZM21.9255 16.1693C21.9255 15.1705 21.2132 14.6882 20.194 14.6882H17.4725V17.6517H20.194C21.2132 17.6503 21.9255 17.1681 21.9255 16.1693ZM21.0896 0.227539H2.90727C0.991042 0.227539 -0.000244141 1.25782 -0.000244141 3.2554V19.7454C-0.000244141 21.7416 0.989756 22.7733 2.90718 22.7733H15.1524V22.1293C15.1524 21.0018 15.5245 20.3579 16.3895 20.0044V19.9399H12.9572C12.7725 19.9399 12.71 19.9071 12.5865 19.7784L10.7938 17.8465L8.93881 19.8112C8.84581 19.9086 8.78333 19.9399 8.59733 19.9399H5.84658C5.69118 19.9399 5.69118 19.8427 5.78418 19.7468L9.30953 16.1723L5.7217 12.5649C5.6287 12.4676 5.66058 12.3719 5.81598 12.3719H8.5999C8.7541 12.3719 8.81658 12.4033 8.90821 12.5006L10.8563 14.5296L12.6808 12.5006C12.7751 12.4033 12.8362 12.3719 12.9598 12.3719H20.2272C21.8962 12.3719 23.3818 12.9513 23.9373 14.6913H23.9998V3.25822C23.9971 1.25774 23.0071 0.227539 21.0896 0.227539ZM20.2551 19.9369H17.5655C17.5031 19.9369 17.4725 19.9699 17.4725 20.0341V22.7715H21.0896C23.0058 22.7715 23.9971 21.7413 23.9971 19.7437V17.6503H23.9346C23.3779 19.3902 21.956 19.9369 20.2551 19.9369Z" fill="black"/>
</g>
<defs>
<clipPath id="clip0_4393_194800">
<rect width="24" height="22.6272" fill="white" transform="translate(-0.000244141 0.186523)"/>
</clipPath>
</defs>
</svg>
