<svg width="20" height="18" viewBox="0 0 20 18" fill="none" xmlns="http://www.w3.org/2000/svg">
<path d="M6.19004 16.5054C6.14835 16.5174 5.96366 16.5352 5.87429 16.5352C5.53472 16.5352 5.35 16.4339 5.35 16.1955C5.35 15.9571 5.53472 15.8617 5.87429 15.8617C5.98748 15.8617 6.11857 15.8736 6.19004 15.8796V16.5054ZM5.74324 14.2881C5.45131 14.2821 5.19512 14.3179 4.94489 14.3775C4.89724 14.5444 4.9032 14.7888 4.94489 14.9616C5.25468 14.8901 5.42749 14.8842 5.62409 14.8842C6.00535 14.8842 6.19004 15.0391 6.19004 15.355V15.3848C6.07685 15.3729 5.93984 15.361 5.84451 15.361C5.21299 15.361 4.67086 15.5875 4.67086 16.1955C4.67086 16.8809 5.15936 17.1134 5.86834 17.1134C6.20195 17.1134 6.56538 17.0538 6.89902 16.9525V15.4087C6.89902 14.6696 6.49986 14.306 5.74324 14.2881Z" fill="#CE1C30"/>
<path d="M4.37891 14.3239C4.02742 14.3239 3.82483 14.4609 3.63422 14.7054C3.61635 14.5802 3.5925 14.4788 3.55081 14.3536C3.47931 14.3298 3.35417 14.3239 3.24694 14.3239C3.14566 14.3239 3.0146 14.3358 2.94906 14.3536V17.0538C3.03843 17.0776 3.18738 17.0836 3.31844 17.0836C3.44354 17.0836 3.61036 17.0717 3.68782 17.0538V15.7365C3.68782 15.212 3.96188 14.9318 4.33126 14.9318C4.39677 14.9318 4.50999 14.9318 4.57554 14.9438C4.61723 14.7709 4.62318 14.5206 4.58745 14.3477C4.54573 14.3358 4.43849 14.3239 4.37891 14.3239Z" fill="#CE1C30"/>
<path d="M1.01877 16.5114C0.941319 16.5114 0.822172 16.5114 0.738761 16.4816V14.9974C0.84004 14.9438 0.983039 14.914 1.1677 14.914C1.53708 14.914 1.73371 15.1703 1.73371 15.6531C1.73371 16.1597 1.50135 16.5114 1.01877 16.5114ZM1.29283 14.3C1.07833 14.3 0.869819 14.3477 0.738761 14.4133V13.09C0.530247 13.1675 0.309793 13.2748 0.125103 13.4238C0.0298083 13.5013 0 13.5788 0 13.6921V16.9584C0.196602 17.0419 0.595762 17.1134 0.977054 17.1134C1.94223 17.1134 2.49627 16.5233 2.49627 15.671C2.49627 14.8246 2.10306 14.3 1.29283 14.3Z" fill="#CE1C30"/>
<path d="M9.04976 16.4697C8.92463 16.5054 8.83527 16.5114 8.73399 16.5114C8.24546 16.5114 8.05481 16.1895 8.05481 15.7246C8.05481 15.206 8.24546 14.8901 8.72803 14.8901C8.87103 14.8901 8.96037 14.908 9.04976 14.9318V16.4697ZM9.04976 13.6921V14.3417C8.91868 14.306 8.78166 14.3 8.66252 14.3C7.8463 14.3 7.29223 14.8484 7.29223 15.7246C7.29223 16.6187 7.83439 17.1134 8.68038 17.1134C9.06763 17.1134 9.44892 17.0598 9.7885 16.9465V13.09C9.57998 13.1675 9.35956 13.2748 9.17487 13.4238C9.07954 13.5013 9.04976 13.5788 9.04976 13.6921Z" fill="#CE1C30"/>
<path d="M14.3342 15.4504L14.0363 15.3252C13.8636 15.2537 13.7623 15.1941 13.7623 15.0808C13.7623 14.908 13.9172 14.8722 14.1198 14.8722C14.3223 14.8722 14.5308 14.8961 14.8168 14.9855C14.8526 14.7888 14.8526 14.604 14.8168 14.4311C14.6381 14.3358 14.3044 14.2881 14.0125 14.2881C13.4406 14.2881 13.0057 14.5981 13.0057 15.063C13.0057 15.4802 13.1844 15.6888 13.6849 15.8915L13.9172 15.9869C14.1376 16.0763 14.2032 16.1299 14.2032 16.273C14.2032 16.4876 13.9887 16.5233 13.81 16.5233C13.5121 16.5233 13.2857 16.4637 12.9997 16.3624C12.9521 16.5352 12.9521 16.7617 12.9997 16.9406C13.244 17.0717 13.5776 17.1134 13.9291 17.1134C14.4951 17.1134 14.9479 16.8154 14.9479 16.2789C14.9479 15.8378 14.7572 15.6293 14.3342 15.4504Z" fill="#CE1C30"/>
<path d="M16.6339 16.5054C16.2645 16.5054 16.0203 16.2134 16.0203 15.7008C16.0203 15.212 16.2169 14.8961 16.6399 14.8961C16.8186 14.8961 16.9437 14.9259 17.1105 14.9914C17.1582 14.8246 17.2475 14.6338 17.3727 14.4729C17.1403 14.3536 16.9139 14.2881 16.5445 14.2881C15.7283 14.2881 15.2577 14.8663 15.2577 15.7008C15.2577 16.565 15.7402 17.1134 16.5743 17.1134C16.8782 17.1134 17.1582 17.0598 17.3846 16.9346C17.2833 16.8035 17.1701 16.6247 17.1046 16.416C16.8961 16.4995 16.8067 16.5054 16.6339 16.5054Z" fill="#CE1C30"/>
<path d="M18.7012 16.5174C18.2902 16.5174 18.165 16.1836 18.165 15.7067C18.165 15.2418 18.2902 14.8842 18.7012 14.8842C19.1242 14.8842 19.2434 15.2299 19.2434 15.7067C19.2434 16.2074 19.1063 16.5174 18.7012 16.5174ZM18.7012 14.2881C17.8731 14.2881 17.4084 14.8544 17.4084 15.7067C17.4084 16.571 17.8969 17.1134 18.7012 17.1134C19.5353 17.1134 20 16.5591 20 15.7067C20 14.8484 19.5353 14.2881 18.7012 14.2881Z" fill="#CE1C30"/>
<path d="M10.9324 15.3789C10.986 15.0511 11.1826 14.8544 11.4805 14.8544C11.8141 14.8544 11.9452 15.0808 11.9571 15.3789H10.9324ZM11.4924 14.2881C10.6941 14.2881 10.2056 14.8246 10.2056 15.7186C10.2056 16.6127 10.7239 17.1134 11.6116 17.1134C11.9154 17.1134 12.2431 17.0598 12.4516 16.9584C12.4933 16.7856 12.4933 16.5591 12.4516 16.3862C12.1776 16.4637 11.9452 16.5114 11.689 16.5114C11.2779 16.5114 10.992 16.3564 10.9324 15.9213H12.6125C12.6363 15.8557 12.6422 15.6352 12.6422 15.5458C12.6422 14.7411 12.1895 14.2881 11.4924 14.2881Z" fill="#CE1C30"/>
<path d="M9.6861 2.78592C9.01451 2.78592 8.28022 2.84762 7.55492 2.97104C8.28918 2.02786 9.45328 1.41964 10.7517 1.41964C11.7098 1.41964 12.668 1.78106 13.3127 2.31876C13.4291 2.4157 13.5187 2.42452 13.6082 2.33637C13.6978 2.24822 13.6888 2.16007 13.5903 2.04548C12.7486 1.06707 11.5128 0.405964 10.0532 0.432406C8.14593 0.467672 6.52515 1.67527 5.90725 3.35005C5.34313 3.52635 4.82377 3.73789 4.36708 3.99351C4.24172 4.06404 4.19694 4.15219 4.24172 4.25796C4.28647 4.3549 4.37604 4.39017 4.5014 4.3549C4.89541 4.24031 5.29835 4.14337 5.71924 4.05522C5.67446 4.27558 5.6476 4.50476 5.6476 4.74277C5.61178 6.28531 6.43558 7.74853 7.70714 8.55068C7.8325 8.63 7.93996 8.63 8.0116 8.53306C8.08325 8.43608 8.07428 8.34793 7.96682 8.25096C7.16091 7.52817 6.71319 6.45279 6.71319 5.38623C6.71319 4.84854 6.82062 4.32849 7.02659 3.8613C7.44745 3.82603 7.90414 3.79959 8.40558 3.79959C11.6651 3.79959 14.4141 4.87498 14.4141 6.28531C14.4141 6.9993 13.5097 7.71327 12.4351 8.18928C12.1755 8.30387 12.1486 8.3832 12.1844 8.49779C12.2203 8.60356 12.3367 8.63882 12.471 8.59474C14.3515 7.97772 15.7752 6.96404 15.7752 5.73883C15.7752 4.07287 13.0889 2.78592 9.6861 2.78592Z" fill="#CE1C30"/>
<path d="M11.2425 11.2596V7.69046C11.2425 7.5537 11.1105 7.50379 11.0017 7.56582L10.0948 8.08801V11.4318L11.069 11.4331C11.1648 11.4332 11.2425 11.3555 11.2425 11.2596Z" fill="#CE1C30"/>
<path d="M8.99083 8.85305V11.3212C8.99083 11.383 9.04088 11.4331 9.10262 11.4331H9.78887V8.26391L9.10379 8.65856C9.03396 8.69838 8.99083 8.76109 8.99083 8.85305Z" fill="#CE1C30"/>
</svg>
