<svg width="21" height="5" viewBox="0 0 21 5" fill="none" xmlns="http://www.w3.org/2000/svg">
<g clip-path="url(#clip0_3008_163352)">
<path fill-rule="evenodd" clip-rule="evenodd" d="M6.87426 1.51451L6.35634 2.80524H7.07308L6.8766 1.50926L6.87426 1.51451ZM4.13049 4.47754L6.25503 0.103211H7.86136L8.75707 4.47754H7.34694L7.243 3.89451H5.87491L5.56019 4.47754H4.13049ZM9.42477 4.47754L10.0402 0.103211H11.4611L10.846 4.47754H9.42477ZM18.8756 1.50926L18.3556 2.80524H19.0721L18.8756 1.50926ZM16.1295 4.47754L18.2543 0.103211H19.8603L20.7563 4.47754H19.3459L19.2423 3.89451H17.8739L17.5592 4.47754H16.1295Z" fill="#0070AF"/>
<path fill-rule="evenodd" clip-rule="evenodd" d="M12.988 2.43252H14.7687L15.9887 4.45312H14.2078L12.988 2.43252Z" fill="#0070AF"/>
<path fill-rule="evenodd" clip-rule="evenodd" d="M13.1732 2.12207H15.0137L16.6121 0.10993H14.7717L13.1732 2.12207Z" fill="#F6822A"/>
<path fill-rule="evenodd" clip-rule="evenodd" d="M11.333 4.46484H13.1732L14.7716 2.42818H12.9312L11.333 4.46484Z" fill="#F6822A"/>
<path fill-rule="evenodd" clip-rule="evenodd" d="M11.9966 0.085407H13.7141L14.891 2.12207H13.1731L11.9966 0.085407Z" fill="#0070AF"/>
<path fill-rule="evenodd" clip-rule="evenodd" d="M4.17255 0.259863L4.03592 1.5465C3.51218 0.823919 2.2983 1.32257 2.20298 2.22266C2.08185 3.36507 3.25013 3.63134 3.88585 2.95868L3.74893 4.24823C3.55919 4.34136 3.37362 4.41377 3.19048 4.46253C3.00833 4.51157 2.82577 4.53756 2.64464 4.54135C2.41692 4.54632 2.2106 4.52237 2.02471 4.47011C1.83883 4.41873 1.6706 4.33698 1.52176 4.22663C1.23472 4.01671 1.02717 3.74987 0.899321 3.42522C0.771475 3.0994 0.729405 2.73183 0.772964 2.32105C0.808086 1.99085 0.891235 1.68985 1.02375 1.41687C1.15513 1.14419 1.33713 0.896028 1.56889 0.671224C1.78797 0.456931 2.02655 0.295192 2.28473 0.185418C2.54191 0.0765195 2.82256 0.0184188 3.12593 0.0119958C3.30715 0.00820065 3.48494 0.0263028 3.65749 0.0680523C3.83097 0.109509 4.00205 0.174321 4.17255 0.259863Z" fill="#0070AF"/>
</g>
<defs>
<clipPath id="clip0_3008_163352">
<rect width="20" height="4.53049" fill="white" transform="translate(0.756348 0.0117188)"/>
</clipPath>
</defs>
</svg>
