<svg width="23" height="19" viewBox="0 0 23 19" fill="none" xmlns="http://www.w3.org/2000/svg">
<path d="M22.2222 7.10913H0V3.5546C0 1.62496 1.63099 0 3.56778 0H18.6544C20.5912 0 22.2222 1.62496 22.2222 3.5546V7.10913Z" fill="#34A853"/>
<path d="M22.2222 10.3889H0V6.61109C0 4.56031 1.63099 2.83329 3.56778 2.83329H18.6544C20.5912 2.83329 22.2222 4.56031 22.2222 6.61109V10.3889Z" fill="#FBBC04"/>
<path d="M22.2222 13.5371H0V9.75926C0 7.70848 1.63099 5.98146 3.56778 5.98146H18.6544C20.5912 5.98146 22.2222 7.70848 22.2222 9.75926V13.5371Z" fill="#EA4335"/>
<path d="M0 8.02204L14.1045 11.272C15.7281 11.6782 17.5546 11.272 18.8736 10.2564L22.2222 7.81892V15.4359C22.2222 17.3655 20.5987 18.8889 18.6707 18.8889H3.55148C1.62352 18.8889 0 17.3655 0 15.4359V8.02204Z" fill="url(#paint0_linear_449_2534)"/>
<defs>
<linearGradient id="paint0_linear_449_2534" x1="10.052" y1="13.5653" x2="-1.63152" y2="26.9858" gradientUnits="userSpaceOnUse">
<stop stop-color="#4285F4"/>
<stop offset="1" stop-color="#1B74E8"/>
</linearGradient>
</defs>
</svg>
