<svg width="60" height="60" viewBox="0 0 60 60" fill="none" xmlns="http://www.w3.org/2000/svg">
<rect width="60" height="60" rx="30" fill="#FF8301"/>
<path d="M21.0695 27.0488H19.2395V39.3988H21.0695V27.0488Z" fill="white"/>
<path d="M27.4396 27.0488H25.6096V39.3988H27.4396V27.0488Z" fill="white"/>
<path d="M40.1896 27.0488H38.3596V39.3988H40.1896V27.0488Z" fill="white"/>
<path d="M33.8195 27.0488H31.9895V39.3988H33.8195V27.0488Z" fill="white"/>
<path d="M40.8296 40.5983H18.2696C17.6096 40.5983 17.0696 40.0583 17.0696 39.3983C17.0696 38.7383 17.6096 38.1982 18.2696 38.1982H40.8296C41.4896 38.1982 42.0296 38.7383 42.0296 39.3983C42.0296 40.0583 41.4896 40.5983 40.8296 40.5983Z" fill="white"/>
<path d="M17.0095 24.9685C17.0095 24.5885 17.2295 24.2585 17.5795 24.1085C18.0595 23.8985 18.5795 23.6885 18.9995 23.4985L28.6495 18.9785C29.2295 18.7285 29.8995 18.7285 30.4795 18.9785H30.4895L41.5295 23.9185C41.8795 24.0685 42.0995 24.4085 42.0995 24.7785C42.0995 25.3185 42.0895 26.0885 42.0895 26.6985C42.0895 27.2185 41.6695 27.6385 41.1495 27.6385L17.9395 27.5785C17.4195 27.5785 16.9995 27.1585 16.9995 26.6385V24.9585L17.0095 24.9685Z" fill="white"/>
</svg>
