<svg width="11" height="10" viewBox="0 0 11 10" fill="none" xmlns="http://www.w3.org/2000/svg">
<path d="M1.8207 3.94141H1.09161V8.86173H1.8207V3.94141Z" fill="#EC7001"/>
<path d="M4.3586 3.94141H3.62952V8.86173H4.3586V3.94141Z" fill="#EC7001"/>
<path d="M9.43831 3.94141H8.70923V8.86173H9.43831V3.94141Z" fill="#EC7001"/>
<path d="M6.90059 3.94141H6.17151V8.86173H6.90059V3.94141Z" fill="#EC7001"/>
<path d="M9.69325 9.33899H0.705204C0.442256 9.33899 0.227112 9.12385 0.227112 8.86091C0.227112 8.59796 0.442256 8.38281 0.705204 8.38281H9.69325C9.9562 8.38281 10.1713 8.59796 10.1713 8.86091C10.1713 9.12385 9.9562 9.33899 9.69325 9.33899Z" fill="#FF9838"/>
<path d="M0.203201 3.11155C0.203201 2.96015 0.290853 2.82868 0.430295 2.76892C0.62153 2.68525 0.828701 2.60159 0.996032 2.52589L4.84065 0.725092C5.07173 0.62549 5.33866 0.62549 5.56974 0.725092H5.57372L9.97213 2.69322C10.1116 2.75298 10.1992 2.88844 10.1992 3.03585C10.1992 3.25099 10.1952 3.55776 10.1952 3.80079C10.1952 4.00796 10.0279 4.17529 9.82073 4.17529L0.573722 4.15139C0.36655 4.15139 0.199219 3.98406 0.199219 3.77689V3.10757L0.203201 3.11155Z" fill="#FF9838"/>
</svg>
