<svg width="51" height="45" viewBox="0 0 51 45" fill="none" xmlns="http://www.w3.org/2000/svg">
<path d="M8.1395 17.0972H4.47949V41.7972H8.1395V17.0972Z" fill="white"/>
<path d="M20.8807 17.0972H17.2207V41.7972H20.8807V17.0972Z" fill="white"/>
<path d="M46.3807 17.0972H42.7207V41.7972H46.3807V17.0972Z" fill="white"/>
<path d="M33.6395 17.0972H29.9795V41.7972H33.6395V17.0972Z" fill="white"/>
<path d="M47.6606 44.1965H2.54065C1.22065 44.1965 0.140625 43.1165 0.140625 41.7965C0.140625 40.4765 1.22065 39.3965 2.54065 39.3965H47.6606C48.9806 39.3965 50.0606 40.4765 50.0606 41.7965C50.0606 43.1165 48.9806 44.1965 47.6606 44.1965Z" fill="white"/>
<path d="M0.019989 12.9368C0.019989 12.1768 0.460004 11.5168 1.16 11.2168C2.12 10.7968 3.16 10.3768 4 9.9968L23.3 0.956787C24.46 0.456787 25.8 0.456787 26.96 0.956787H26.98L49.06 10.8368C49.76 11.1368 50.2 11.8168 50.2 12.5568C50.2 13.6368 50.18 15.1768 50.18 16.3968C50.18 17.4368 49.34 18.2768 48.3 18.2768L1.88 18.1568C0.840005 18.1568 0 17.3168 0 16.2768V12.9168L0.019989 12.9368Z" fill="white"/>
</svg>
