<svg width="21" height="18" viewBox="0 0 21 18" fill="none" xmlns="http://www.w3.org/2000/svg">
<path d="M3.64146 6.88281H2.18329V16.7235H3.64146V6.88281Z" fill="#EC7001"/>
<path d="M8.7172 6.88281H7.25903V16.7235H8.7172V6.88281Z" fill="#EC7001"/>
<path d="M18.8766 6.88281H17.4185V16.7235H18.8766V6.88281Z" fill="#EC7001"/>
<path d="M13.8012 6.88281H12.343V16.7235H13.8012V6.88281Z" fill="#EC7001"/>
<path d="M19.3865 17.6799H1.41041C0.884512 17.6799 0.454224 17.2497 0.454224 16.7238C0.454224 16.1979 0.884512 15.7676 1.41041 15.7676H19.3865C19.9124 15.7676 20.3427 16.1979 20.3427 16.7238C20.3427 17.2497 19.9124 17.6799 19.3865 17.6799Z" fill="#FF9838"/>
<path d="M0.406401 5.22505C0.406401 4.92226 0.581706 4.65931 0.860591 4.53979C1.24306 4.37246 1.6574 4.20513 1.99206 4.05374L9.6813 0.452137C10.1435 0.252934 10.6773 0.252934 11.1395 0.452137H11.1474L19.9443 4.38839C20.2231 4.50792 20.3984 4.77883 20.3984 5.07365C20.3984 5.50393 20.3905 6.11748 20.3905 6.60353C20.3905 7.01788 20.0558 7.35254 19.6415 7.35254L1.14744 7.30473C0.733101 7.30473 0.398438 6.97007 0.398438 6.55573V5.21709L0.406401 5.22505Z" fill="#FF9838"/>
</svg>
