<svg width="48" height="48" viewBox="0 0 48 48" fill="none" xmlns="http://www.w3.org/2000/svg">
<g id="Itau&#204;&#129;_Unibanco_logo_2023 1">
<g id="Group">
<path id="Vector" d="M15.0696 21.2576H13.2396V33.6076H15.0696V21.2576Z" fill="white"/>
<path id="Vector_2" d="M21.4396 21.2576H19.6096V33.6076H21.4396V21.2576Z" fill="white"/>
<path id="Vector_3" d="M34.1896 21.2576H32.3596V33.6076H34.1896V21.2576Z" fill="white"/>
<path id="Vector_4" d="M27.8196 21.2576H25.9896V33.6076H27.8196V21.2576Z" fill="white"/>
<path id="Vector_5" d="M34.8296 34.8076H12.2696C11.6096 34.8076 11.0696 34.2676 11.0696 33.6076C11.0696 32.9476 11.6096 32.4076 12.2696 32.4076H34.8296C35.4896 32.4076 36.0296 32.9476 36.0296 33.6076C36.0296 34.2676 35.4896 34.8076 34.8296 34.8076Z" fill="white"/>
<path id="Vector_6" d="M11.0096 19.1776C11.0096 18.7976 11.2296 18.4676 11.5796 18.3176C12.0596 18.1076 12.5796 17.8976 12.9996 17.7076L22.6496 13.1876C23.2296 12.9376 23.8996 12.9376 24.4796 13.1876H24.4896L35.5296 18.1276C35.8796 18.2776 36.0996 18.6176 36.0996 18.9876C36.0996 19.5276 36.0896 20.2976 36.0896 20.9076C36.0896 21.4276 35.6696 21.8476 35.1496 21.8476L11.9396 21.7876C11.4196 21.7876 10.9996 21.3676 10.9996 20.8476V19.1676L11.0096 19.1776Z" fill="white"/>
</g>
</g>
</svg>
