<svg width="41" height="40" viewBox="0 0 41 40" fill="none" xmlns="http://www.w3.org/2000/svg">
<g id="(LT) JP_GooglePay">
<g id="Group">
<path id="Vector" d="M12.7296 17.5667H11.0527V28.8834H12.7296V17.5667Z" fill="#EC7001"/>
<path id="Vector_2" d="M18.5668 17.5667H16.8899V28.8834H18.5668V17.5667Z" fill="#EC7001"/>
<path id="Vector_3" d="M30.2501 17.5667H28.5732V28.8834H30.2501V17.5667Z" fill="#EC7001"/>
<path id="Vector_4" d="M24.4133 17.5667H22.7365V28.8834H24.4133V17.5667Z" fill="#EC7001"/>
<path id="Vector_5" d="M30.8365 29.9829H10.1639C9.55916 29.9829 9.06433 29.4881 9.06433 28.8833C9.06433 28.2785 9.55916 27.7837 10.1639 27.7837H30.8365C31.4412 27.7837 31.9361 28.2785 31.9361 28.8833C31.9361 29.4881 31.4412 29.9829 30.8365 29.9829Z" fill="#FF9838"/>
<path id="Vector_6" d="M9.00934 15.6607C9.00934 15.3125 9.21094 15.0101 9.53166 14.8726C9.9715 14.6802 10.448 14.4878 10.8329 14.3137L19.6755 10.1718C20.207 9.94273 20.8209 9.94273 21.3524 10.1718H21.3615L31.4779 14.6985C31.7986 14.836 32.0002 15.1475 32.0002 15.4866C32.0002 15.9814 31.991 16.687 31.991 17.2459C31.991 17.7224 31.6062 18.1073 31.1297 18.1073L9.86154 18.0523C9.38505 18.0523 9.00018 17.6674 9.00018 17.1909V15.6515L9.00934 15.6607Z" fill="#FF9838"/>
</g>
</g>
</svg>
