<svg width="80" height="80" viewBox="0 0 80 80" fill="none" xmlns="http://www.w3.org/2000/svg">
<rect width="80" height="80" rx="40" fill="#FF8301"/>
<path d="M28.0928 36.0645H25.6528V52.5311H28.0928V36.0645Z" fill="white"/>
<path d="M36.5865 36.0645H34.1465V52.5311H36.5865V36.0645Z" fill="white"/>
<path d="M53.5865 36.0645H51.1465V52.5311H53.5865V36.0645Z" fill="white"/>
<path d="M45.0928 36.0645H42.6528V52.5311H45.0928V36.0645Z" fill="white"/>
<path d="M54.4398 54.1297H24.3598C23.4798 54.1297 22.7598 53.4097 22.7598 52.5297C22.7598 51.6497 23.4798 50.9297 24.3598 50.9297H54.4398C55.3198 50.9297 56.0398 51.6497 56.0398 52.5297C56.0398 53.4097 55.3198 54.1297 54.4398 54.1297Z" fill="white"/>
<path d="M22.6796 33.2904C22.6796 32.7837 22.9729 32.3437 23.4396 32.1437C24.0796 31.8637 24.7729 31.5837 25.3329 31.3304L38.1996 25.3037C38.9729 24.9704 39.8663 24.9704 40.6396 25.3037H40.6529L55.3729 31.8904C55.8396 32.0904 56.1329 32.5437 56.1329 33.037C56.1329 33.757 56.1196 34.7837 56.1196 35.597C56.1196 36.2904 55.5596 36.8504 54.8663 36.8504L23.9196 36.7704C23.2263 36.7704 22.6663 36.2104 22.6663 35.517V33.2771L22.6796 33.2904Z" fill="white"/>
</svg>
