<svg width="26" height="29" viewBox="0 0 26 29" fill="none" xmlns="http://www.w3.org/2000/svg">
<g id="Group">
<g id="Group_2">
<path id="Vector" d="M16.4203 0.119019V0.401128C20.8283 0.401128 20.8283 2.16435 20.8283 8.72277V21.9462L6.88864 3.26932L6.6316 2.92531L4.5369 0.119041H0.129639V0.401152C1.04651 0.471673 2.06918 0.401151 4.32532 3.22232L4.39663 3.31636L5.11915 4.27398L5.84168 5.23238V12.04L6.15906 12.2469V5.65477L20.7578 24.9437H21.1457V8.72277C21.1457 2.16435 21.0046 0.401128 25.8703 0.401128V0.119019H16.4203Z" fill="white"/>
<path id="Vector_2" d="M0.940674 24.6261V24.9435H10.6024V24.6261C6.19432 24.6261 6.15904 22.5455 6.15904 16.3037V14.9206L5.84166 14.709V16.3037C5.84166 22.015 5.81346 24.1865 2.26348 24.5642C2.03386 24.5885 1.78937 24.6058 1.5292 24.6152C1.34114 24.623 1.14522 24.6261 0.940674 24.6261Z" fill="white"/>
<path id="Vector_3" d="M7.87604 3.15893C13.9768 3.15893 14.5763 5.31006 14.5763 10.3882H14.9289V4.46371C14.9289 4.46371 12.0725 2.84155 7.87604 2.84155C7.53437 2.84155 7.20915 2.85958 6.90039 2.89249L7.14489 3.22007C7.38938 3.18009 7.63388 3.15893 7.87604 3.15893Z" fill="white"/>
<path id="Vector_4" d="M1.52917 19.7324V24.3803C1.76818 24.3716 1.99231 24.356 2.20313 24.3348C1.91161 23.1633 1.81131 21.6547 1.81131 19.7324H1.52917Z" fill="white"/>
<path id="Vector_5" d="M11.8962 16.2768L6.39413 12.6822L6.15904 12.5286L5.84166 12.3209L5.69042 12.2222C5.66219 12.2042 5.63399 12.1854 5.60657 12.1673C1.35759 9.35558 2.4359 5.92709 4.78687 4.22421L4.32529 3.61218C2.62084 4.43659 1.88186 5.62774 1.88186 5.62774C-0.598405 10.0993 3.87704 12.9439 5.60657 14.2644C5.62302 14.2777 5.63948 14.2895 5.65515 14.302L5.84166 14.4266L6.15904 14.6382L6.39413 14.7949L11.8962 18.4632C15.881 21.1786 15.5989 27.9838 8.65182 27.9838C5.08149 27.9838 3.30258 27.2817 2.46955 25.1791H1.52916V26.5027C1.52916 26.5027 4.03294 28.3012 8.68706 28.3012C13.9415 28.3012 15.2815 25.4096 15.2815 25.4096C16.3395 23.4347 16.6921 19.4506 11.8962 16.2768Z" fill="white"/>
</g>
</g>
</svg>
