<svg width="60" height="60" viewBox="0 0 60 60" fill="none" xmlns="http://www.w3.org/2000/svg">
<rect width="60" height="60" rx="30" fill="#1B85FF"/>
<path d="M33.4203 15.9092V16.1913C37.8283 16.1913 37.8283 17.9545 37.8283 24.5129V37.7363L23.8886 19.0595L23.6316 18.7155L21.5369 15.9092H17.1296V16.1913C18.0465 16.2618 19.0692 16.1913 21.3253 19.0125L21.3966 19.1065L22.1192 20.0641L22.8417 21.0225V27.8302L23.1591 28.037V21.4449L37.7578 40.7338H38.1457V24.5129C38.1457 17.9545 38.0046 16.1913 42.8703 16.1913V15.9092H33.4203Z" fill="white"/>
<path d="M17.9407 40.4162V40.7336H27.6024V40.4162C23.1943 40.4162 23.159 38.3356 23.159 32.0938V30.7106L22.8417 30.499V32.0938C22.8417 37.805 22.8135 39.9765 19.2635 40.3543C19.0339 40.3786 18.7894 40.3958 18.5292 40.4052C18.3411 40.413 18.1452 40.4162 17.9407 40.4162Z" fill="white"/>
<path d="M24.876 18.9492C30.9768 18.9492 31.5763 21.1003 31.5763 26.1784H31.9289V20.254C31.9289 20.254 29.0725 18.6318 24.876 18.6318C24.5344 18.6318 24.2092 18.6499 23.9004 18.6828L24.1449 19.0104C24.3894 18.9704 24.6339 18.9492 24.876 18.9492Z" fill="white"/>
<path d="M18.5293 35.5225V40.1703C18.7683 40.1617 18.9924 40.146 19.2033 40.1249C18.9117 38.9533 18.8114 37.4448 18.8114 35.5225H18.5293Z" fill="white"/>
<path d="M28.8962 32.067L23.3941 28.4724L23.159 28.3188L22.8417 28.1111L22.6904 28.0124C22.6622 27.9943 22.634 27.9755 22.6066 27.9575C18.3576 25.1457 19.4359 21.7173 21.7869 20.0144L21.3253 19.4023C19.6208 20.2267 18.8819 21.4179 18.8819 21.4179C16.4016 25.8894 20.877 28.7341 22.6066 30.0546C22.623 30.0679 22.6395 30.0796 22.6551 30.0922L22.8417 30.2168L23.159 30.4284L23.3941 30.5851L28.8962 34.2534C32.881 36.9687 32.5989 43.774 25.6518 43.774C22.0815 43.774 20.3026 43.0718 19.4696 40.9693H18.5292V42.2929C18.5292 42.2929 21.0329 44.0914 25.6871 44.0914C30.9415 44.0914 32.2815 41.1997 32.2815 41.1997C33.3395 39.2249 33.6921 35.2408 28.8962 32.067Z" fill="white"/>
</svg>
