<svg width="20" height="21" viewBox="0 0 20 21" fill="none" xmlns="http://www.w3.org/2000/svg">
<path d="M13.0878 0.966066C12.1025 0.587313 11.0557 0.393561 10 0.394535C8.94457 0.393633 7.89803 0.587384 6.91287 0.966066C2.90498 2.26976 0 6.04029 0 10.4784C0 13.681 1.51309 16.5358 3.86232 18.3673C4.56351 18.9805 5.37789 19.4507 6.25959 19.7513C7.44787 20.2325 8.71798 20.4794 10 20.4784C15.5138 20.4784 20 15.9922 20 10.4784C20 6.04172 17.095 2.27119 13.0871 0.966783" fill="black"/>
<path d="M10 19.6268C4.95306 19.6268 0.846924 15.5214 0.846924 10.4744C0.846924 5.42742 4.95306 1.32129 10 1.32129C15.047 1.32129 19.1531 5.42742 19.1531 10.4744C19.1531 15.5214 15.047 19.6268 10 19.6268Z" fill="black"/>
<path d="M17.6106 9.23366C17.6106 13.4373 14.203 16.8443 10 16.8443C5.79636 16.8443 2.3894 13.4373 2.3894 9.23366C2.3894 5.03072 5.79636 1.62305 10 1.62305C14.2037 1.62305 17.6106 5.03072 17.6106 9.23366Z" fill="#DDE05B"/>
<path d="M9.99999 17.0393C5.64574 17.0393 2.10254 13.4968 2.10254 9.14257C2.10254 4.78832 5.64574 1.24512 9.99999 1.24512C14.3542 1.24512 17.8974 4.78761 17.8974 9.14257C17.8974 13.4968 14.3542 17.0393 9.99999 17.0393ZM9.99999 1.81737C5.96127 1.81737 2.6755 5.10313 2.6755 9.14257C2.6755 13.1813 5.96127 16.4663 9.99999 16.4663C14.0387 16.4663 17.3245 13.1813 17.3245 9.14257C17.3245 5.10385 14.0387 1.81737 9.99999 1.81737Z" fill="black"/>
<path d="M14.9022 14.0427C14.7284 14.8539 14.3966 15.6229 13.9257 16.3059C13.4547 16.9888 12.8539 17.5723 12.1574 18.0231C11.461 18.4738 10.6825 18.7829 9.8666 18.9329C9.05067 19.0828 8.2132 19.0705 7.40201 18.8968C6.59082 18.723 5.82179 18.3912 5.13884 17.9202C4.45588 17.4493 3.87238 16.8484 3.42163 16.152C2.97089 15.4555 2.66174 14.6771 2.51183 13.8612C2.36192 13.0452 2.37419 12.2078 2.54794 11.3966C2.89902 9.75839 3.8865 8.32678 5.29312 7.41666C5.98961 6.96602 6.76804 6.65698 7.58396 6.50717C8.39989 6.35737 9.23733 6.36974 10.0485 6.54358C10.8596 6.71742 11.6286 7.04932 12.3115 7.52034C12.9943 7.99136 13.5777 8.59227 14.0284 9.28876C14.479 9.98525 14.7881 10.7637 14.9379 11.5796C15.0877 12.3955 15.0753 13.233 14.9015 14.0441L14.9022 14.0427Z" fill="#9ED5D6"/>
<path d="M8.73863 19.3246C8.27395 19.3246 7.8064 19.2751 7.34171 19.1755C6.49299 18.9962 5.68824 18.6504 4.97407 18.158C4.25989 17.6657 3.65047 17.0365 3.18108 16.307C2.70774 15.5799 2.38339 14.766 2.22682 13.9126C2.07024 13.0592 2.08455 12.1832 2.26893 11.3354C3.03121 7.77567 6.5486 5.49958 10.109 6.26258C13.6687 7.02558 15.9448 10.543 15.1818 14.1027C15.0024 14.9515 14.6563 15.7563 14.1637 16.4705C13.6711 17.1847 13.0417 17.794 12.312 18.2633C11.2486 18.9552 10.0073 19.3239 8.73863 19.3246ZM8.72429 6.68782C5.94193 6.68782 3.43422 8.6283 2.82827 11.4558C2.66028 12.23 2.64749 13.0298 2.79065 13.809C2.9338 14.5882 3.23005 15.3312 3.66226 15.9951C4.09078 16.6615 4.64721 17.2362 5.29934 17.6861C5.95148 18.136 6.68636 18.4521 7.46147 18.6161C8.23571 18.7844 9.03565 18.7974 9.81495 18.6543C10.5942 18.5113 11.3374 18.2151 12.0014 17.7828C12.6679 17.3542 13.2427 16.7977 13.6926 16.1454C14.1425 15.4932 14.4586 14.7581 14.6225 13.9829C15.3188 10.7316 13.2406 7.51966 9.98854 6.82264C9.57305 6.73327 9.14928 6.68808 8.72429 6.68782Z" fill="black"/>
<path d="M18.1629 12.9851C18.1629 14.0247 17.7499 15.0217 17.0148 15.7567C16.2797 16.4918 15.2827 16.9048 14.2432 16.9048C13.2036 16.9048 12.2066 16.4918 11.4715 15.7567C10.7365 15.0217 10.3235 14.0247 10.3235 12.9851C10.3235 11.9455 10.7365 10.9486 11.4715 10.2135C12.2066 9.4784 13.2036 9.06543 14.2432 9.06543C15.2827 9.06543 16.2797 9.4784 17.0148 10.2135C17.7499 10.9486 18.1629 11.9455 18.1629 12.9851Z" fill="#FFE72D"/>
<path d="M14.243 17.1909C13.128 17.1896 12.059 16.746 11.2706 15.9576C10.4821 15.1691 10.0386 14.1001 10.0372 12.9851C10.0386 11.8701 10.4821 10.8011 11.2706 10.0126C12.059 9.22416 13.128 8.78063 14.243 8.7793C15.3581 8.78063 16.4271 9.22416 17.2155 10.0126C18.004 10.8011 18.4475 11.8701 18.4488 12.9851C18.4475 14.1001 18.004 15.1691 17.2155 15.9576C16.4271 16.746 15.3581 17.1896 14.243 17.1909ZM14.243 9.35226C13.2798 9.3534 12.3564 9.73649 11.6752 10.4175C10.9941 11.0985 10.6108 12.0219 10.6095 12.9851C10.6106 13.9484 10.9938 14.872 11.675 15.5532C12.3562 16.2343 13.2797 16.6175 14.243 16.6187C15.2064 16.6175 16.1299 16.2343 16.8111 15.5532C17.4923 14.872 17.8755 13.9484 17.8766 12.9851C17.8755 12.0218 17.4923 11.0982 16.8111 10.417C16.1299 9.73587 15.2064 9.3534 14.243 9.35226Z" fill="black"/>
</svg>
