<svg width="24" height="25" viewBox="0 0 24 25" fill="none" xmlns="http://www.w3.org/2000/svg">
<path d="M0 6.50007C0 3.18632 2.68633 0.5 6.00007 0.5H17.9999C21.3137 0.5 24 3.18632 24 6.50007V18.4999C24 21.8137 21.3137 24.5 17.9999 24.5H6.00007C2.68633 24.5 0 21.8137 0 18.4999V6.50007Z" fill="#11C76F"/>
<path fill-rule="evenodd" clip-rule="evenodd" d="M9.14069 8.42285H6.95359V10.3649H9.02138C10.333 10.3649 11.078 11.0015 11.078 12.1632C11.078 13.3547 10.333 14.0063 9.02138 14.0063H6.95359V10.3649H4.64551V18.8616H6.95359V15.9487H9.14069C11.7936 15.9487 13.3138 14.5091 13.3138 12.0815C13.3138 9.7731 11.7936 8.42285 9.14069 8.42285Z" fill="white"/>
<path fill-rule="evenodd" clip-rule="evenodd" d="M14.7192 10.7707H19.3546V6.13867H14.7192V10.7707ZM15.4927 9.99892H18.5831V6.911H15.4927V9.99892ZM17.8088 9.22715H16.2636V7.68305H17.8088V9.22715Z" fill="white"/>
</svg>
