<svg width="26" height="22" viewBox="0 0 26 22" fill="none" xmlns="http://www.w3.org/2000/svg">
<path d="M5.48047 15.7051C5.48047 15.9098 5.43066 16.0952 5.33105 16.2612C5.23145 16.4272 5.09587 16.5601 4.92432 16.6597C4.75277 16.7593 4.56462 16.8091 4.35986 16.8091C4.04997 16.8091 3.78711 16.7039 3.57129 16.4937C3.35547 16.2778 3.24756 16.015 3.24756 15.7051C3.24756 15.4007 3.35547 15.1379 3.57129 14.9165C3.78711 14.6951 4.04997 14.5845 4.35986 14.5845C4.66976 14.5845 4.93262 14.6951 5.14844 14.9165C5.36979 15.1379 5.48047 15.4007 5.48047 15.7051ZM5.48047 19.8472C5.48047 20.0519 5.43066 20.2373 5.33105 20.4033C5.23145 20.5749 5.09587 20.7104 4.92432 20.8101C4.75277 20.9097 4.56462 20.9595 4.35986 20.9595C4.15511 20.9595 3.96696 20.9097 3.79541 20.8101C3.62939 20.7104 3.49658 20.5749 3.39697 20.4033C3.29736 20.2373 3.24756 20.0519 3.24756 19.8472C3.24756 19.5373 3.35547 19.2716 3.57129 19.0503C3.78711 18.8289 4.04997 18.7183 4.35986 18.7183C4.66976 18.7183 4.93262 18.8289 5.14844 19.0503C5.36979 19.2716 5.48047 19.5373 5.48047 19.8472ZM22.937 15.7051C22.937 15.9043 22.8623 16.0731 22.7129 16.2114C22.5635 16.3442 22.3781 16.4106 22.1567 16.4106H7.65527C7.42839 16.4106 7.24023 16.3442 7.09082 16.2114C6.94141 16.0731 6.8667 15.9043 6.8667 15.7051C6.8667 15.5059 6.94141 15.3371 7.09082 15.1987C7.24023 15.0604 7.42839 14.9912 7.65527 14.9912H22.1567C22.3781 14.9912 22.5635 15.0604 22.7129 15.1987C22.8623 15.3371 22.937 15.5059 22.937 15.7051ZM22.937 19.8472C22.937 20.0464 22.8623 20.2124 22.7129 20.3452C22.5635 20.4836 22.3781 20.5527 22.1567 20.5527H7.65527C7.42839 20.5527 7.24023 20.4836 7.09082 20.3452C6.94141 20.2124 6.8667 20.0464 6.8667 19.8472C6.8667 19.6424 6.94141 19.4709 7.09082 19.3325C7.24023 19.1997 7.42839 19.1333 7.65527 19.1333H22.1567C22.3781 19.1333 22.5635 19.1997 22.7129 19.3325C22.8623 19.4709 22.937 19.6424 22.937 19.8472ZM5.92041 1.34473H20.3555C21.3903 1.34473 22.1318 1.58822 22.5801 2.0752C23.0339 2.55664 23.2607 3.29541 23.2607 4.2915V9.32178C23.2607 10.3179 23.0339 11.0594 22.5801 11.5464C22.1318 12.0334 21.3903 12.2769 20.3555 12.2769H5.92041C4.88558 12.2769 4.14128 12.0334 3.6875 11.5464C3.23926 11.0594 3.01514 10.3179 3.01514 9.32178V4.2915C3.01514 3.29541 3.23926 2.55664 3.6875 2.0752C4.14128 1.58822 4.88558 1.34473 5.92041 1.34473ZM4.48438 9.36328C4.48438 9.88346 4.59505 10.2708 4.81641 10.5254C5.03776 10.7744 5.40853 10.8989 5.92871 10.8989H20.3472C20.8674 10.8989 21.2381 10.7744 21.4595 10.5254C21.6808 10.2708 21.7915 9.88346 21.7915 9.36328V4.25C21.7915 3.72982 21.6808 3.34521 21.4595 3.09619C21.2381 2.84163 20.8674 2.71436 20.3472 2.71436H5.92871C5.40853 2.71436 5.03776 2.84163 4.81641 3.09619C4.59505 3.34521 4.48438 3.72982 4.48438 4.25V9.36328Z" fill="#007AFF"/>
</svg>
