<svg width="20" height="24" viewBox="0 0 20 24" fill="none" xmlns="http://www.w3.org/2000/svg">
<path d="M0.322754 13.7788C0.322754 12.744 0.480469 11.759 0.795898 10.8237C1.11133 9.88851 1.55404 9.03076 2.12402 8.25049C2.69954 7.46468 3.37744 6.78678 4.15771 6.2168C4.94352 5.64128 5.80404 5.1958 6.73926 4.88037C7.67448 4.56494 8.65951 4.40723 9.69434 4.40723C10.0928 4.40723 10.4774 4.42936 10.8481 4.47363C11.2189 4.5179 11.5565 4.57324 11.8608 4.63965L8.66504 1.43555C8.59863 1.35807 8.54883 1.27507 8.51562 1.18652C8.48242 1.09798 8.46582 1.00391 8.46582 0.904297C8.46582 0.69401 8.53223 0.516927 8.66504 0.373047C8.80339 0.229167 8.97493 0.157227 9.17969 0.157227C9.40658 0.157227 9.58643 0.231934 9.71924 0.381348L14.2266 4.97168C14.3981 5.14323 14.4839 5.33691 14.4839 5.55273C14.4839 5.65234 14.4645 5.75195 14.4258 5.85156C14.387 5.94564 14.3206 6.03971 14.2266 6.13379L9.71924 10.6826C9.56982 10.821 9.39274 10.8901 9.18799 10.8901C8.98324 10.8901 8.81169 10.821 8.67334 10.6826C8.53499 10.5443 8.46582 10.37 8.46582 10.1597C8.46582 10.0656 8.48242 9.97428 8.51562 9.88574C8.54883 9.79167 8.6014 9.70866 8.67334 9.63672L12.1929 6.12549C11.8442 6.03695 11.4569 5.97331 11.0308 5.93457C10.6047 5.8903 10.1592 5.86816 9.69434 5.86816C8.60417 5.86816 7.5804 6.07292 6.62305 6.48242C5.67122 6.89193 4.83285 7.45915 4.10791 8.18408C3.38298 8.90902 2.81576 9.75016 2.40625 10.7075C1.99674 11.6593 1.79199 12.6803 1.79199 13.7705C1.79199 14.8662 1.99674 15.8927 2.40625 16.8501C2.81576 17.8019 3.38298 18.6403 4.10791 19.3652C4.83285 20.0902 5.67122 20.6574 6.62305 21.0669C7.5804 21.4764 8.60417 21.6812 9.69434 21.6812C10.79 21.6812 11.8138 21.4764 12.7656 21.0669C13.723 20.6574 14.5641 20.0902 15.2891 19.3652C16.014 18.6403 16.5812 17.8019 16.9907 16.8501C17.4002 15.8927 17.605 14.8662 17.605 13.7705C17.605 13.5547 17.6686 13.3748 17.7959 13.231C17.9232 13.0871 18.0947 13.0151 18.3105 13.0151C18.5374 13.0151 18.7201 13.0871 18.8584 13.231C19.0023 13.3748 19.0742 13.5575 19.0742 13.7788C19.0742 14.8192 18.9165 15.807 18.6011 16.7422C18.2856 17.6774 17.8402 18.5352 17.2646 19.3154C16.6891 20.0957 16.0112 20.7736 15.231 21.3491C14.4507 21.9246 13.5929 22.3701 12.6577 22.6855C11.7225 23.001 10.7347 23.1587 9.69434 23.1587C8.65951 23.1587 7.67448 23.001 6.73926 22.6855C5.80404 22.3701 4.94352 21.9246 4.15771 21.3491C3.37744 20.7736 2.69954 20.0957 2.12402 19.3154C1.55404 18.5352 1.11133 17.6774 0.795898 16.7422C0.480469 15.807 0.322754 14.8192 0.322754 13.7788Z" fill="#007AFF"/>
</svg>
