<svg width="11" height="20" viewBox="0 0 11 20" fill="none" xmlns="http://www.w3.org/2000/svg">
<path d="M10.4746 10.0068C10.4746 10.123 10.4525 10.2337 10.4082 10.3389C10.3639 10.4385 10.2975 10.5298 10.209 10.6128L1.67578 18.8223C1.5153 18.9827 1.31885 19.063 1.08643 19.063C0.931478 19.063 0.790365 19.027 0.663086 18.9551C0.541341 18.8831 0.441732 18.7835 0.364258 18.6562C0.292318 18.5345 0.256348 18.3934 0.256348 18.2329C0.256348 18.0116 0.336589 17.8179 0.49707 17.6519L8.44922 10.0068L0.49707 2.35352C0.336589 2.1875 0.256348 1.99382 0.256348 1.77246C0.256348 1.61751 0.292318 1.47917 0.364258 1.35742C0.441732 1.23014 0.541341 1.13053 0.663086 1.05859C0.790365 0.986654 0.931478 0.950684 1.08643 0.950684C1.31885 0.950684 1.5153 1.03092 1.67578 1.19141L10.209 9.40088C10.2975 9.48389 10.3639 9.5752 10.4082 9.6748C10.4525 9.77441 10.4746 9.88509 10.4746 10.0068Z" fill="#737373"/>
</svg>
