<svg width="20" height="25" viewBox="0 0 20 25" fill="none" xmlns="http://www.w3.org/2000/svg">
<path d="M3.84082 24.3374C2.77279 24.3374 1.96761 24.069 1.42529 23.5322C0.882975 23.001 0.611816 22.2041 0.611816 21.1416V10.4917C0.611816 9.4292 0.882975 8.62956 1.42529 8.09277C1.96761 7.55599 2.77279 7.2876 3.84082 7.2876H7.40186V8.76514H3.87402C3.29297 8.76514 2.84749 8.91732 2.5376 9.22168C2.23324 9.52604 2.08105 9.97428 2.08105 10.5664V21.0586C2.08105 21.6562 2.23324 22.1073 2.5376 22.4116C2.84749 22.716 3.29297 22.8682 3.87402 22.8682H16.126C16.696 22.8682 17.1359 22.716 17.4458 22.4116C17.7612 22.1073 17.9189 21.6562 17.9189 21.0586V10.5664C17.9189 9.97428 17.7612 9.52604 17.4458 9.22168C17.1359 8.91732 16.696 8.76514 16.126 8.76514H12.5981V7.2876H16.1592C17.2327 7.2876 18.0379 7.55876 18.5747 8.10107C19.117 8.63786 19.3882 9.43473 19.3882 10.4917V21.1416C19.3882 22.1986 19.117 22.9954 18.5747 23.5322C18.0379 24.069 17.2327 24.3374 16.1592 24.3374H3.84082ZM10 16.0366C9.80078 16.0366 9.62923 15.9674 9.48535 15.8291C9.34147 15.6852 9.26953 15.5164 9.26953 15.3228V4.18311L9.32764 2.60596L8.67188 3.29492L6.8623 5.1875C6.72949 5.33691 6.56071 5.41162 6.35596 5.41162C6.16781 5.41162 6.01009 5.35075 5.88281 5.229C5.76107 5.10726 5.7002 4.95231 5.7002 4.76416C5.7002 4.66455 5.7168 4.57878 5.75 4.50684C5.78874 4.42936 5.84408 4.35465 5.91602 4.28271L9.46875 0.82959C9.56283 0.735514 9.65137 0.671875 9.73438 0.638672C9.81738 0.605469 9.90592 0.588867 10 0.588867C10.0941 0.588867 10.1826 0.605469 10.2656 0.638672C10.3486 0.671875 10.4372 0.735514 10.5312 0.82959L14.084 4.28271C14.1504 4.35465 14.203 4.42936 14.2417 4.50684C14.2804 4.57878 14.2998 4.66455 14.2998 4.76416C14.2998 4.95231 14.2334 5.10726 14.1006 5.229C13.9733 5.35075 13.8156 5.41162 13.6274 5.41162C13.4282 5.41162 13.2622 5.33691 13.1294 5.1875L11.3281 3.29492L10.6724 2.61426L10.7305 4.18311V15.3228C10.7305 15.5164 10.6585 15.6852 10.5146 15.8291C10.3708 15.9674 10.1992 16.0366 10 16.0366Z" fill="#007AFF"/>
</svg>
