<svg width="11" height="20" viewBox="0 0 11 20" fill="none" xmlns="http://www.w3.org/2000/svg">
<path d="M0.525391 10.0068C0.525391 9.88509 0.547526 9.77441 0.591797 9.6748C0.636068 9.5752 0.702474 9.48389 0.791016 9.40088L9.32422 1.19141C9.4847 1.03092 9.68115 0.950684 9.91357 0.950684C10.0685 0.950684 10.2069 0.986654 10.3286 1.05859C10.4559 1.13053 10.5555 1.23014 10.6274 1.35742C10.7049 1.47917 10.7437 1.61751 10.7437 1.77246C10.7437 1.99382 10.6634 2.1875 10.5029 2.35352L2.55078 10.0068L10.5029 17.6519C10.6634 17.8179 10.7437 18.0116 10.7437 18.2329C10.7437 18.3934 10.7049 18.5345 10.6274 18.6562C10.5555 18.7835 10.4559 18.8831 10.3286 18.9551C10.2069 19.027 10.0685 19.063 9.91357 19.063C9.68115 19.063 9.4847 18.9827 9.32422 18.8223L0.791016 10.6128C0.702474 10.5298 0.636068 10.4385 0.591797 10.3389C0.547526 10.2337 0.525391 10.123 0.525391 10.0068Z" fill="#737373"/>
</svg>
