<svg width="22" height="22" viewBox="0 0 22 22" fill="none" xmlns="http://www.w3.org/2000/svg">
<path d="M10.9917 21.8145C9.80192 21.8145 8.66471 21.6318 7.58008 21.2666C6.50098 20.9069 5.51042 20.395 4.6084 19.731C3.71191 19.0669 2.93164 18.2839 2.26758 17.3818C1.60352 16.4854 1.08887 15.4976 0.723633 14.4185C0.363932 13.3338 0.184082 12.1966 0.184082 11.0068C0.184082 9.81152 0.363932 8.67432 0.723633 7.59521C1.08887 6.51611 1.60352 5.52555 2.26758 4.62354C2.93164 3.72152 3.71191 2.94124 4.6084 2.28271C5.51042 1.61865 6.50098 1.104 7.58008 0.73877C8.66471 0.373535 9.80192 0.190918 10.9917 0.190918C12.187 0.190918 13.3242 0.373535 14.4033 0.73877C15.4824 1.104 16.473 1.61865 17.375 2.28271C18.277 2.94124 19.0573 3.72152 19.7158 4.62354C20.3799 5.52555 20.8945 6.51611 21.2598 7.59521C21.625 8.67432 21.8076 9.81152 21.8076 11.0068C21.8076 12.1966 21.625 13.3338 21.2598 14.4185C20.8945 15.4976 20.3799 16.4854 19.7158 17.3818C19.0573 18.2839 18.277 19.0669 17.375 19.731C16.473 20.395 15.4824 20.9069 14.4033 21.2666C13.3242 21.6318 12.187 21.8145 10.9917 21.8145ZM10.9917 20.2705C12.0155 20.2705 12.9894 20.1128 13.9136 19.7974C14.8433 19.4875 15.6927 19.0475 16.4619 18.4775C17.2367 17.9131 17.9062 17.2463 18.4707 16.4771C19.0407 15.7023 19.4806 14.8529 19.7905 13.9287C20.1004 13.0046 20.2554 12.0306 20.2554 11.0068C20.2554 9.98307 20.1004 9.00911 19.7905 8.08496C19.4806 7.15527 19.0407 6.30583 18.4707 5.53662C17.9062 4.76188 17.2367 4.09229 16.4619 3.52783C15.6927 2.95785 14.8433 2.5179 13.9136 2.20801C12.9894 1.89811 12.0155 1.74316 10.9917 1.74316C9.96794 1.74316 8.99398 1.89811 8.06982 2.20801C7.14567 2.5179 6.29622 2.95785 5.52148 3.52783C4.75228 4.09229 4.08268 4.76188 3.5127 5.53662C2.94824 6.30583 2.5083 7.15527 2.19287 8.08496C1.88298 9.00911 1.72803 9.98307 1.72803 11.0068C1.72803 12.0306 1.88298 13.0046 2.19287 13.9287C2.5083 14.8529 2.94824 15.7023 3.5127 16.4771C4.08268 17.2463 4.75228 17.9131 5.52148 18.4775C6.29622 19.0475 7.14567 19.4875 8.06982 19.7974C8.99398 20.1128 9.96794 20.2705 10.9917 20.2705ZM6.38477 16.4355C6.16341 16.5407 5.96973 16.5656 5.80371 16.5103C5.64323 16.4494 5.53532 16.3359 5.47998 16.1699C5.42464 16.0039 5.44954 15.813 5.55469 15.5972L8.65088 9.36328C8.73942 9.1862 8.83903 9.04232 8.94971 8.93164C9.06592 8.82096 9.2015 8.72965 9.35645 8.65771L15.5737 5.56982C15.8062 5.45915 16.0054 5.43148 16.1714 5.48682C16.3374 5.54215 16.4453 5.65283 16.4951 5.81885C16.5505 5.98486 16.5228 6.18132 16.4121 6.4082L13.3325 12.6338C13.172 12.9492 12.9341 13.1844 12.6187 13.3394L6.38477 16.4355ZM10.9917 12.3184C11.3514 12.3184 11.6585 12.1911 11.9131 11.9365C12.1732 11.682 12.3032 11.3721 12.3032 11.0068C12.3032 10.6471 12.1732 10.34 11.9131 10.0854C11.6585 9.82536 11.3514 9.69531 10.9917 9.69531C10.6265 9.69531 10.3166 9.82536 10.062 10.0854C9.80745 10.34 9.68018 10.6471 9.68018 11.0068C9.68018 11.3721 9.80745 11.682 10.062 11.9365C10.3166 12.1911 10.6265 12.3184 10.9917 12.3184Z" fill="#007AFF"/>
</svg>
