<svg width="3" height="4" viewBox="0 0 3 4" fill="none" xmlns="http://www.w3.org/2000/svg">
<path d="M1.49449 3.11C1.24783 3.11 1.03116 3.06 0.844492 2.96C0.664492 2.85333 0.524492 2.71 0.424492 2.53C0.324492 2.35 0.274492 2.14667 0.274492 1.92C0.274492 1.68667 0.324492 1.48 0.424492 1.3C0.524492 1.12 0.664492 0.98 0.844492 0.88C1.03116 0.773333 1.24783 0.72 1.49449 0.72C1.74783 0.72 1.96449 0.773333 2.14449 0.88C2.33116 0.98 2.47449 1.12 2.57449 1.3C2.67449 1.48 2.72449 1.68667 2.72449 1.92C2.72449 2.14667 2.67449 2.35 2.57449 2.53C2.47449 2.71 2.33116 2.85333 2.14449 2.96C1.96449 3.06 1.74783 3.11 1.49449 3.11Z" fill="#4A4A4A"/>
</svg>
