<svg width="76" height="72" viewBox="0 0 76 72" fill="none" xmlns="http://www.w3.org/2000/svg">
<path d="M41.805 66.3316C60.0003 66.3316 74.6971 51.5783 74.6313 33.3792C74.5654 15.1801 59.7619 0.426758 41.5666 0.426758C23.3713 0.426758 8.67446 15.1801 8.7403 33.3792C8.80614 51.5783 23.6097 66.3316 41.805 66.3316Z" fill="#141413"/>
<path d="M37.3638 37.4214C37.3638 42.2922 41.0827 47.0779 43.0737 48.5591L43.6714 49.0034L42.7612 50.1675L42.1655 49.7222C39.6219 47.8339 35.8618 42.6189 35.8618 37.4214V36.689H37.3638V37.4214ZM41.8677 33.0269C41.8677 39.7874 44.9793 44.8798 50.4058 46.9966L51.1021 47.2691L50.5454 48.6284L49.8481 48.354C43.8213 46.0042 40.3668 40.4172 40.3667 33.0269V32.2945H41.8677V33.0269ZM36.6831 21.6343C39.491 20.2294 42.7424 20.2294 45.5503 21.6343C46.8924 22.3067 48.097 23.2662 49.1284 24.4878C50.1508 25.7007 50.9523 27.107 51.5093 28.6714C52.0874 30.2828 52.3784 31.9955 52.3784 33.7593H50.8774C50.8774 32.1597 50.6127 30.6113 50.0933 29.1538C49.5933 27.7534 48.8786 26.4972 47.9702 25.4175C47.0694 24.3512 46.0257 23.5166 44.8667 22.938C42.4868 21.7456 39.7495 21.7456 37.3696 22.938C36.2105 23.5181 35.165 24.3526 34.2642 25.4204C33.3557 26.4972 32.6411 27.7529 32.1411 29.1519C31.6216 30.611 31.3569 32.1596 31.3569 33.7593C31.357 40.2781 34.9672 44.8882 35.6909 45.7466L34.5317 46.6753C33.751 45.751 29.856 40.7777 29.856 33.7593C29.856 31.9956 30.1476 30.2832 30.7241 28.6704C31.2827 27.1074 32.0824 25.7003 33.105 24.4888C34.1379 23.2657 35.3409 22.3067 36.6831 21.6343ZM34.9448 17.5777C38.8576 15.7233 43.3783 15.7243 47.2896 17.5757C49.1664 18.4664 50.8529 19.7427 52.3003 21.3658C53.7388 22.9816 54.8684 24.8598 55.6567 26.9488C56.4705 29.1065 56.8833 31.3994 56.8833 33.7593C56.8832 38.4937 53.4703 41.6742 50.2827 41.6743C48.7573 41.6743 47.3924 40.9681 46.439 39.6851C45.3984 38.2861 44.8706 36.2921 44.8706 33.7593C44.8706 32.9362 44.7616 32.142 44.5454 31.3921C44.3397 30.6832 44.048 30.0474 43.6772 29.5054C43.3214 28.9854 42.9157 28.5801 42.4683 28.3033C41.6006 27.7674 40.6337 27.766 39.7661 28.3033C39.3187 28.5801 38.913 28.9839 38.5571 29.5054C38.1863 30.0474 37.8946 30.6832 37.689 31.3921C37.4728 32.1421 37.3638 32.9362 37.3638 33.7593H35.8618C35.8618 32.8043 35.9899 31.8726 36.2437 30.9937C36.4929 30.1352 36.8501 29.3614 37.3081 28.6919C37.7796 27.9991 38.3363 27.4522 38.9624 27.0669C40.3182 26.2291 41.9172 26.2311 43.2729 27.0659C43.8991 27.4542 44.4567 28.0005 44.9282 28.6919C45.3862 29.3614 45.743 30.1353 45.9907 30.9937C46.2444 31.8726 46.3726 32.8043 46.3726 33.7593C46.3726 35.9448 46.8155 37.6968 47.6548 38.8247C48.329 39.7301 49.2377 40.2095 50.2827 40.2095C52.7451 40.2093 55.3813 37.6162 55.3813 33.7593C55.3813 31.5722 54.9998 29.4503 54.2476 27.4536C53.5223 25.5319 52.4867 23.8076 51.1685 22.3267C49.8546 20.853 48.327 19.6988 46.6333 18.8931C43.1348 17.2364 39.1 17.2344 35.6001 18.8941C33.9065 19.6983 32.3812 20.8531 31.0659 22.3267L29.9341 21.3658C31.3815 19.7427 33.068 18.4668 34.9448 17.5777ZM28.3081 26.688C27.6009 28.5646 26.853 32.952 26.853 35.2242H25.3511C25.3511 32.7793 26.1317 28.2161 26.8989 26.1812L28.3081 26.688Z" fill="white"/>
<path d="M23.0511 48.5143L14.7378 43.7133L13.767 43.1522L12.4407 42.3867L11.1144 43.1522L10.1435 43.7133L1.83021 48.5143L0.503906 49.2797C0.503906 49.7838 0.503906 50.2959 0.503906 50.8119C0.503906 54.2664 0.503906 57.8654 0.503906 59.6325C0.503906 67.592 12.4407 71.5718 12.4407 71.5718C12.4407 71.5718 24.3774 67.592 24.3774 59.6325C24.3774 56.442 24.3774 53.42 24.3774 50.8119C24.3774 50.2826 24.3774 49.7719 24.3774 49.2797L23.0511 48.5143Z" fill="url(#paint0_linear_197_8200)"/>
<path d="M23.157 59.5329C23.157 65.6578 14.5638 69.2926 12.5452 70.0607C10.5265 69.2953 1.93604 65.6737 1.93604 59.5329V49.9469L12.5465 43.8193L23.157 49.9469V59.5329Z" fill="#FDFDFD" stroke="white" stroke-width="0.480718"/>
<path d="M10.7914 57.22C12.2891 57.22 13.5033 56.0059 13.5033 54.5082C13.5033 53.0105 12.2891 51.7964 10.7914 51.7964C9.29372 51.7964 8.07959 53.0105 8.07959 54.5082C8.07959 56.0059 9.29372 57.22 10.7914 57.22Z" fill="#141413"/>
<path d="M18.0236 57.2201C18.0249 56.8423 17.9247 56.4711 17.7336 56.1453C17.5424 55.8195 17.2672 55.551 16.9368 55.3679C16.6064 55.1848 16.2328 55.0937 15.8552 55.1043C15.4776 55.1149 15.1097 55.2268 14.7901 55.4281C14.4705 55.6295 14.2108 55.913 14.0382 56.2491C13.8656 56.5851 13.7864 56.9613 13.8089 57.3384C13.8314 57.7155 13.9548 58.0797 14.1662 58.3928C14.3775 58.7059 14.6691 58.9565 15.0104 59.1184V62.3425L15.9144 63.2464L17.4209 61.7398L16.517 60.8359L17.4209 59.9319L16.6737 59.1847C17.0706 59.0315 17.4118 58.762 17.6527 58.4114C17.8937 58.0608 18.0229 57.6455 18.0236 57.2201ZM15.9144 57.2201C15.7952 57.2201 15.6787 57.1848 15.5796 57.1185C15.4805 57.0523 15.4032 56.9582 15.3576 56.8481C15.312 56.738 15.3001 56.6168 15.3233 56.4999C15.3466 56.383 15.404 56.2756 15.4882 56.1914C15.5725 56.1071 15.6799 56.0497 15.7968 56.0264C15.9137 56.0032 16.0349 56.0151 16.145 56.0607C16.2551 56.1063 16.3492 56.1836 16.4154 56.2827C16.4817 56.3818 16.517 56.4983 16.517 56.6175C16.517 56.7773 16.4535 56.9306 16.3405 57.0436C16.2275 57.1566 16.0742 57.2201 15.9144 57.2201Z" fill="#141413"/>
<path d="M13.1665 58.4374C12.7038 58.2311 12.2028 58.1243 11.6961 58.124H9.88824C8.92927 58.124 8.00959 58.505 7.3315 59.1831C6.65341 59.8611 6.27246 60.7808 6.27246 61.7398V62.9451H14.1066V59.6246C13.7002 59.3124 13.3773 58.9045 13.1665 58.4374V58.4374Z" fill="#141413"/>
<defs>
<linearGradient id="paint0_linear_197_8200" x1="12.4407" y1="42.3867" x2="12.4407" y2="71.5718" gradientUnits="userSpaceOnUse">
<stop stop-color="#DDDDDD"/>
<stop offset="1"/>
</linearGradient>
</defs>
</svg>
