<svg width="164" height="19" viewBox="0 0 164 19" fill="none" xmlns="http://www.w3.org/2000/svg">
<path fill-rule="evenodd" clip-rule="evenodd" d="M18.7669 2.16016C19.0888 1.85018 19.5992 1.85246 19.9182 2.16529L25.7003 9.1876C26.1036 9.58297 26.0996 10.2332 25.6914 10.6236L20.0194 17.7019C19.8797 17.8355 19.6937 17.9102 19.5002 17.9102L14.7377 17.9102C14.0665 17.9102 13.7325 17.0974 14.2103 16.6264L20.0221 9.91016L14.7377 3.41016H12.6179L17.6718 9.18791C18.0842 9.58149 18.0845 10.2392 17.6726 10.6332L11.0322 17.7019C10.8925 17.8355 10.7064 17.9102 10.5129 17.9102H2.99943C1.34299 17.9102 1.88308e-06 16.5677 -0.000252643 14.9112C-0.000764897 11.5775 -0.000329022 8.24375 -9.46675e-06 4.91002C0.000149346 3.25322 1.34328 1.91016 3.00008 1.91016H5.98439C6.39905 1.91016 6.73521 2.24594 6.73521 2.66016C6.73521 3.07437 6.39905 3.41016 5.98439 3.41016H3.50182C2.39725 3.41016 1.50182 4.30559 1.50182 5.41016C1.50182 8.41016 1.50182 11.4102 1.50182 14.4102C1.50182 15.5147 2.39725 16.4102 3.50182 16.4102H9.95729L16.0177 9.91016L10.2059 3.19393C9.72817 2.72289 10.0621 1.91016 10.7334 1.91016H15.3752C15.5687 1.91016 15.7547 1.98477 15.8944 2.11844L21.677 9.18708C22.0889 9.58112 22.0886 10.2388 21.6762 10.6324L16.6222 16.4102H18.8752L24.0265 9.91016L18.7669 3.41016C18.4373 3.08445 18.4331 2.4816 18.7669 2.16016Z" fill="#141413"/>
<rect x="32" y="1.91016" width="1" height="16" rx="0.5" fill="#141413"/>
<rect x="48.4854" y="3.22754" width="8.03315" height="13.3635" fill="#FF5F00"/>
<path d="M49.3125 9.91026C49.3105 7.30296 50.4857 4.83951 52.4994 3.22971C49.0784 0.49141 44.1658 0.890268 41.2139 4.14598C38.262 7.4017 38.262 12.4212 41.2139 15.6769C44.1658 18.9326 49.0784 19.3315 52.4994 16.5932C50.485 14.9829 49.3098 12.5184 49.3125 9.91026Z" fill="#EB001B"/>
<path d="M65.0473 15.2708V14.985H65.1622V14.9373H64.8865V14.985H65.0014V15.2708H65.0473Z" fill="#F79E1B"/>
<path d="M65.5764 14.9373H65.4844L65.3925 15.1755L65.3006 14.9373H65.2087V15.2708H65.2776V15.0088L65.354 15.2232H65.4385L65.5124 15.0088V15.2708H65.5764V14.9373Z" fill="#F79E1B"/>
<path d="M65.9996 9.91062C65.9996 13.1643 64.1755 16.1324 61.3021 17.5543C58.4287 18.9761 55.0104 18.6022 52.499 16.5912C54.5119 14.98 55.6871 12.5169 55.6871 9.90944C55.6871 7.30199 54.5119 4.83887 52.499 3.22771C55.0104 1.21672 58.4287 0.84274 61.3021 2.2646C64.1755 3.68646 65.9996 6.65453 65.9996 9.90826V9.91062Z" fill="#F79E1B"/>
<path fill-rule="evenodd" clip-rule="evenodd" d="M97.0035 11.7703C97.0103 10.0896 95.5798 9.35925 94.4357 8.77507C93.6678 8.383 93.0288 8.05677 93.0399 7.55324C93.048 7.17159 93.4223 6.76629 94.239 6.6622C94.6441 6.61016 95.7606 6.57073 97.0278 7.13847L97.5237 4.8817C96.8431 4.64041 95.968 4.41016 94.8775 4.41016C92.0822 4.41016 90.115 5.85632 90.0971 7.92858C90.0793 9.45991 91.5021 10.3147 92.5732 10.8241C93.6751 11.3461 94.0446 11.6804 94.0397 12.1456C94.0332 12.86 93.1614 13.1739 92.3479 13.1865C90.9692 13.2079 90.1519 12.8368 89.504 12.5426L89.4425 12.5147L88.9304 14.8456C89.5916 15.1405 90.8101 15.3975 92.0757 15.4102C95.0508 15.4102 96.9938 13.9813 97.0035 11.7703ZM85.2893 4.60414L80.7067 15.2446H77.7169L75.4629 6.7521C75.3252 6.22851 75.2069 6.03769 74.7904 5.8169C74.1114 5.45733 72.9885 5.12142 72 4.91167L72.0681 4.60256H76.8808C77.4933 4.60256 78.0459 4.99998 78.1852 5.68758L79.3763 11.846L82.319 4.60414H85.2893ZM107 15.2448H104.385L104.044 13.6551H100.416L99.8263 15.2448H96.856L101.098 5.38498C101.303 4.91186 101.759 4.60433 102.302 4.60433H104.717L107 15.2448ZM101.23 11.4738L102.719 7.47749L103.576 11.4738H101.23ZM86.9923 15.2448L89.3306 4.60433H86.5046L84.1647 15.2448H86.9923Z" fill="#1A1F71"/>
<rect x="113" y="0.910156" width="18" height="18" fill="white"/>
<path d="M131 3.80957H128.348L127.75 5.48438L127.155 3.80957H123.733V6.03125L122.747 3.80957H119.982L117.116 10.2959H119.427V16.0576H126.587L127.71 14.8213L128.828 16.0576H131V18.9102H113V0.910156H131V3.80957ZM124.48 11.4648H121.566V12.249H124.408V13.3867H121.566V14.1709H124.48V15.3369H120.191V10.2988H124.48V11.4648ZM127.748 11.9111L129.223 10.2988H131L128.611 12.8037L131 15.3369H129.194L127.719 13.71L126.236 15.3369H124.48L126.855 12.8184L124.48 10.2988H126.287L127.748 11.9111ZM131 14.2773L129.617 12.8057L131 11.3467V14.2773ZM124.48 9.56836H122.933L122.509 8.56055H120.191L119.773 9.56836H118.263L120.486 4.53125H122.257L124.48 9.56836ZM127.754 7.66797L128.884 4.53125H131V9.56836H129.64V6.03516L128.345 9.56836H127.136L125.84 6.04199V9.56836H124.48V4.53125H126.632L127.754 7.66797ZM120.666 7.43066H122.033L121.35 5.7832L120.666 7.43066Z" fill="#006FCF"/>
<rect width="27" height="17" transform="translate(137 1.41016)" fill="white"/>
<rect x="137" y="1.41016" width="26.8" height="16.79" fill="white"/>
<path d="M163.613 10.7371C163.613 10.7371 156.342 15.7621 143.021 18.0096H163.613V10.7371Z" fill="#F78D1E"/>
<path d="M163.707 1.41309H163.805V18.2002H137V1.41309L163.707 1.41016V1.41309ZM137.194 1.60059V18.0068H163.61V1.60059H137.194Z" fill="black"/>
<path d="M139.345 6.54761C140.572 6.54761 141.425 7.32831 141.425 8.44897C141.425 9.00794 141.164 9.54969 140.722 9.90698C140.351 10.2095 139.928 10.3455 139.339 10.3455H138.236V6.54761H139.345ZM138.989 7.19019V9.70288H139.192C139.68 9.70288 139.99 9.61049 140.228 9.40015C140.49 9.17252 140.646 8.80904 140.646 8.44312C140.646 8.0803 140.49 7.72632 140.228 7.49878C139.978 7.27691 139.68 7.19019 139.192 7.19019H138.989Z" fill="black"/>
<rect x="141.773" y="6.54761" width="0.75625" height="3.79763" fill="black"/>
<path d="M144.38 8.00554C143.927 7.8413 143.791 7.73181 143.791 7.52723C143.791 7.28808 144.03 7.10655 144.356 7.10655C144.583 7.10655 144.768 7.19876 144.966 7.41486L145.363 6.90774C145.036 6.62825 144.648 6.48706 144.224 6.48706C143.538 6.48706 143.015 6.95384 143.015 7.57621C143.015 8.10062 143.259 8.36859 143.968 8.61638C144.265 8.72011 144.415 8.78638 144.492 8.83248C144.642 8.93045 144.718 9.06587 144.718 9.22435C144.718 9.53265 144.468 9.76028 144.13 9.76028C143.768 9.76028 143.479 9.58452 143.303 9.25316L142.814 9.71418C143.162 10.2155 143.582 10.4374 144.156 10.4374C144.942 10.4374 145.495 9.92452 145.495 9.18977C145.495 8.58757 145.242 8.31384 144.38 8.00554Z" fill="black"/>
<path d="M145.736 8.44927C145.736 9.56723 146.631 10.4316 147.784 10.4316C148.111 10.4316 148.388 10.3683 148.732 10.2098V9.33673C148.429 9.63351 148.161 9.75164 147.82 9.75164C147.058 9.75164 146.516 9.20995 146.516 8.44062C146.516 7.71164 147.075 7.13537 147.784 7.13537C148.146 7.13537 148.417 7.26215 148.732 7.56181V6.69164C148.399 6.5274 148.126 6.45825 147.802 6.45825C146.654 6.46113 145.736 7.34571 145.736 8.44927Z" fill="black"/>
<path d="M154.729 9.09761L153.697 6.54761H152.87L154.515 10.4432H154.924L156.598 6.54761H155.777L154.729 9.09761Z" fill="black"/>
<path d="M156.939 10.3452H159.084V9.70269H157.695V8.67693H159.034V8.03439H157.695V7.19015H159.084V6.54761H156.939V10.3452Z" fill="black"/>
<path d="M160.708 6.54761C161.582 6.54761 162.083 6.95701 162.083 7.6687C162.082 8.2506 161.768 8.63061 161.2 8.74585L162.421 10.3455H161.492L160.444 8.82104H160.343V10.3455H159.587V6.54761H160.708ZM160.343 7.14722V8.29663H160.564C161.047 8.29663 161.303 8.08908 161.303 7.70874C161.303 7.33996 161.046 7.14722 160.576 7.14722H160.343Z" fill="black"/>
<path d="M162.617 6.56982C162.798 6.56995 162.901 6.64178 162.901 6.76807C162.901 6.85571 162.844 6.92183 162.74 6.94385L162.986 7.20752H162.766L162.559 6.96045V7.20752H162.377V6.56982H162.617ZM162.521 6.67432V6.86475H162.554C162.644 6.86475 162.69 6.83279 162.69 6.76904C162.69 6.7056 162.644 6.67432 162.554 6.67432H162.521Z" fill="black"/>
<path d="M162.619 6.39722C162.914 6.39737 163.156 6.63926 163.156 6.92847C163.156 7.21767 162.914 7.45956 162.619 7.45972C162.318 7.45972 162.076 7.22302 162.076 6.92847C162.076 6.63391 162.318 6.39722 162.619 6.39722ZM162.619 6.49194C162.377 6.49194 162.183 6.68651 162.183 6.92847C162.183 7.17042 162.382 7.36499 162.619 7.36499C162.855 7.36484 163.048 7.17033 163.048 6.92847C163.048 6.69187 162.855 6.4921 162.619 6.49194Z" fill="black"/>
<path d="M153.096 8.44927C153.096 9.56436 152.172 10.4691 151.033 10.4691C149.895 10.4691 148.971 9.56436 148.971 8.44927C148.971 7.33419 149.895 6.42944 151.033 6.42944C152.172 6.42944 153.096 7.33419 153.096 8.44927Z" fill="#F78D1E"/>
</svg>
