<svg width="72" height="72" viewBox="0 0 72 72" fill="none" xmlns="http://www.w3.org/2000/svg">
<path fill-rule="evenodd" clip-rule="evenodd" d="M34.9569 70.4756C33.3036 70.4735 31.7015 70.2888 30.0563 70.0109C25.6239 69.2377 21.4895 67.6911 17.7032 65.2345C9.31789 59.8374 4.07534 52.1855 2.1132 42.2825C1.67266 40.0613 1.50879 37.8021 1.57436 35.5496C1.79076 26.5383 4.95776 18.717 11.1186 12.1792C16.4725 6.53795 22.9999 3.18532 30.6142 1.9347C32.7371 1.58243 34.8547 1.41403 36.9628 1.56741C36.8625 5.01512 36.7635 8.41686 36.6631 11.8646C36.57 11.9079 36.4769 11.9512 36.3824 12.0404C35.118 12.8778 33.8523 13.7611 32.6311 14.6917C29.8595 16.8194 27.2215 19.0891 24.9831 21.8304C21.9838 25.4698 19.9374 29.505 19.5215 34.3238C19.317 36.6182 19.5267 38.8787 20.198 41.0607C21.8311 46.4912 27.2216 52.2151 35.0186 52.5801C35.4775 52.5935 35.5666 52.6881 35.5518 53.1938C35.4377 55.5369 35.3012 60.2257 35.3012 60.2257C35.3012 60.2257 35.2932 60.5016 35.2892 60.6395C35.1483 63.902 35.0533 67.1658 34.9569 70.4756Z" fill="#2B8EFF"/>
<path fill-rule="evenodd" clip-rule="evenodd" d="M36.6733 11.818C36.6733 11.818 36.8727 4.96857 36.973 1.52087C38.8558 1.52966 40.686 1.76697 42.5135 2.09622C45.939 2.74804 49.2135 3.85555 52.287 5.55531C58.6596 9.09943 63.614 14.0285 66.8655 20.6564C68.729 24.4833 69.8974 28.52 70.2804 32.7179C70.7338 37.654 70.1331 42.5134 68.5268 47.2055C66.6724 52.5345 63.6895 57.1866 59.5808 61.0697C54.5762 65.7549 48.7033 68.7125 41.9622 69.9425C39.6544 70.3354 37.3061 70.5431 34.9671 70.429C35.0635 67.1192 35.1585 63.8554 35.2548 60.5456C35.2588 60.4077 35.2655 60.1778 35.2655 60.1778C35.2655 60.1778 35.4059 60.0899 35.4531 60.0453C39.106 57.6212 42.582 54.9618 45.6151 51.7375C47.6053 49.6331 49.3242 47.3827 50.549 44.7499C52.2648 41.0271 53.0197 37.1844 52.3128 33.0691C51.0612 25.5793 44.5693 19.8233 36.9114 19.4163C36.4066 19.4016 36.4645 18.9892 36.4645 18.9892L36.6733 11.818Z" fill="#0561E2"/>
</svg>
