<svg width="10" height="14" viewBox="0 0 10 14" fill="none" xmlns="http://www.w3.org/2000/svg">
<path d="M1.83838 13.7773C1.30973 13.7773 0.908691 13.6338 0.635254 13.3467C0.361816 13.0641 0.225098 12.6357 0.225098 12.0615V7.11914C0.225098 6.54948 0.361816 6.12337 0.635254 5.84082C0.908691 5.55827 1.30973 5.41699 1.83838 5.41699H8.35303C8.88623 5.41699 9.28727 5.55827 9.55615 5.84082C9.82959 6.12337 9.96631 6.54948 9.96631 7.11914V12.0615C9.96631 12.6357 9.82959 13.0641 9.55615 13.3467C9.28727 13.6338 8.88623 13.7773 8.35303 13.7773H1.83838ZM1.51709 6.02539V3.83105C1.51709 3.00163 1.68115 2.30208 2.00928 1.73242C2.34196 1.16276 2.77946 0.732096 3.32178 0.44043C3.8641 0.144206 4.45426 -0.00390625 5.09229 -0.00390625C5.73486 -0.00390625 6.32731 0.144206 6.86963 0.44043C7.4165 0.732096 7.854 1.16276 8.18213 1.73242C8.51481 2.30208 8.68115 3.00163 8.68115 3.83105V6.02539H7.25928V3.72168C7.25928 3.22038 7.15902 2.79427 6.9585 2.44336C6.76253 2.09245 6.50049 1.82585 6.17236 1.64355C5.8488 1.46126 5.48877 1.37012 5.09229 1.37012C4.70036 1.37012 4.34033 1.46126 4.01221 1.64355C3.68864 1.82585 3.42887 2.09245 3.23291 2.44336C3.0415 2.79427 2.9458 3.22038 2.9458 3.72168V6.02539H1.51709Z" fill="black"/>
</svg>
