<svg width="26" height="30" viewBox="0 0 26 30" fill="none" xmlns="http://www.w3.org/2000/svg">
<path d="M12.8198 9.75581C11.4766 9.74061 10.287 10.6202 9.90789 11.9088C9.52873 13.1975 10.0524 14.5811 11.1898 15.2958L10.9798 19.1458C10.9689 19.3223 11.0302 19.4956 11.1498 19.6258C11.2712 19.7558 11.442 19.8285 11.6198 19.8258H14.0198C14.1977 19.8285 14.3684 19.7558 14.4898 19.6258C14.6094 19.4956 14.6708 19.3223 14.6598 19.1458L14.4498 15.2958C15.5872 14.5811 16.1109 13.1975 15.7318 11.9088C15.3526 10.6202 14.163 9.74061 12.8198 9.75581Z" fill="#161615"/>
<path fill-rule="evenodd" clip-rule="evenodd" d="M25.2395 5.68543V5.86543C25.5895 9.34542 25.9595 15.7154 24.5395 19.2654C22.9296 22.8841 20.1796 25.8764 16.7095 27.7854C15.5331 28.3569 14.3166 28.8415 13.0695 29.2354C12.9835 29.25 12.8956 29.25 12.8095 29.2354C12.7232 29.2458 12.6359 29.2458 12.5495 29.2354C11.3042 28.8326 10.088 28.3448 8.90951 27.7754C5.43939 25.8664 2.68942 22.8741 1.07951 19.2554C-0.320493 15.7154 0.0795072 9.35542 0.419507 5.87542V5.68543C0.508363 4.76209 1.22044 4.02102 2.13951 3.89543L11.6095 1.27543L12.6095 0.995425C12.7636 0.955627 12.9254 0.955627 13.0795 0.995425L14.0795 1.31543L23.4995 3.89543C24.4264 4.01246 25.1488 4.7556 25.2395 5.68543ZM2.66972 5.61495C2.51836 5.64355 2.37296 5.69765 2.23972 5.77495H2.16972C2.17259 5.79485 2.17259 5.81505 2.16972 5.83495V6.04495C1.60972 11.695 1.81972 16.265 2.74972 18.595C4.15625 21.8099 6.58072 24.4733 9.64972 26.175C10.6604 26.6669 11.7027 27.0912 12.7697 27.445C13.8367 27.0912 14.879 26.6669 15.8897 26.175C18.9716 24.4792 21.4128 21.8202 22.8397 18.6049C23.7697 16.275 23.9697 11.705 23.4097 6.05495V5.84495C23.4161 5.81866 23.4161 5.79124 23.4097 5.76495C23.2736 5.70739 23.1332 5.66058 22.9897 5.62495L12.7997 2.82495L2.66972 5.61495Z" fill="#161615"/>
</svg>
