<svg width="16" height="11" viewBox="0 0 16 11" fill="none" xmlns="http://www.w3.org/2000/svg">
<rect x="5.57959" y="1.97168" width="4.5768" height="7.55771" fill="#FF5F00"/>
<path d="M6.05076 5.75089C6.04961 4.27633 6.71913 2.88313 7.86642 1.97271C5.91736 0.424059 3.11842 0.649633 1.43663 2.4909C-0.245154 4.33217 -0.245154 7.17095 1.43663 9.01222C3.11842 10.8535 5.91736 11.0791 7.86642 9.53041C6.71877 8.6197 6.0492 7.22592 6.05076 5.75089Z" fill="#EB001B"/>
<path d="M15.0161 8.78254V8.62086H15.0816V8.59391H14.9245V8.62086H14.9899V8.78254H15.0161Z" fill="#F79E1B"/>
<path d="M15.3172 8.59391H15.2649L15.2125 8.72865L15.1601 8.59391H15.1078V8.78254H15.147V8.63434L15.1906 8.7556H15.2387L15.2808 8.63434V8.78254H15.3172V8.59391Z" fill="#F79E1B"/>
<path d="M15.5585 5.75079C15.5585 7.59094 14.5192 9.26953 12.8821 10.0737C11.245 10.8778 9.29752 10.6663 7.8667 9.52898C9.01349 8.61779 9.68307 7.22477 9.68307 5.75013C9.68307 4.27549 9.01349 2.88247 7.8667 1.97127C9.29752 0.833961 11.245 0.622457 12.8821 1.42659C14.5192 2.23072 15.5585 3.90931 15.5585 5.74946V5.75079Z" fill="#F79E1B"/>
</svg>
