<svg width="66" height="17" viewBox="0 0 66 17" fill="none" xmlns="http://www.w3.org/2000/svg">
<path fill-rule="evenodd" clip-rule="evenodd" d="M18.7674 0.75C19.0892 0.440026 19.5996 0.442301 19.9187 0.755132L25.7008 7.77744C26.1041 8.17282 26.1001 8.82304 25.6919 9.21342L20.0199 16.2917C19.8802 16.4254 19.6942 16.5 19.5007 16.5L14.7382 16.5C14.067 16.5 13.733 15.6873 14.2108 15.2162L20.0226 8.5L14.7382 2H12.6184L17.6723 7.77775C18.0847 8.17133 18.085 8.82904 17.6731 9.22307L11.0327 16.2917C10.8929 16.4254 10.7069 16.5 10.5134 16.5H2.99992C1.34348 16.5 0.000490164 15.1575 0.000235639 13.5011C-0.000276616 10.1673 0.000159259 6.8336 0.000478815 3.49986C0.000637627 1.84306 1.34377 0.5 3.00057 0.5H5.98488C6.39954 0.5 6.7357 0.835787 6.7357 1.25C6.7357 1.66421 6.39954 2 5.98488 2H3.50231C2.39774 2 1.50231 2.89543 1.50231 4C1.50231 7 1.50231 10 1.50231 13C1.50231 14.1046 2.39774 15 3.50231 15H9.95778L16.0182 8.5L10.2064 1.78378C9.72866 1.31273 10.0626 0.5 10.7338 0.5H15.3757C15.5692 0.5 15.7552 0.574616 15.8949 0.708287L21.6774 7.77693C22.0894 8.17096 22.089 8.82867 21.6767 9.22225L16.6227 15H18.8757L24.027 8.5L18.7674 2C18.4378 1.67429 18.4336 1.07144 18.7674 0.75Z" fill="#141413"/>
<rect x="32.0005" y="0.5" width="1" height="16" rx="0.5" fill="#141413"/>
<rect x="48.4858" y="1.81738" width="8.03315" height="13.3635" fill="#FF5F00"/>
<path d="M49.313 8.50011C49.311 5.89281 50.4862 3.42935 52.4999 1.81956C49.0789 -0.918747 44.1662 -0.519889 41.2144 2.73583C38.2625 5.99154 38.2625 11.011 41.2144 14.2668C44.1662 17.5225 49.0789 17.9213 52.4999 15.183C50.4855 13.5727 49.3103 11.1082 49.313 8.50011Z" fill="#EB001B"/>
<path d="M65.0478 13.8607V13.5748H65.1627V13.5272H64.887V13.5748H65.0019V13.8607H65.0478Z" fill="#F79E1B"/>
<path d="M65.5768 13.5272H65.4849L65.393 13.7654L65.3011 13.5272H65.2092V13.8607H65.2781V13.5986L65.3545 13.813H65.439L65.5129 13.5986V13.8607H65.5768V13.5272Z" fill="#F79E1B"/>
<path d="M66.0001 8.50046C66.0001 11.7542 64.176 14.7223 61.3025 16.1441C58.4291 17.566 55.0109 17.192 52.4995 15.181C54.5123 13.5698 55.6876 11.1067 55.6876 8.49928C55.6876 5.89184 54.5123 3.42871 52.4995 1.81755C55.0109 -0.193437 58.4291 -0.567416 61.3025 0.854442C64.176 2.2763 66.0001 5.24437 66.0001 8.4981V8.50046Z" fill="#F79E1B"/>
</svg>
