<svg width="20" height="20" viewBox="0 0 20 20" fill="none" xmlns="http://www.w3.org/2000/svg">
<path d="M12.1177 6.06958H7.87019V13.9304H12.1177V6.06958Z" fill="#FF5A00"/>
<path d="M8.15294 10C8.15294 8.40291 8.88181 6.98544 10.0002 6.06958C9.17712 5.40291 8.1388 5 7.00623 5C4.32324 5 2.15234 7.23625 2.15234 10C2.15234 12.7638 4.32324 15 7.00623 15C8.1388 15 9.17712 14.5971 10.0002 13.9304C8.88023 13.0275 8.15294 11.5971 8.15294 10Z" fill="#EB001B"/>
<path d="M17.8481 10C17.8481 12.7638 15.6772 15 12.9943 15C11.8617 15 10.8234 14.5971 10.0002 13.9304C11.1328 13.0129 11.8475 11.5971 11.8475 10C11.8475 8.40291 11.1187 6.98544 10.0002 6.06958C10.8218 5.40291 11.8601 5 12.9927 5C15.6772 5 17.8481 7.25081 17.8481 10Z" fill="#F79E1B"/>
</svg>
