<svg width="74" height="13" viewBox="0 0 74 13" fill="none" xmlns="http://www.w3.org/2000/svg">
<path d="M12.0351 2.1399C11.9543 2.00793 11.8081 1.91979 11.6413 1.91979C11.3869 1.91979 11.1806 2.12472 11.1806 2.37762C11.1806 2.51087 11.2379 2.63083 11.3294 2.71452L14.8022 6.89848L11.368 11.003H10.9935H9.88437L13.1299 7.25001C13.132 7.2477 13.1339 7.24538 13.1359 7.24306L13.1366 7.24331C13.227 7.14456 13.2672 7.02917 13.2651 6.91543C13.2672 6.80175 13.227 6.68636 13.1366 6.58761L13.1359 6.5878C13.1339 6.58548 13.132 6.58316 13.1299 6.58091L9.25433 2.14715C9.25347 2.14611 9.25261 2.14508 9.25169 2.14404C9.17146 2.00976 9.02401 1.91979 8.85552 1.91979H6.13361C5.87919 1.91979 5.67291 2.12472 5.67291 2.37762C5.67291 2.45437 5.68346 2.53416 5.72566 2.5903L9.33278 6.93244L6.25849 10.5979C6.24021 10.616 5.9753 10.9912 5.50951 10.9912H1.83787C1.33854 10.9912 0.924457 10.6039 0.924457 10.0895V3.73564C0.924457 3.28787 1.33854 2.82796 1.84916 2.82796H4.13338C4.40264 2.82796 4.59407 2.64522 4.59407 2.37762C4.59407 2.11003 4.40264 1.91113 4.13338 1.91113L1.82677 1.92022C0.73407 1.92022 0 2.81583 0 3.72632V10.0895C0 11.0699 0.869684 11.9049 1.82677 11.9049H5.49737C5.68248 11.9049 5.85183 11.878 6.00431 11.8348C6.02609 11.8287 6.04755 11.8221 6.06859 11.8154C6.57468 11.6524 6.88013 11.3175 6.93926 11.2465L10.3991 7.23935C10.5627 7.05483 10.5845 6.78724 10.4018 6.58761L10.4011 6.5878C10.3991 6.58548 10.3972 6.58316 10.3952 6.58091L7.12247 2.82796H8.25878H8.63324L12.0533 6.91549L8.45432 11.2298C8.45316 11.2311 8.45536 11.2348 8.46045 11.2406C8.42684 11.3042 8.40771 11.3765 8.40771 11.4533C8.40771 11.7061 8.61398 11.9111 8.86834 11.9111H11.5903C11.7588 11.9111 11.9061 11.821 11.9865 11.6868C11.9873 11.6858 11.9891 11.6838 11.9891 11.6838L15.8647 7.25001C15.8667 7.2477 15.8686 7.24538 15.8707 7.24306L15.8713 7.24331C16.054 7.04362 16.0323 6.77603 15.8686 6.59151L12.0351 2.1399Z" fill="black"/>
<g clip-path="url(#clip0_1007_24193)">
<rect x="26.6958" y="2.1944" width="5.67071" height="9.43316" fill="#FF5F00"/>
<path d="M27.2798 6.91136C27.2783 5.07088 28.1079 3.33195 29.5294 2.19561C27.1145 0.262666 23.6466 0.544216 21.5628 2.8424C19.4791 5.14058 19.4791 8.6838 21.5628 10.982C23.6466 13.2802 27.1145 13.5617 29.5294 11.6288C28.1074 10.4921 27.2778 8.75241 27.2798 6.91136Z" fill="#EB001B"/>
<path d="M38.3875 10.6955V10.4937H38.4686V10.4601H38.2739V10.4937H38.355V10.6955H38.3875Z" fill="#F79E1B"/>
<path d="M38.7608 10.4601H38.6959L38.631 10.6282L38.5661 10.4601H38.5012V10.6955H38.5499V10.5105L38.6038 10.6619H38.6634L38.7156 10.5105V10.6955H38.7608V10.4601Z" fill="#F79E1B"/>
<path d="M39.0601 6.9116C39.0601 9.20838 37.7723 11.3035 35.744 12.3072C33.7156 13.3109 31.3026 13.0469 29.5298 11.6273C30.9507 10.49 31.7803 8.75134 31.7803 6.91076C31.7803 5.07019 30.9507 3.33149 29.5298 2.19419C31.3026 0.774648 33.7156 0.510659 35.744 1.51434C37.7723 2.51801 39.0601 4.61315 39.0601 6.90993V6.9116Z" fill="#F79E1B"/>
</g>
<path fill-rule="evenodd" clip-rule="evenodd" d="M64.4916 8.60217C64.4974 7.07425 63.2714 6.41031 62.2906 5.87924C61.6324 5.52281 61.0848 5.22623 61.0942 4.76848C61.1012 4.42153 61.422 4.05307 62.1221 3.95844C62.4693 3.91113 63.4263 3.87529 64.5125 4.39142L64.9375 2.33981C64.3541 2.12045 63.6041 1.91113 62.6693 1.91113C60.2734 1.91113 58.5872 3.22583 58.5719 5.1097C58.5566 6.50181 59.7761 7.27887 60.6942 7.74196C61.6387 8.21651 61.9554 8.52045 61.9512 8.94339C61.9457 9.59285 61.1984 9.87816 60.5012 9.88963C59.3193 9.90908 58.6189 9.57172 58.0635 9.30424L58.0108 9.27887L57.5719 11.3979C58.1385 11.666 59.183 11.8997 60.2678 11.9111C62.8179 11.9111 64.4833 10.6122 64.4916 8.60217ZM54.4509 2.08748L50.5229 11.7606H47.9603L46.0283 4.04017C45.9102 3.56419 45.8088 3.39071 45.4518 3.18999C44.8699 2.86311 43.9073 2.55773 43.0601 2.36705L43.1184 2.08605H47.2436C47.7686 2.08605 48.2422 2.44734 48.3617 3.07243L49.3826 8.671L51.9049 2.08748H54.4509ZM73.0601 11.7608H70.8183L70.5266 10.3156H67.4167L66.9112 11.7608H64.3652L68.0015 2.79733C68.1765 2.36723 68.5682 2.08766 69.0335 2.08766H71.103L73.0601 11.7608ZM68.114 8.33259L69.3905 4.69962L70.1252 8.33259H68.114ZM55.9106 11.7608L57.9149 2.08766H55.4926L53.4869 11.7608H55.9106Z" fill="#1A1F71"/>
<defs>
<clipPath id="clip0_1007_24193">
<rect width="19.0599" height="11.9999" fill="white" transform="translate(20 0.911194)"/>
</clipPath>
</defs>
</svg>
