<svg width="24" height="11" viewBox="0 0 24 11" fill="none" xmlns="http://www.w3.org/2000/svg">
<g clip-path="url(#clip0_1385_6351)">
<path fill-rule="evenodd" clip-rule="evenodd" d="M2.41797 0.428101H3.47624V4.80193H2.41797V0.428101Z" fill="black"/>
<path fill-rule="evenodd" clip-rule="evenodd" d="M3.80957 0.428101H4.13747V4.80193H3.80957V0.428101Z" fill="black"/>
<path fill-rule="evenodd" clip-rule="evenodd" d="M4.42285 0.428101H5.01001V4.80193H4.42285V0.428101Z" fill="black"/>
<path fill-rule="evenodd" clip-rule="evenodd" d="M5.57617 0.428101H5.90407V4.80193H5.57617V0.428101Z" fill="black"/>
<path fill-rule="evenodd" clip-rule="evenodd" d="M6.04688 0.428101H6.29971V4.80193H6.04688V0.428101Z" fill="black"/>
<path fill-rule="evenodd" clip-rule="evenodd" d="M1.6123 0.428101H1.94021V10.0365H1.6123V0.428101Z" fill="black"/>
<path fill-rule="evenodd" clip-rule="evenodd" d="M0.888672 0.428101H1.47583V10.0365H0.888672V0.428101Z" fill="black"/>
<path fill-rule="evenodd" clip-rule="evenodd" d="M8.05273 0.428101H9.11101V4.80193H8.05273V0.428101Z" fill="black"/>
<path fill-rule="evenodd" clip-rule="evenodd" d="M9.44434 0.428101H9.77224V4.80193H9.44434V0.428101Z" fill="black"/>
<path fill-rule="evenodd" clip-rule="evenodd" d="M10.0586 0.428101H10.6458V4.80193H10.0586V0.428101Z" fill="black"/>
<path fill-rule="evenodd" clip-rule="evenodd" d="M11.2119 0.428101H11.5398V4.80193H11.2119V0.428101Z" fill="black"/>
<path fill-rule="evenodd" clip-rule="evenodd" d="M11.6816 0.428101H11.9345V4.80193H11.6816V0.428101Z" fill="black"/>
<path fill-rule="evenodd" clip-rule="evenodd" d="M7.24707 0.428101H7.57497V4.80193H7.24707V0.428101Z" fill="black"/>
<path fill-rule="evenodd" clip-rule="evenodd" d="M6.52441 0.428101H7.11157V4.80193H6.52441V0.428101Z" fill="black"/>
<path fill-rule="evenodd" clip-rule="evenodd" d="M12.3516 0.428101H12.9387V4.80193H12.3516V0.428101Z" fill="black"/>
<path fill-rule="evenodd" clip-rule="evenodd" d="M13.5039 0.428101H13.8323V4.80193H13.5039V0.428101Z" fill="black"/>
<path fill-rule="evenodd" clip-rule="evenodd" d="M13.9746 0.428101H14.2274V4.80193H13.9746V0.428101Z" fill="black"/>
<path fill-rule="evenodd" clip-rule="evenodd" d="M15.1758 0.428101H15.5042V4.80193H15.1758V0.428101Z" fill="black"/>
<path fill-rule="evenodd" clip-rule="evenodd" d="M14.4521 0.428101H15.0393V4.80193H14.4521V0.428101Z" fill="black"/>
<path fill-rule="evenodd" clip-rule="evenodd" d="M15.9395 0.428101H16.2674V4.80193H15.9395V0.428101Z" fill="black"/>
<path fill-rule="evenodd" clip-rule="evenodd" d="M16.4111 0.428101H16.664V4.80193H16.4111V0.428101Z" fill="black"/>
<path fill-rule="evenodd" clip-rule="evenodd" d="M17.6123 0.428101H17.9402V4.80193H17.6123V0.428101Z" fill="black"/>
<path fill-rule="evenodd" clip-rule="evenodd" d="M16.8887 0.428101H17.4758V4.80193H16.8887V0.428101Z" fill="black"/>
<path fill-rule="evenodd" clip-rule="evenodd" d="M18.2266 0.428101H19.2848V4.80193H18.2266V0.428101Z" fill="black"/>
<path fill-rule="evenodd" clip-rule="evenodd" d="M19.6182 0.428101H19.9461V4.80193H19.6182V0.428101Z" fill="black"/>
<path fill-rule="evenodd" clip-rule="evenodd" d="M20.2314 0.428101H20.8186V4.80193H20.2314V0.428101Z" fill="black"/>
<path fill-rule="evenodd" clip-rule="evenodd" d="M21.3848 0.428101H21.7127V4.80193H21.3848V0.428101Z" fill="black"/>
<path fill-rule="evenodd" clip-rule="evenodd" d="M21.8555 0.428101H22.1083V4.80193H21.8555V0.428101Z" fill="black"/>
<path fill-rule="evenodd" clip-rule="evenodd" d="M22.5244 0.428101H23.1116V10.3387H22.5244V0.428101Z" fill="black"/>
<path d="M2.46875 10.148V5.12231H4.35468C4.73838 5.12231 5.04603 5.17268 5.27863 5.27441C5.51023 5.37614 5.69147 5.53318 5.82282 5.74454C5.95517 5.95491 6.02035 6.17614 6.02035 6.40775C6.02035 6.62157 5.96208 6.82404 5.84603 7.01367C5.73048 7.2033 5.55468 7.35639 5.31961 7.47343C5.62381 7.56231 5.85789 7.71441 6.02035 7.92972C6.18431 8.14404 6.26579 8.39787 6.26579 8.69022C6.26579 8.92627 6.21542 9.14503 6.11616 9.3475C6.0169 9.54997 5.89394 9.70552 5.74776 9.81565C5.60159 9.92429 5.41789 10.0077 5.19813 10.0635C4.9769 10.1198 4.70677 10.148 4.38628 10.148H2.46875ZM3.13542 7.2354H4.22233C4.51715 7.2354 4.729 7.21565 4.8564 7.17713C5.02628 7.12676 5.15369 7.04281 5.23912 6.92577C5.32455 6.80873 5.36801 6.66256 5.36801 6.48577C5.36801 6.31836 5.32801 6.1712 5.24752 6.04478C5.16801 5.91738 5.05344 5.82948 4.9048 5.78256C4.75616 5.73565 4.50134 5.71244 4.14085 5.71244H3.13591V7.2354H3.13542ZM3.13542 9.55836H4.38727C4.60258 9.55836 4.75319 9.54997 4.8411 9.53367C4.99319 9.50701 5.12208 9.46108 5.2248 9.39688C5.32752 9.33268 5.41196 9.23886 5.47863 9.11639C5.54529 8.99343 5.57789 8.85219 5.57789 8.6917C5.57789 8.50355 5.52998 8.34059 5.4327 8.20133C5.3369 8.06207 5.20356 7.96528 5.0327 7.90898C4.86282 7.85269 4.61739 7.82454 4.29789 7.82454H3.13492V9.55836H3.13542Z" fill="black"/>
<path d="M6.86963 8.32674C6.86963 7.65415 7.0568 7.15587 7.4321 6.83192C7.7442 6.56279 8.12692 6.42847 8.57729 6.42847C9.07655 6.42847 9.48642 6.59242 9.80445 6.91983C10.1215 7.24624 10.2805 7.69908 10.2805 8.27587C10.2805 8.74402 10.2104 9.11094 10.0701 9.37908C9.92988 9.64674 9.72494 9.85513 9.45581 10.0038C9.18815 10.1524 8.89433 10.226 8.57729 10.226C8.06717 10.226 7.65531 10.0635 7.34075 9.73711C7.02618 9.41069 6.86914 8.94057 6.86914 8.32723L6.86963 8.32674ZM7.50124 8.32773C7.50124 8.7934 7.60297 9.14205 7.80642 9.37217C8.01136 9.60377 8.26717 9.71982 8.57729 9.71982C8.88741 9.71982 9.13877 9.60378 9.34371 9.37118C9.54717 9.13859 9.64889 8.78402 9.64889 8.30797C9.64889 7.85859 9.54568 7.51834 9.34124 7.28773C9.1363 7.05612 8.88149 6.94007 8.57729 6.94007C8.27309 6.94007 8.01087 7.05464 7.80642 7.28526C7.60297 7.51587 7.50124 7.86303 7.50124 8.32773Z" fill="black"/>
<path d="M10.9912 10.148V5.12231H11.6085V10.148H10.9912Z" fill="black"/>
<path d="M15.0487 8.96872L15.6873 9.05316C15.588 9.42403 15.4018 9.71292 15.1302 9.91785C14.8586 10.1228 14.5124 10.2255 14.0902 10.2255C13.5594 10.2255 13.1381 10.0616 12.827 9.73415C12.5159 9.40773 12.3604 8.94798 12.3604 8.35736C12.3604 7.76674 12.5169 7.27193 12.832 6.93464C13.1465 6.59637 13.5549 6.42798 14.0566 6.42798C14.5584 6.42798 14.9386 6.59292 15.2463 6.92378C15.5539 7.25464 15.7085 7.72032 15.7085 8.32032C15.7085 8.35637 15.7075 8.41168 15.705 8.48427H12.992C13.0152 8.88329 13.1278 9.18946 13.3312 9.40131C13.5337 9.61316 13.7875 9.71934 14.0902 9.71934C14.3159 9.71934 14.509 9.65958 14.668 9.54008C14.8285 9.42057 14.9544 9.22995 15.0483 8.96823L15.0487 8.96872ZM13.0275 7.97909H15.0562C15.0295 7.67242 14.951 7.44329 14.8236 7.2902C14.628 7.05267 14.3732 6.93316 14.0606 6.93316C13.7776 6.93316 13.5401 7.02798 13.347 7.21761C13.1549 7.40724 13.0487 7.66107 13.0275 7.97909Z" fill="black"/>
<path d="M17.8095 9.59685L17.894 10.142C17.7206 10.1781 17.5651 10.1969 17.4298 10.1969C17.2066 10.1969 17.0332 10.1618 16.9093 10.0902C16.7863 10.0191 16.6999 9.92624 16.6495 9.81068C16.5992 9.69463 16.5745 9.45167 16.5745 9.08081V6.98204H16.1182V6.505H16.5745V5.60426L17.1922 5.2334V6.505H17.81V6.98204H17.1922V9.11587C17.1922 9.29266 17.2026 9.40574 17.2248 9.45611C17.2461 9.50649 17.2811 9.54599 17.33 9.57661C17.3789 9.60574 17.4495 9.62105 17.5404 9.62105C17.608 9.62105 17.6984 9.61266 17.8095 9.59636V9.59685Z" fill="black"/>
<path d="M18.1875 8.32674C18.1875 7.65415 18.3747 7.15587 18.7505 6.83192C19.0626 6.56279 19.4453 6.42847 19.8956 6.42847C20.3949 6.42847 20.8048 6.59242 21.1228 6.91983C21.4398 7.24624 21.5989 7.69908 21.5989 8.27587C21.5989 8.74402 21.5287 9.11094 21.3885 9.37908C21.2482 9.64674 21.0433 9.85513 20.7742 10.0038C20.5065 10.1524 20.2127 10.226 19.8956 10.226C19.3855 10.226 18.9737 10.0635 18.6591 9.73711C18.3445 9.41069 18.1875 8.94057 18.1875 8.32723V8.32674ZM18.8191 8.32773C18.8191 8.7934 18.9208 9.14205 19.1243 9.37217C19.3292 9.60377 19.585 9.71982 19.8952 9.71982C20.2053 9.71982 20.4566 9.60378 20.6616 9.37118C20.865 9.13859 20.9668 8.78402 20.9668 8.30797C20.9668 7.85859 20.8635 7.51834 20.6591 7.28773C20.4542 7.05612 20.1994 6.94007 19.8952 6.94007C19.591 6.94007 19.3287 7.05464 19.1243 7.28526C18.9208 7.51587 18.8191 7.86303 18.8191 8.32773Z" fill="black"/>
</g>
<defs>
<clipPath id="clip0_1385_6351">
<rect width="22.2222" height="9.91062" fill="white" transform="translate(0.888672 0.428101)"/>
</clipPath>
</defs>
</svg>
