<svg width="20" height="15" viewBox="0 0 20 15" fill="none" xmlns="http://www.w3.org/2000/svg">
<path d="M17.4016 0.0205078H2.5984C1.16334 0.0205078 0 1.18384 0 2.6189V11.7133C0 13.1483 1.16334 14.3117 2.5984 14.3117H17.4016C18.8367 14.3117 20 13.1483 20 11.7133V2.6189C20 1.18384 18.8367 0.0205078 17.4016 0.0205078Z" fill="#F8DDC9"/>
<path d="M20 6.8833H0V8.02965H20V6.8833Z" fill="#8B4513"/>
<path d="M10.9822 11.5069C10.8523 11.5069 10.7223 11.4611 10.6153 11.377C9.26266 10.2536 8.59777 9.35943 7.75711 8.22837L7.45142 7.82333C7.35207 7.69341 7.26036 7.55584 7.1763 7.41828C5.51027 7.26544 4.08115 6.6082 3.43919 6.20315C2.59089 5.66055 2.13235 4.88867 2.18585 4.08622C2.2317 3.39077 2.65968 2.77175 3.30163 2.48134C4.00473 2.16036 4.79953 2.26735 5.49498 2.77939C6.56491 3.57419 7.10751 4.71289 7.58898 5.72168C7.68833 5.92803 7.78004 6.12673 7.87175 6.31015C7.89468 6.31015 7.9176 6.31015 7.94053 6.31015C8.23094 6.3025 8.51371 6.56235 8.52135 6.87568C8.52135 6.99796 8.48314 7.11259 8.422 7.2043L8.68184 7.5482C9.50721 8.66398 10.1033 9.46643 11.349 10.4981C11.5936 10.6968 11.6241 11.0637 11.4254 11.3082C11.3108 11.4458 11.1503 11.5146 10.9822 11.5146V11.5069ZM4.13465 3.42898C4.01237 3.42898 3.89773 3.45191 3.79074 3.50541C3.5309 3.62769 3.35513 3.87224 3.33984 4.14736C3.31692 4.52948 3.56911 4.9116 4.06587 5.22494C4.48619 5.49242 5.41092 5.93567 6.54198 6.1573C6.10637 5.24022 5.64783 4.29257 4.82246 3.68118C4.59319 3.51305 4.35627 3.42898 4.13465 3.42898Z" fill="#8B4513"/>
<path d="M4.40962 11.507C4.24149 11.507 4.081 11.4382 3.96636 11.3006C3.76766 11.0561 3.79823 10.6969 4.04279 10.4905C5.28849 9.45882 5.88459 8.64873 6.71761 7.54059L6.9698 7.19669C6.90102 7.10498 6.86281 6.99034 6.87045 6.86806C6.87045 6.55472 7.14558 6.29489 7.45127 6.30253C7.4742 6.30253 7.50477 6.30253 7.53534 6.30253C7.62704 6.12676 7.71875 5.94334 7.81046 5.75229C8.269 4.81228 8.79632 3.74998 9.86625 2.79469C10.5082 2.22916 11.3336 2.06868 12.0749 2.37437C12.7856 2.66478 13.2747 3.32201 13.3206 4.04804C13.3817 4.87341 12.8773 5.66057 11.9373 6.20318C11.4941 6.46302 10.0344 7.23489 8.23079 7.40302C8.14672 7.54058 8.05502 7.67815 7.95567 7.81571L7.64997 8.22076C6.80932 9.35182 6.14443 10.246 4.79174 11.3694C4.68474 11.4611 4.55482 11.4993 4.4249 11.4993L4.40962 11.507ZM11.2954 3.36787C11.1043 3.36787 10.8674 3.43666 10.6152 3.65064C9.75162 4.41488 9.30072 5.29374 8.88039 6.14204C9.85097 5.94334 10.7298 5.56886 11.3489 5.20967C11.8991 4.8887 12.1895 4.49894 12.1666 4.12446C12.1437 3.83405 11.9297 3.55129 11.6316 3.42901C11.5476 3.39844 11.4329 3.36023 11.2954 3.36023V3.36787Z" fill="#8B4513"/>
</svg>
