<svg width="24" height="24" viewBox="0 0 24 24" fill="none" xmlns="http://www.w3.org/2000/svg">
<g id="pix-svgrepo-com 1">
<path id="Vector" d="M17.8744 17.5642C17.4693 17.5651 17.068 17.4858 16.6936 17.3308C16.3193 17.1758 15.9794 16.9482 15.6934 16.6612L12.5434 13.5112C12.4319 13.4053 12.284 13.3462 12.1302 13.3462C11.9764 13.3462 11.8284 13.4053 11.7169 13.5112L8.55493 16.6732C8.26909 16.9604 7.92917 17.188 7.55482 17.343C7.18046 17.498 6.7791 17.5773 6.37393 17.5762H5.75293L9.74293 21.5662C10.9879 22.8112 13.0084 22.8112 14.2534 21.5662L18.2539 17.5642H17.8744ZM6.37393 6.4222C7.19893 6.4222 7.97293 6.7432 8.55493 7.3252L11.7169 10.4872C11.7713 10.5416 11.8358 10.5848 11.9068 10.6143C11.9779 10.6437 12.054 10.6589 12.1309 10.6589C12.2078 10.6589 12.284 10.6437 12.355 10.6143C12.4261 10.5848 12.4906 10.5416 12.5449 10.4872L15.6949 7.3372C15.9806 7.05022 16.3203 6.82267 16.6944 6.66768C17.0684 6.51269 17.4695 6.43334 17.8744 6.4342H18.2539L14.2534 2.4337C13.6552 1.83584 12.844 1.5 11.9982 1.5C11.1524 1.5 10.3412 1.83584 9.74293 2.4337L5.75293 6.4237L6.37393 6.4222Z" fill="#32BCAD"/>
<path id="Vector_2" d="M21.5647 9.74393L19.1467 7.32593C19.0924 7.34822 19.0344 7.35993 18.9757 7.36043H17.8762C17.3077 7.36043 16.7512 7.59143 16.3507 7.99343L13.2007 11.1434C13.0606 11.2842 12.8941 11.396 12.7107 11.4723C12.5272 11.5485 12.3306 11.5878 12.1319 11.5878C11.9333 11.5878 11.7366 11.5485 11.5532 11.4723C11.3698 11.396 11.2033 11.2842 11.0632 11.1434L7.90119 7.97993C7.49551 7.57592 6.94672 7.34842 6.37419 7.34693H5.02419C4.96822 7.34649 4.91281 7.33581 4.86069 7.31543L2.43369 9.74393C1.18869 10.9889 1.18869 13.0094 2.43369 14.2559L4.86069 16.6829C4.91224 16.6622 4.96713 16.651 5.02269 16.6499H6.37419C6.94419 16.6499 7.49919 16.4204 7.90119 16.0184L11.0617 12.8549C11.3501 12.5804 11.733 12.4272 12.1312 12.4272C12.5294 12.4272 12.9123 12.5804 13.2007 12.8549L16.3507 16.0049C16.7512 16.4069 17.3077 16.6364 17.8762 16.6364H18.9757C19.0357 16.6364 19.0942 16.6514 19.1467 16.6724L21.5647 14.2544C22.8097 13.0094 22.8097 10.9889 21.5647 9.74393Z" fill="#32BCAD"/>
</g>
</svg>
