<svg width="20" height="18" viewBox="0 0 20 18" fill="none" xmlns="http://www.w3.org/2000/svg">
<g clip-path="url(#clip0_3050_6492)">
<path d="M3.24302 6.58008H1.78485V16.4207H3.24302V6.58008Z" fill="#CCE1FF"/>
<path d="M8.3187 6.58008H6.86053V16.4207H8.3187V6.58008Z" fill="#CCE1FF"/>
<path d="M18.4781 6.58008H17.0199V16.4207H18.4781V6.58008Z" fill="#CCE1FF"/>
<path d="M13.4024 6.58008H11.9442V16.4207H13.4024V6.58008Z" fill="#CCE1FF"/>
<path d="M18.9881 17.3762H1.01197C0.486075 17.3762 0.0557861 16.9459 0.0557861 16.4201C0.0557861 15.8942 0.486075 15.4639 1.01197 15.4639H18.9881C19.514 15.4639 19.9442 15.8942 19.9442 16.4201C19.9442 16.9459 19.514 17.3762 18.9881 17.3762Z" fill="#006AFF"/>
<path d="M0.00796375 4.92232C0.00796375 4.61953 0.183268 4.35658 0.462153 4.23706C0.844623 4.06973 1.25896 3.9024 1.59363 3.751L9.28287 0.149402C9.74502 -0.0498008 10.2789 -0.0498008 10.741 0.149402H10.749L19.5458 4.08566C19.8247 4.20518 20 4.4761 20 4.77092C20 5.2012 19.992 5.81474 19.992 6.3008C19.992 6.71514 19.6574 7.04981 19.243 7.04981L0.749006 7.002C0.334663 7.002 0 6.66734 0 6.25299V4.91435L0.00796375 4.92232Z" fill="#006AFF"/>
</g>
<defs>
<clipPath id="clip0_3050_6492">
<rect width="20" height="17.3765" fill="white"/>
</clipPath>
</defs>
</svg>
