<svg width="24" height="24" viewBox="0 0 24 24" fill="none" xmlns="http://www.w3.org/2000/svg">
<path d="M3.60004 8.23981V5.5798C3.60004 4.32059 4.62083 3.2998 5.88004 3.2998H8.41337" stroke="#231D1A" stroke-width="0.9" stroke-linecap="round"/>
<path d="M3.60004 15.5873V18.2473C3.60004 19.5066 4.62083 20.5273 5.88004 20.5273H8.41337" stroke="#231D1A" stroke-width="0.9" stroke-linecap="round"/>
<path d="M20.7 8.23981V5.5798C20.7 4.32059 19.6792 3.2998 18.42 3.2998H15.8867" stroke="#231D1A" stroke-width="0.9" stroke-linecap="round"/>
<path d="M20.7 15.5873V18.2473C20.7 19.5066 19.6792 20.5273 18.42 20.5273H15.8867" stroke="#231D1A" stroke-width="0.9" stroke-linecap="round"/>
<path d="M15 15.54L14.6193 15.7092C13.0472 16.4079 11.2527 16.4079 9.68067 15.7092L9.29999 15.54" stroke="#231D1A" stroke-width="0.9" stroke-linecap="round"/>
<path d="M12.5267 9.20703V12.3316C12.5267 12.8102 12.1918 13.2235 11.7236 13.3228L11.3267 13.407" stroke="#231D1A" stroke-width="0.9" stroke-linecap="round"/>
<path d="M8.53998 9.20703L8.53998 10.707" stroke="#231D1A" stroke-width="0.9" stroke-linecap="round"/>
<path d="M15.8867 9.20703L15.8867 10.707" stroke="#231D1A" stroke-width="0.9" stroke-linecap="round"/>
</svg>
