<svg width="21" height="20" viewBox="0 0 21 20" fill="none" xmlns="http://www.w3.org/2000/svg">
<g id="fi_5968397" clip-path="url(#clip0_2709_2949)">
<path id="Vector" d="M8.09387 6.8841L5.47586 13.1312H3.76711L2.47969 8.14617C2.40043 7.83875 2.3327 7.72688 2.09504 7.59633C1.70574 7.38586 1.06539 7.18844 0.5 7.06547L0.53957 6.88414H3.28875C3.63937 6.88414 3.95461 7.11801 4.03387 7.52117L4.71461 11.1369L6.39602 6.88414L8.09387 6.8841ZM14.7871 11.0907C14.7946 9.44277 12.5069 9.35309 12.5233 8.61586C12.5278 8.39082 12.7411 8.1527 13.2082 8.09258C13.4401 8.06172 14.0784 8.0391 14.8019 8.37125L15.0855 7.04711C14.6962 6.90582 14.1959 6.77051 13.574 6.77051C11.9768 6.77051 10.8523 7.62008 10.8429 8.83566C10.8324 9.73457 11.6451 10.2362 12.2581 10.5356C12.8875 10.8419 13.098 11.0375 13.0958 11.3122C13.0917 11.7315 12.5936 11.9148 12.1289 11.923C11.3162 11.9357 10.8449 11.7034 10.4684 11.5281L10.1759 12.8977C10.5529 13.0709 11.2511 13.2212 11.9736 13.23C13.6712 13.23 14.7817 12.3895 14.7871 11.0907ZM19.005 13.1312H20.5L19.1955 6.88414H17.8154C17.5053 6.88414 17.2438 7.065 17.1273 7.34207L14.7038 13.1312H16.4001L16.7368 12.1983H18.8104L19.005 13.1312ZM17.2017 10.9179L18.0527 8.57215L18.5423 10.9179H17.2017ZM10.4033 6.8841L9.06621 13.1312H7.44984L8.78727 6.8841H10.4033Z" fill="#1A2ADF"/>
</g>
<defs>
<clipPath id="clip0_2709_2949">
<rect width="20" height="20" fill="white" transform="translate(0.5)"/>
</clipPath>
</defs>
</svg>
