<svg width="20" height="19" viewBox="0 0 20 19" fill="none" xmlns="http://www.w3.org/2000/svg">
<g id="Frame" clip-path="url(#clip0_2771_956)">
<path id="Vector" d="M3.25722 4.09306H18.7506C19.4399 4.09306 20 4.65316 20 5.34252V16.8462C20 17.5355 19.4399 18.0957 18.7506 18.0957H2.83499C1.27532 18.0957 0 16.8203 0 15.2607V2.10254C0.387764 3.26583 1.3701 4.09306 3.25722 4.09306Z" fill="#CCE1FF"/>
<path id="Vector_2" d="M20 13.4254H15.0538C13.9681 13.4254 13.0892 12.5292 13.0892 11.3918V11.0126C13.0892 9.88379 13.9509 8.979 15.0538 8.979H20V13.4254Z" fill="#006AFF"/>
<path id="Vector_3" d="M2.06807 0C0.965096 0 0 0.887547 0 1.99052V2.09392C0 3.19689 0.973713 4.08444 2.06807 4.08444H17.2684V1.10297C17.2684 0.491167 16.7773 0 16.1655 0H2.06807Z" fill="#006AFF"/>
</g>
<defs>
<clipPath id="clip0_2771_956">
<rect width="20" height="18.0957" fill="white"/>
</clipPath>
</defs>
</svg>
